<?xml version="1.0" encoding="utf-8"?>
<!-- Generator: Adobe Illustrator 23.0.1, SVG Export Plug-In . SVG Version: 6.00 Build 0)  -->
<svg version="1.1" id="Layer_1" xmlns="http://www.w3.org/2000/svg" xmlns:xlink="http://www.w3.org/1999/xlink" x="0px" y="0px"
	 viewBox="0 0 206.3 82.27" style="enable-background:new 0 0 206.3 82.27;" xml:space="preserve">
<style type="text/css">
	.st0{fill:#D3D1C4;}
</style>
<g>
	<path class="st0" d="M27.05,33.08c0,0-1.83,0.64-4.73,1.65c-0.81,0.28-1.71,0.5-2.39-0.4l-8.33-10.24
		c-0.08-0.1-0.24-0.07-0.27,0.06c-0.07,0.26-0.16,0.56-0.23,0.84c-0.06,0.2-0.05,0.42,0.02,0.61c1.38,3.98,1.72,5.03,2.17,6.22
		c0.57,1.48,1.7,4,2.78,4.71c0.21,0.14,0.12,0.33-0.14,0.42c0,0-2.54,0.88-5.84,2.03c-0.34,0.1-0.42-0.09-0.37-0.29
		c0.24-0.9-0.25-3.16-1.03-5.55c-0.76-2.34-4.7-13.91-5.41-15.61c-1.13-2.7-2.44-5.26-3.06-5.49c-0.23-0.08-0.31-0.4-0.04-0.49
		c0,0,2.99-1.04,6.29-2.19c0.34-0.1,0.35,0.16,0.28,0.35c-0.39,1.13,0.22,3.42,0.89,5.74c0.22,0.77,1.08,3.16,2.52,7.34
		c0.05,0.15,0.26,0.14,0.3-0.01c0.58-2.34,1.73-8.05,1.92-9.37c0.32-2.25-0.42-4.85-1.37-5.08c-0.35-0.08-0.33-0.43-0.03-0.53
		c0,0,3.35-1.07,5.48-1.82c0.39-0.13,0.64,0.13,0.33,0.4c-1.51,1.34-2.43,4.39-2.91,6.7c-0.07,0.33-0.59,2.97-0.83,5.09
		c-0.02,0.15-0.01,0.3,0.09,0.42c4,4.64,6.84,8.1,9.08,10.54c1.74,1.88,2.75,2.97,4.85,3.45C27.4,32.67,27.37,33.02,27.05,33.08z"/>
	<path class="st0" d="M48.01,29.24c0.03,0.15-0.1,0.22-0.25,0.25l-8.06,1.4c-0.23,0.04-0.35-0.22-0.17-0.36c0,0,1.31-1.25-0.67-5.22
		l-1.58-2.95c-0.07-0.13-0.23-0.21-0.39-0.18l-6,0.98c-0.26,0.05-0.44,0.25-0.47,0.49l-0.31,3.21c-0.19,4.23,1.3,5.14,1.37,5.16
		c0.17,0.07,0.16,0.21,0.09,0.27c-0.06,0.03-0.2,0.05-0.32,0.07l-4.5,0.78c-0.32,0.06-0.41-0.21-0.15-0.43
		c0.18-0.16,1.3-1.01,2.03-6.8c0.11-0.98,0.14-0.98,2.89-23.58c0.04-0.21,0.33-0.26,0.44-0.08c0,0,9.38,16.99,9.92,17.92
		c0.86,1.49,4.25,8.35,5.88,8.84C48.01,29.05,48.01,29.24,48.01,29.24z M36.5,20.78l-4.49-8.88c-0.11-0.28-0.27-0.49-0.32,0.06
		l-1.1,9.84c-0.01,0.14,0.12,0.26,0.28,0.23l5.45-0.89C36.48,21.11,36.57,20.94,36.5,20.78z"/>
	<path class="st0" d="M67.64,31.59c-2.06-0.65-5.72-3.63-6.84-5.18c-2.32-2.78-3.79-6.18-5.13-9.94c-0.03-0.09-0.09-0.25-0.19-0.31
		c-0.09-0.06-0.58-0.1-0.65-0.01c-0.06,0.06-0.06,0.17-0.06,0.27c0.04,4.34,0.04,8.03,0.13,9.11c0.13,1.38,0.61,2.99,1.42,3.59
		c0.23,0.09,0.16,0.34-0.12,0.34c0,0-3.87-0.04-7.38-0.03c-0.36-0.01-0.37-0.26-0.11-0.46c0.68-0.56,1.19-2.17,1.25-3.41
		c0.09-2.15,0.15-8.63-0.01-17.59c-0.02-1.1-0.19-2.43-0.37-3.59c-0.08-0.59-0.36-2.42-0.97-3.3c-0.22-0.33-0.39-0.56-0.39-0.7
		c-0.06-0.31,0.92-0.05,2.99-0.21c2.18-0.16,3.1-0.25,5.27-0.09h0.05c0.74,0.04,1.47,0.13,2.25,0.27c0.84,0.15,1.66,0.41,2.45,0.8
		c1.27,0.63,2.44,1.59,3.31,2.97c0.34,0.52,0.62,1.28,0.8,2.14c0.22,1.04,0.3,2.23,0.18,3.39c-0.17,1.71-0.74,3.32-1.88,4.27
		c-0.62,0.51-1.07,0.94-2.35,1.34c-0.31,0.06-0.27,0.29-0.24,0.38c0.22,2.05,3.58,11.12,7.35,15.86
		C68.44,31.57,68.42,31.84,67.64,31.59z M60.15,11.36c0.66-2.08,0.44-4.7,0.11-6.11c-0.06-0.31-0.14-0.56-0.22-0.75
		c-0.38-0.9-1.23-2.13-2.58-2.92c-0.57-0.34-1.2-0.49-1.64-0.49l-0.09,0c-0.14,0.02-0.34,0.06-0.51,0.2
		c-0.23,0.17-0.32,0.42-0.36,0.67c-0.15,1.09-0.15,6.96-0.11,12.63c0,0.27,0.22,0.47,0.48,0.45c1.41-0.05,2.71-0.47,3.24-0.98
		c0.99-0.95,1.33-1.63,1.61-2.48C60.11,11.51,60.12,11.43,60.15,11.36z"/>
	<path class="st0" d="M88.59,32.67c-0.03,0.15-0.17,0.18-0.32,0.15l-8.07-1.36c-0.23-0.04-0.26-0.33-0.04-0.4
		c0,0,1.65-0.74,1.11-5.14l-0.51-3.31c-0.02-0.15-0.14-0.28-0.31-0.3l-5.98-1.07c-0.26-0.04-0.5,0.09-0.6,0.31l-1.36,2.93
		c-1.59,3.93-0.48,5.28-0.43,5.32c0.14,0.12,0.08,0.25,0,0.28c-0.06,0.01-0.2-0.02-0.32-0.04l-4.51-0.76
		c-0.32-0.05-0.32-0.34,0-0.46c0.22-0.09,1.57-0.52,4.18-5.74C71.84,22.18,71.87,22.19,82,1.8c0.11-0.19,0.4-0.14,0.44,0.07
		c0,0,3.18,19.15,3.38,20.2c0.31,1.69,1.23,9.29,2.6,10.29C88.65,32.49,88.59,32.67,88.59,32.67z M80.55,20.86l-1.27-9.87
		c-0.01-0.3-0.1-0.55-0.32-0.05l-4.32,8.91c-0.05,0.13,0.03,0.29,0.18,0.31l5.43,0.98C80.42,21.16,80.57,21.03,80.55,20.86z"/>
	<path class="st0" d="M104.69,41.05c0,0-1.75-0.83-4.51-2.16c-0.77-0.37-1.56-0.85-1.41-1.97l1.3-13.13
		c0.01-0.13-0.12-0.22-0.23-0.15c-0.24,0.14-0.5,0.29-0.76,0.43c-0.18,0.1-0.33,0.26-0.42,0.45c-1.82,3.79-2.33,4.78-2.84,5.94
		c-0.64,1.45-1.61,4.04-1.35,5.3c0.05,0.24-0.15,0.32-0.4,0.2c0,0-2.42-1.16-5.57-2.68c-0.31-0.17-0.24-0.36-0.05-0.47
		c0.81-0.46,2.04-2.42,3.18-4.66c1.11-2.2,6.47-13.17,7.16-14.88c1.1-2.71,1.98-5.45,1.69-6.05c-0.11-0.22,0.06-0.5,0.31-0.38
		c0,0,2.85,1.37,6.01,2.88c0.31,0.17,0.14,0.36-0.05,0.45c-1.08,0.53-2.25,2.58-3.41,4.69c-0.38,0.7-1.46,3-3.38,6.98
		c-0.07,0.14,0.09,0.28,0.22,0.2c2.06-1.25,6.9-4.49,7.96-5.3c1.82-1.37,3.12-3.74,2.61-4.57c-0.19-0.3,0.07-0.53,0.35-0.4
		c0,0,3.13,1.6,5.17,2.57c0.37,0.18,0.37,0.54-0.05,0.52c-2.01-0.12-4.81,1.4-6.79,2.7c-0.28,0.19-2.51,1.69-4.17,3.03
		c-0.12,0.09-0.22,0.21-0.23,0.36c-0.43,6.11-0.86,10.57-0.99,13.87c-0.09,2.56-0.14,4.04,1.01,5.87
		C105.23,41,104.96,41.23,104.69,41.05z"/>
	<path class="st0" d="M132.62,35.42c-0.07,0.14-0.44,0.26-0.38-0.37c0.05-0.6,0.21-5.17,0.05-6.54c-0.18-1.65-0.4-2.55-1.05-2.99
		c-0.01-0.01-0.03-0.02-0.06-0.02c-0.04-0.03-0.09-0.04-0.16-0.05c0-0.02-0.03-0.02-0.03-0.02c-0.07-0.01-0.15,0.01-0.23,0.03
		c-0.17,0.05-0.31,0.18-0.43,0.31c-0.44,0.49-6.66,9.7-10.44,15.38c-1.1,1.67-1.9,2.85-2.27,3.42c-0.44,0.68-0.98,1.71-1.24,2.68
		c-0.01,0.01,0,0.02,0,0.03c-0.17,0.65-0.22,1.25-0.02,1.67c0.09,0.17-0.01,0.27-0.18,0.24c-0.05-0.01-0.11-0.03-0.16-0.07
		c0,0-1.12-0.77-2.63-1.81l-0.24-0.17c-0.99-0.67-2.11-1.44-3.21-2.18c-0.29-0.21-0.13-0.39,0.08-0.4c0.57-0.01,1.17-0.37,1.72-0.86
		c0.02,0,0.04-0.01,0.04-0.03c0.73-0.63,1.38-1.46,1.8-2.04c0.6-0.81,1.14-1.55,2.13-3l0.01,0.01c2.15-3.2,5.23-7.84,9.04-13.49
		c1.46-2.17,1.74-2.92,1.02-3.38c-0.64-0.43-1.64-0.3-3.24,0.15c-1.33,0.37-5.5,2.24-6.04,2.51c-0.57,0.29-0.6-0.11-0.49-0.22
		c0.38-0.4,0.94-1.09,1.27-1.48c0.88-1.03,3.12-4.01,4.06-5.11c0.25-0.28,0.41-0.27,0.62-0.09c0.34,0.32,1.18,1.13,2.62,2.21
		c1.22,0.93,4.81,3.31,6.97,4.77l0.19,0.13c0.73,0.49,1.37,0.88,1.78,1.13c1.54,0.94,2.6,1.41,3.03,1.61
		c0.26,0.12,0.32,0.27,0.15,0.61c-0.69,1.27-2.59,4.48-3.21,5.69C133.28,34.14,132.85,34.92,132.62,35.42z"/>
	<path class="st0" d="M141.24,56.11c-3,3.39-4,4.66-5.15,6.26c-0.09,0.13-0.13,0.17-0.47-0.05c-1.56-1.02-5.98-3.94-6-3.96
		c-2.22-1.36-3.56-2.28-5.37-3.49l-0.01,0.01l-0.93-0.61c-0.06-0.04-0.12-0.1-0.16-0.16c-0.3-0.22-0.17-0.54,0.3-0.57
		c2.02-0.99,4.15-4.38,6.03-7.09c1.5-2.17,4.56-6.98,4.56-6.98c0.23-0.35,0.45-0.69,0.66-1.03l0.14-0.22
		c1.42-2.24,2.44-4.03,2.96-5.21c0.07-0.16,0.14-0.3,0.2-0.44c0-0.03,0.02-0.06,0.04-0.09c0.71-1.76,0.51-2.41,0.55-2.73
		c0.01-0.07,0.03-0.11,0.07-0.16c0.01-0.01,0.02-0.03,0.04-0.03c0.1-0.1,0.19-0.01,1.53,0.84l0.06,0.04
		c0.08,0.05,0.14,0.09,0.23,0.13c1.88,1.18,3.5,2.3,5.21,3.42c1.02,0.67,2.65,1.76,4.28,2.68c0.53,0.29,0.92,0.49,1.22,0.63
		c0.27,0.12,0.46,0.19,0.6,0.25c0.23,0.08,0.32,0.1,0.41,0.19c0.16,0.18-0.38,0.75-0.97,1.79c-1.19,2.09-1.75,3.04-2.56,4.55
		c-0.24,0.47-0.5,0.97-0.78,1.44c-0.06,0.12-0.14,0.19-0.21,0.18c-0.03,0-0.05-0.01-0.07-0.03c-0.47-0.36,0.18-3.33-0.28-6.02
		c-0.62-3.69-2.73-5.48-3.34-5.5c-0.29-0.02-0.51,0.18-0.66,0.36c-0.64,0.73-3.03,4.33-5.87,8.7c-0.1,0.16-0.1,0.32-0.01,0.47
		c0.27,0.49,1.37,0.92,2.35,1c0.28,0.02,0.53,0.04,0.77,0.04c1.16,0.02,1.94-0.21,2.84-0.71c0.23-0.18,0.59-0.06,0.29,0.4
		c-0.01,0.01-0.01,0.01-0.02,0.03c-1.17,1.7-2.26,3.64-3.01,5.07c0,0.02,0,0.03-0.03,0.04c-0.63,1.25-1.03,2.1-1.03,2.1
		c-0.08,0.17-0.27,0.32-0.39,0.28c-0.1-0.01-0.17-0.13-0.14-0.41c0.09-1.02-0.02-2.05-0.25-2.98c0-0.02,0-0.03-0.02-0.03
		c-0.34-1.35-0.92-2.47-1.49-3.04c-0.48-0.48-0.98-0.57-1.32-0.05c-3.03,4.61-4.49,6.92-5.16,8.03c-0.1,0.16-0.2,0.37-0.32,0.6
		c-0.34,0.54-0.6,0.96-0.76,1.21c-0.42,0.69-0.57,1.37-0.18,1.85c0.01,0.01,0.02,0.03,0.04,0.05c0.26,0.25,1.51,1.12,3.35,0.85
		c3.93-0.59,8.29-3.37,8.98-2.84C142.13,55.28,141.63,55.65,141.24,56.11z"/>
	<path class="st0" d="M157.29,75.8c-1.58-1.47-3.58-5.75-3.93-7.62c-0.89-3.5-0.75-7.21-0.33-11.18c0.01-0.1,0.02-0.26-0.04-0.36
		c-0.06-0.1-0.48-0.34-0.58-0.28c-0.08,0.03-0.13,0.13-0.17,0.21c-1.84,3.93-3.44,7.25-3.82,8.27c-0.48,1.3-0.74,2.96-0.27,3.85
		c0.17,0.18-0.01,0.37-0.26,0.25c0,0-3.48-1.71-6.64-3.22c-0.31-0.17-0.22-0.4,0.1-0.47c0.86-0.21,2.01-1.44,2.6-2.54
		c1.01-1.9,3.87-7.72,7.6-15.86c0.46-1,0.88-2.28,1.23-3.4c0.18-0.57,0.72-2.33,0.55-3.39c-0.06-0.39-0.11-0.67-0.05-0.8
		c0.08-0.31,0.84,0.35,2.79,1.11c2.04,0.8,2.9,1.11,4.79,2.2l0.04,0.02c0.65,0.36,1.27,0.76,1.91,1.22c0.69,0.5,1.32,1.09,1.86,1.78
		c0.88,1.12,1.51,2.49,1.7,4.1c0.08,0.62,0.01,1.43-0.21,2.27c-0.25,1.03-0.7,2.14-1.31,3.14c-0.89,1.46-2.1,2.67-3.54,3.03
		c-0.78,0.19-1.37,0.38-2.7,0.2c-0.31-0.08-0.37,0.14-0.38,0.24c-0.69,1.95-1.58,11.57-0.23,17.48
		C158.02,76.13,157.88,76.36,157.29,75.8z M159.29,54.33c1.5-1.59,2.43-4.04,2.74-5.46c0.08-0.31,0.11-0.56,0.12-0.77
		c0.05-0.97-0.19-2.45-1.06-3.75c-0.37-0.55-0.86-0.96-1.27-1.15l-0.08-0.04c-0.13-0.04-0.34-0.09-0.55-0.04
		c-0.28,0.05-0.47,0.24-0.61,0.45c-0.61,0.91-3.15,6.2-5.56,11.34c-0.11,0.24,0,0.51,0.24,0.61c1.29,0.56,2.65,0.75,3.34,0.51
		c1.3-0.43,1.9-0.9,2.52-1.54C159.18,54.45,159.23,54.38,159.29,54.33z"/>
	<path class="st0" d="M189.74,52.67c-1.47,0.58-2.68,3.94-3.55,7.03c-0.17,0.64-1.52,5.92-1.52,5.92s-3.45,14.43-3.54,14.87
		c-0.08,0.47-0.3,0.53-0.53-0.07c-0.17-0.62-7.07-22.01-7.97-24.9c-0.03-0.09-0.16-0.09-0.18,0c-0.23,0.87-0.54,2.13-0.54,2.13
		s-2.55,9.96-2.88,11.81c-0.45,2.65-1.19,5.93-0.02,7.17c0.16,0.13,0.14,0.53-0.21,0.46c-1.8-0.49-2.33-0.63-4.91-1.18
		c-0.26-0.06-0.19-0.33,0.04-0.42c1.61-0.65,2.61-3.85,3.39-6.53c0.38-1.31,3.75-14.93,4.03-16.74c0.36-2.32-0.52-4.08-0.78-4.26
		c-0.15-0.1-0.13-0.4,0.1-0.41l0.48,0.13c0.32,0.08,0.8,0.19,1.28,0.3c2.08,0.49,3.16,0.77,3.16,0.77c0.33,0.08,0.38,0.35,0.41,0.43
		c0,0,4.03,11.08,6.24,18.97c0.02,0.1,0.15,0.1,0.18-0.01c0,0,2.03-8.61,2.15-9.08c0.65-2.87,1.18-6.73,0.15-7.7
		c-0.18-0.17-0.04-0.43,0.23-0.36c0,0,2.79,0.68,4.71,1.15C190.05,52.27,190,52.58,189.74,52.67z"/>
	<path class="st0" d="M205.63,74.09c-0.95,4.43-1.2,6.03-1.41,7.98c-0.01,0.16-0.03,0.22-0.43,0.19c-1.86-0.13-7.14-0.5-7.17-0.5
		c-2.6-0.1-4.23-0.24-6.39-0.4v0.02l-1.11-0.08c-0.08,0-0.15-0.03-0.21-0.06c-0.37-0.04-0.41-0.38-0.02-0.64
		c1.27-1.86,1.47-5.85,1.76-9.14c0.24-2.62,0.54-8.32,0.54-8.32c0.03-0.42,0.06-0.82,0.07-1.22l0.02-0.26
		c0.13-2.65,0.15-4.71,0.01-6c-0.02-0.17-0.02-0.33-0.04-0.49c-0.01-0.03-0.01-0.06-0.01-0.09c-0.25-1.88-0.74-2.35-0.86-2.65
		c-0.03-0.06-0.02-0.11-0.02-0.17c0-0.01,0-0.03,0.02-0.04c0.04-0.14,0.16-0.1,1.74-0.02l0.08,0c0.09,0.01,0.17,0.01,0.26,0
		c2.21,0.1,4.18,0.28,6.22,0.42c1.22,0.08,3.17,0.23,5.05,0.23c0.61-0.01,1.04-0.02,1.37-0.05c0.3-0.03,0.5-0.06,0.64-0.08
		c0.24-0.05,0.33-0.07,0.45-0.03c0.23,0.08,0.04,0.84,0.03,2.04c-0.01,2.41-0.04,3.51,0.01,5.22c0.03,0.53,0.04,1.09,0.03,1.63
		c0.01,0.14-0.03,0.23-0.1,0.26c-0.03,0.01-0.05,0.01-0.08,0.01c-0.58-0.09-1.48-2.99-3.2-5.11c-2.35-2.91-5.07-3.43-5.62-3.14
		c-0.26,0.12-0.35,0.41-0.4,0.64c-0.2,0.95-0.51,5.26-0.84,10.46c-0.01,0.19,0.07,0.33,0.22,0.42c0.48,0.3,1.64,0.13,2.54-0.28
		c0.26-0.12,0.48-0.23,0.69-0.34c1.02-0.55,1.58-1.14,2.12-2.02c0.11-0.27,0.49-0.34,0.45,0.2c0,0.02,0,0.02,0,0.03
		c-0.18,2.05-0.18,4.28-0.13,5.9c0.01,0.02,0.01,0.03,0,0.05c0.06,1.4,0.14,2.34,0.14,2.34c0.02,0.19-0.07,0.41-0.2,0.44
		c-0.1,0.04-0.21-0.03-0.32-0.29c-0.42-0.93-1.03-1.78-1.68-2.47c-0.01-0.02-0.01-0.03-0.03-0.02c-0.96-1.01-2.01-1.71-2.79-1.91
		c-0.66-0.18-1.13-0.01-1.17,0.6c-0.37,5.51-0.51,8.23-0.55,9.54c-0.01,0.19,0,0.42,0.02,0.68c-0.03,0.63-0.05,1.13-0.07,1.42
		c-0.02,0.81,0.18,1.47,0.76,1.7c0.01,0,0.03,0.02,0.06,0.02c0.35,0.08,1.86,0.23,3.34-0.91c3.13-2.45,5.57-7,6.43-6.88
		C206,72.93,205.75,73.51,205.63,74.09z"/>
</g>
</svg>
