<?xml version="1.0" encoding="utf-8"?>
<!-- Generator: Adobe Illustrator 23.0.1, SVG Export Plug-In . SVG Version: 6.00 Build 0)  -->
<svg version="1.1" id="Layer_1" xmlns="http://www.w3.org/2000/svg" xmlns:xlink="http://www.w3.org/1999/xlink" x="0px" y="0px"
	 viewBox="0 0 501.22 142.52" style="enable-background:new 0 0 501.22 142.52;" xml:space="preserve">
<style type="text/css">
	.st0{fill:#010202;}
</style>
<g>
	<path class="st0" d="M166.92,72.52c-0.55,0.31-1.91,0.92-2.18,1.04c-0.92,0.42-1.9,0.88-2.84,1.32l-0.2,0.09
		c-0.95,0.45-0.96,0.45-1.11,0.33c-0.41-0.31,0.72-1.17-0.38-3.49l-1.24-2.64c-0.08-0.22-0.19-0.44-0.3-0.68
		c-0.32-0.71-0.69-1.51-1.1-2.41l-0.1-0.21c-0.46-0.95-1.1-2.31-1.82-3.84c-0.11-0.22-0.37-0.32-0.6-0.22l-5.37,2.53
		c-0.22,0.11-0.32,0.37-0.21,0.6c0.5,1.02,1.01,2.11,1.51,3.18l0.28,0.6c0.28,0.57,0.58,1.16,0.9,1.77
		c0.67,1.31,1.52,2.76,2.26,3.97c1.72,2.75,2.35,2.15,2.47,2.52c0.06,0.2,0.13,0.12-1.33,0.8l-4.92,2.33
		c-0.33,0.14-0.57,0.03-0.32-0.45c0.14-0.41-0.02-1.32-0.37-2.5l-1.45-3.07c-0.11-0.24-0.22-0.5-0.34-0.76l-0.12-0.25
		c-0.11-0.24-0.22-0.48-0.33-0.74l-0.7-1.49c-0.14-0.29-0.26-0.6-0.41-0.9c-1.02-2.17-2.26-4.78-3.68-7.71l-1.74-3.69
		c-0.35-0.64-0.71-1.26-1.06-1.81c-1.71-2.76-2.34-2.14-2.45-2.51c-0.04-0.17-0.04-0.13,1.13-0.72c0.11-0.05,0.25-0.13,0.39-0.2
		l0.06-0.03c1.11-0.51,2.47-1.13,3.76-1.73l1.02-0.48c0.33-0.14,0.57-0.03,0.32,0.45c-0.3,0.86,0.7,3.78,2.02,6.79
		c0.29,0.65,0.58,1.3,0.87,1.95l0.18,0.38c0.28,0.57,0.65,1.34,1.06,2.22c0.15,0.32,0.55,0.48,0.89,0.32l5.16-2.43
		c0.22-0.11,0.33-0.38,0.23-0.6c-0.26-0.51-0.5-1.03-0.75-1.55l-0.73-1.56c-0.16-0.3-0.3-0.61-0.44-0.91
		c-0.45-0.95-0.86-1.79-1.2-2.47c-1.19-2.16-2.35-3.86-3.01-4.11c-0.53-0.11-0.48-0.44-0.17-0.61c0.29-0.14,1.45-0.63,1.93-0.86
		l0.15-0.07c0.81-0.38,1.7-0.78,2.59-1.2l0.48-0.22c1.14-0.53,1-0.47,1.1-0.33c0.23,0.3-0.65,0.41,0.44,3.46
		c0.09,0.22,0.16,0.45,0.25,0.69c0.44,1.18,1.11,2.38,1.6,3.49c2.4,5.4,6.91,14.4,6.92,14.43c1.13,1.93,2.21,3.42,2.85,3.65
		C167.31,72.1,167.24,72.36,166.92,72.52z"/>
	<path class="st0" d="M182.32,59.17c0.66,4.48,0.98,6.06,1.47,7.97c0.04,0.15,0.05,0.21-0.34,0.33c-1.78,0.53-6.87,2.03-6.9,2.04
		c-2.47,0.82-4.04,1.25-6.12,1.86l0,0.02l-1.07,0.32c-0.07,0.02-0.15,0.03-0.22,0.02c-0.36,0.09-0.52-0.22-0.24-0.59
		c0.54-2.18-0.67-5.99-1.54-9.18c-0.69-2.54-2.4-7.99-2.4-7.99c-0.12-0.4-0.23-0.79-0.36-1.17l-0.08-0.25
		c-0.8-2.53-1.51-4.47-2.08-5.62c-0.08-0.15-0.14-0.3-0.21-0.44c-0.02-0.03-0.03-0.06-0.04-0.08c-0.89-1.68-1.52-1.94-1.73-2.18
		c-0.05-0.05-0.06-0.1-0.08-0.16c0-0.01-0.01-0.03,0-0.05c-0.01-0.14,0.12-0.15,1.62-0.63l0.07-0.02c0.09-0.03,0.16-0.05,0.25-0.09
		c2.11-0.68,4.01-1.2,5.97-1.78c1.17-0.35,3.05-0.89,4.81-1.55c0.57-0.22,0.97-0.39,1.27-0.52c0.27-0.13,0.45-0.23,0.57-0.3
		c0.21-0.12,0.28-0.18,0.41-0.19c0.24-0.01,0.33,0.78,0.74,1.9c0.83,2.26,1.19,3.3,1.83,4.89c0.21,0.49,0.41,1.01,0.6,1.52
		c0.05,0.13,0.05,0.23,0,0.28c-0.03,0.02-0.04,0.03-0.07,0.04c-0.58,0.12-2.43-2.28-4.78-3.67c-3.22-1.9-5.95-1.45-6.36-0.98
		c-0.2,0.2-0.19,0.51-0.15,0.74c0.14,0.96,1.36,5.11,2.87,10.1c0.05,0.18,0.18,0.28,0.35,0.31c0.55,0.11,1.58-0.45,2.28-1.15
		c0.2-0.2,0.37-0.39,0.53-0.56c0.76-0.87,1.09-1.62,1.29-2.63c0.01-0.29,0.34-0.49,0.49,0.03c0,0.02,0,0.02,0.01,0.03
		c0.54,1.99,1.33,4.07,1.94,5.57c0.02,0.01,0.02,0.03,0.01,0.04c0.55,1.29,0.95,2.14,0.95,2.14c0.08,0.17,0.08,0.41-0.04,0.48
		c-0.08,0.07-0.21,0.05-0.4-0.15c-0.72-0.73-1.59-1.31-2.44-1.73c-0.02-0.01-0.02-0.03-0.03-0.01c-1.25-0.61-2.48-0.89-3.28-0.82
		c-0.68,0.06-1.07,0.38-0.89,0.98c1.58,5.29,2.4,7.89,2.82,9.12c0.05,0.18,0.15,0.39,0.25,0.64c0.2,0.6,0.35,1.07,0.44,1.36
		c0.26,0.76,0.68,1.32,1.3,1.33c0.01,0,0.03,0.01,0.06,0c0.36-0.04,1.83-0.43,2.81-2.02c2.08-3.39,2.77-8.51,3.62-8.7
		C182.27,57.95,182.23,58.58,182.32,59.17z"/>
	<path class="st0" d="M205.34,66.27c-2.13-0.37-6.14-2.86-7.45-4.25c-2.66-2.45-4.56-5.64-6.38-9.19c-0.04-0.09-0.12-0.23-0.22-0.28
		c-0.1-0.05-0.59-0.02-0.64,0.08c-0.05,0.07-0.04,0.18-0.03,0.27c0.6,4.3,1.07,7.95,1.31,9.02c0.31,1.35,1,2.88,1.87,3.38
		c0.24,0.06,0.2,0.32-0.08,0.35c0,0-3.85,0.46-7.32,0.93c-0.36,0.03-0.4-0.21-0.17-0.45c0.6-0.64,0.9-2.31,0.79-3.54
		c-0.19-2.15-0.97-8.58-2.29-17.43c-0.16-1.09-0.51-2.39-0.83-3.52c-0.15-0.57-0.67-2.35-1.39-3.14c-0.26-0.29-0.46-0.5-0.48-0.64
		c-0.1-0.3,0.9-0.17,2.94-0.59c2.14-0.44,3.04-0.65,5.21-0.77l0.05-0.01c0.74-0.05,1.48-0.06,2.27-0.02c0.85,0.04,1.7,0.2,2.53,0.48
		c1.34,0.46,2.62,1.26,3.66,2.51c0.41,0.48,0.78,1.19,1.07,2.01c0.35,1,0.59,2.17,0.62,3.34c0.06,1.71-0.3,3.38-1.31,4.47
		c-0.55,0.59-0.94,1.07-2.16,1.64c-0.3,0.1-0.23,0.32-0.19,0.41c0.49,2.01,4.99,10.56,9.35,14.77
		C206.13,66.15,206.14,66.41,205.34,66.27z M195.29,47.18c0.39-2.15-0.17-4.71-0.68-6.07c-0.1-0.3-0.21-0.53-0.31-0.71
		c-0.49-0.84-1.5-1.96-2.94-2.56c-0.61-0.26-1.25-0.33-1.69-0.27l-0.09,0.01c-0.14,0.04-0.33,0.11-0.48,0.27
		c-0.21,0.2-0.27,0.46-0.26,0.71c-0.01,1.1,0.75,6.92,1.53,12.53c0.04,0.26,0.28,0.43,0.54,0.38c1.39-0.23,2.63-0.82,3.08-1.4
		c0.86-1.07,1.11-1.79,1.27-2.67C195.26,47.34,195.27,47.26,195.29,47.18z"/>
	<path class="st0" d="M224.46,66.8c-2.04-0.7-5.62-3.79-6.69-5.37c-2.24-2.84-3.62-6.28-4.85-10.08c-0.03-0.09-0.09-0.25-0.18-0.31
		c-0.09-0.06-0.58-0.12-0.65-0.02c-0.06,0.06-0.07,0.17-0.07,0.26c-0.08,4.34-0.19,8.02-0.13,9.11c0.09,1.38,0.53,3.01,1.32,3.63
		c0.23,0.1,0.15,0.34-0.13,0.34c0,0-3.87-0.15-7.37-0.24c-0.36-0.02-0.37-0.27-0.1-0.47c0.7-0.54,1.25-2.14,1.34-3.37
		c0.15-2.15,0.39-8.62,0.49-17.58c0.01-1.1-0.12-2.44-0.26-3.6c-0.06-0.59-0.29-2.42-0.87-3.32c-0.21-0.33-0.37-0.57-0.37-0.71
		c-0.05-0.31,0.92-0.02,3-0.12c2.19-0.1,3.1-0.17,5.27,0.06l0.05,0c0.74,0.07,1.47,0.18,2.24,0.34c0.83,0.18,1.65,0.46,2.42,0.87
		c1.25,0.67,2.39,1.66,3.22,3.06c0.33,0.53,0.59,1.3,0.74,2.16c0.19,1.05,0.24,2.24,0.08,3.4c-0.21,1.7-0.83,3.3-2,4.21
		c-0.63,0.49-1.09,0.91-2.39,1.28c-0.31,0.05-0.27,0.28-0.25,0.37c0.17,2.06,3.26,11.22,6.9,16.06
		C225.26,66.8,225.23,67.07,224.46,66.8z M217.55,46.37c0.72-2.06,0.57-4.68,0.28-6.1c-0.05-0.31-0.12-0.56-0.2-0.75
		c-0.35-0.91-1.17-2.17-2.49-2.99c-0.56-0.36-1.18-0.53-1.63-0.54l-0.09,0c-0.14,0.01-0.34,0.05-0.52,0.19
		c-0.24,0.16-0.34,0.41-0.37,0.66c-0.18,1.08-0.35,6.95-0.47,12.62c-0.01,0.27,0.2,0.47,0.47,0.46c1.41-0.01,2.72-0.4,3.26-0.89
		c1.02-0.92,1.37-1.59,1.68-2.44C217.5,46.52,217.51,46.44,217.55,46.37z"/>
	<path class="st0" d="M250.05,71.38c0,0-1.84-0.61-4.75-1.59c-0.81-0.27-1.66-0.65-1.64-1.78l-0.33-13.19c0-0.13-0.15-0.2-0.25-0.12
		c-0.22,0.16-0.47,0.35-0.7,0.52c-0.17,0.13-0.29,0.3-0.36,0.5c-1.34,3.99-1.72,5.03-2.08,6.25c-0.46,1.52-1.1,4.2-0.68,5.43
		c0.08,0.23-0.11,0.34-0.37,0.25c0,0-2.54-0.85-5.86-1.97c-0.33-0.13-0.28-0.33-0.11-0.46c0.74-0.56,1.73-2.65,2.58-5.02
		c0.83-2.32,4.79-13.87,5.27-15.65c0.76-2.83,1.29-5.65,0.93-6.22c-0.13-0.21,0-0.5,0.26-0.41c0,0,3,1,6.32,2.12
		c0.33,0.13,0.18,0.34,0,0.45c-1,0.65-1.92,2.84-2.8,5.08c-0.29,0.74-1.07,3.16-2.49,7.35c-0.05,0.15,0.12,0.27,0.24,0.17
		c1.89-1.5,6.29-5.31,7.24-6.24c1.63-1.59,2.63-4.09,2.02-4.86c-0.22-0.28,0-0.54,0.3-0.44c0,0,3.31,1.2,5.44,1.91
		c0.39,0.13,0.43,0.49,0.01,0.52c-2.01,0.13-4.6,1.98-6.4,3.52c-0.25,0.22-2.28,1.99-3.77,3.52c-0.1,0.11-0.19,0.24-0.18,0.39
		c0.33,6.11,0.45,10.59,0.74,13.88c0.22,2.55,0.36,4.03,1.73,5.7C250.58,71.26,250.35,71.53,250.05,71.38z"/>
	<path class="st0" d="M265.54,83.61c-1.42-1.62-2.99-6.08-3.14-7.98c-0.53-3.58-0.02-7.25,0.8-11.15c0.02-0.09,0.05-0.26,0-0.36
		c-0.05-0.1-0.45-0.39-0.55-0.34c-0.09,0.02-0.14,0.11-0.19,0.19c-2.22,3.72-4.15,6.87-4.64,7.84c-0.61,1.24-1.04,2.87-0.66,3.81
		c0.15,0.2-0.04,0.37-0.28,0.23c0,0-3.29-2.05-6.28-3.87c-0.3-0.2-0.18-0.42,0.15-0.45c0.87-0.12,2.15-1.23,2.84-2.26
		c1.2-1.79,4.62-7.29,9.15-15.02c0.56-0.95,1.1-2.18,1.56-3.26c0.24-0.54,0.95-2.25,0.89-3.32c-0.02-0.39-0.04-0.68,0.03-0.8
		c0.11-0.3,0.81,0.43,2.66,1.38c1.95,1,2.78,1.4,4.54,2.67l0.04,0.02c0.61,0.43,1.19,0.88,1.78,1.4c0.63,0.57,1.2,1.22,1.67,1.96
		c0.76,1.2,1.25,2.63,1.28,4.25c0.02,0.63-0.14,1.42-0.43,2.24c-0.35,1-0.91,2.06-1.62,2.99c-1.03,1.37-2.36,2.45-3.83,2.66
		c-0.8,0.11-1.4,0.25-2.71-0.08c-0.3-0.11-0.38,0.11-0.4,0.2c-0.88,1.87-2.74,11.36-1.99,17.37
		C266.23,84.02,266.07,84.23,265.54,83.61z M269.68,62.44c1.65-1.43,2.82-3.78,3.27-5.15c0.11-0.3,0.17-0.55,0.2-0.75
		c0.15-0.96,0.06-2.46-0.68-3.84c-0.31-0.59-0.76-1.04-1.15-1.28l-0.08-0.05c-0.13-0.06-0.33-0.12-0.54-0.09
		c-0.29,0.02-0.5,0.19-0.65,0.38c-0.69,0.85-3.76,5.86-6.67,10.72c-0.14,0.23-0.06,0.51,0.18,0.63c1.23,0.69,2.56,1.01,3.27,0.85
		c1.34-0.29,1.98-0.7,2.66-1.28C269.56,62.55,269.62,62.49,269.68,62.44z"/>
	<path class="st0" d="M290.41,81.94c-3.53,4.82-8.42,7.82-12.86,7.04c-2.46-0.45-5.74-2.32-6.91-5.98
		c-1.28-4.04,0.1-9.04,3.81-13.85c5.39-6.99,12.36-9.46,17.37-5.42C296.54,67.55,295.4,75.14,290.41,81.94z M286.66,77.79
		c0.74-1.27,1.41-2.54,1.99-3.73c2.36-4.98,3.17-9.13,0.56-10.59c-2.88-1.64-7.25,2.95-10.88,9.6c-3.64,6.69-5.35,12.51-2.76,14.16
		C278.58,89.16,282.88,84.36,286.66,77.79z"/>
	<path class="st0" d="M305.01,95.67c-1.72,2.97-3.14,5.29-4.14,7.72c-0.12,0.31-0.29,0.66-0.57,0.05c-0.51-1.11-1.88-1.68-3.8-2.1
		c-1.08-0.24-2.13-0.68-2.8-1.12c-3.6-2.35-4.78-4.8-5.06-7.21c-0.74-6.39,4.56-13.65,8.46-16.77c3.35-2.69,7.51-3.91,10.7-2.36
		c0.13,0.06,0.25,0.12,0.37,0.19c0.49,0.24,0.93,0.53,1.35,0.83c0.04,0.02,0.07,0.04,0.07,0.06c2.31,1.68,3.78,3.92,3.78,3.92
		c0.01,0.02,0.02,0.03,0.03,0.04c0.01,0.01,0.01,0.02,0.02,0.03c0.04,0.06,0.01,0.2-0.15,0.36c-0.09,0.09-0.17,0.17-0.26,0.26
		L313,79.58c-0.08,0.08-0.17,0.17-0.25,0.28c-0.83,0.88-1.23,1.37-1.68,1.91c-0.39,0.46-0.75,0.9-1.05,1.27
		c-0.58,0.73-1.01,1.24-1.2,1.4c-0.15,0.13-0.38,0-0.37-0.17c0.01-0.08,0.06-0.32,0.14-0.67c0,0,0,0,0.01-0.01
		c0.18-1,1.88-7.67-1.5-8.86c-2.29-0.8-5.34,2.31-6.42,3.73c-2.97,3.84-4.86,7.42-6.26,12.42c-0.7,2.53-1.36,7.78,0.89,8.89
		c1.71,0.84,3.88-3.49,5.43-6.3l-0.01-0.01c0.3-0.52,0.51-0.92,0.65-1.17c0.69-1.27,1.58-3.58,1.43-4.33
		c-0.05-0.23,0.06-0.54,0.3-0.4c0,0,2.77,1.66,5.78,3.38c0.3,0.19,0.09,0.32-0.11,0.4c-0.9,0.36-2.17,1.61-3.16,3.33
		C305.46,94.95,305.26,95.28,305.01,95.67z"/>
	<path class="st0" d="M323.77,105.73c-1.47,3.62-4.95,5.03-8.59,4.35c-4.17-0.85-8.03-3.99-8.69-4.5c-0.3-0.23-0.19-0.41,0.01-0.68
		c1.99-2.73,4.63-7.96,4.63-7.96c0.11-0.23,0.51-0.25,0.49,0.19c-0.08,1.96-1.18,9.87,2.54,11.24c2.64,0.97,4.18-1.49,4.36-3.64
		c0.31-3.63-2.83-7.81-4.66-12.07c-1.23-2.84-1.54-5.06-0.27-7.7c1.9-3.93,6.25-5.55,10.73-3.54c2.3,1.03,3.5,1.89,5.38,3.68
		c0.05,0.04,0.04,0.2-0.08,0.38c-1.65,2.4-3.17,5.46-3.58,5.95c-0.12,0.14-0.37,0.06-0.38-0.11c0.01-0.57,0.05-7.26-2.58-8.91
		c-3.25-2.03-5.61,2.18-4.86,5.33c0.57,2.4,2.53,4.75,4.53,8.98C324.87,101.22,324.8,103.16,323.77,105.73z"/>
	<path class="st0" d="M348.28,96.3c-0.01,0.16-0.29,0.42-0.5-0.18c-0.2-0.57-1.91-4.81-2.61-6c-0.83-1.44-1.4-2.17-2.18-2.3
		c-0.01,0-0.03,0-0.06,0.01c-0.05-0.01-0.09,0-0.16,0.02c-0.01-0.02-0.03-0.01-0.03-0.01c-0.07,0.02-0.14,0.07-0.2,0.12
		c-0.13,0.12-0.21,0.29-0.27,0.46c-0.2,0.62-2.14,11.57-3.29,18.29c-0.33,1.97-0.58,3.38-0.68,4.05c-0.12,0.8-0.2,1.96-0.05,2.95
		c0,0.02,0.01,0.02,0.01,0.03c0.1,0.66,0.3,1.23,0.66,1.53c0.15,0.12,0.1,0.25-0.07,0.29c-0.05,0.01-0.11,0.01-0.17,0
		c0,0-1.34-0.25-3.14-0.58l-0.29-0.05c-1.17-0.21-2.52-0.46-3.81-0.69c-0.35-0.08-0.28-0.3-0.09-0.39c0.51-0.24,0.92-0.82,1.22-1.49
		c0.02-0.01,0.04-0.03,0.02-0.04c0.41-0.87,0.67-1.9,0.82-2.59c0.22-0.98,0.41-1.88,0.73-3.6l0.02,0c0.67-3.8,1.6-9.29,2.78-16
		c0.45-2.58,0.41-3.38-0.44-3.51c-0.76-0.13-1.63,0.39-2.9,1.46c-1.07,0.88-4.12,4.28-4.5,4.75c-0.4,0.5-0.59,0.15-0.54,0
		c0.18-0.52,0.41-1.38,0.56-1.87c0.39-1.3,1.23-4.93,1.63-6.32c0.11-0.36,0.26-0.41,0.53-0.33c0.44,0.16,1.54,0.55,3.29,0.96
		c1.5,0.36,5.74,1.07,8.31,1.53l0.23,0.04c0.87,0.15,1.61,0.25,2.08,0.3c1.78,0.24,2.95,0.24,3.42,0.24c0.28,0,0.4,0.12,0.39,0.49
		c-0.11,1.44-0.54,5.15-0.62,6.5C348.36,94.87,348.28,95.75,348.28,96.3z"/>
	<path class="st0" d="M367.51,117.06c0,0.16-0.14,0.2-0.3,0.19l-8.18-0.21c-0.23-0.01-0.3-0.29-0.1-0.39c0,0,1.53-0.97,0.37-5.25
		l-0.97-3.2c-0.04-0.14-0.18-0.25-0.35-0.26l-6.07-0.22c-0.26-0.01-0.48,0.16-0.55,0.39l-0.93,3.09c-1.02,4.11,0.26,5.29,0.33,5.33
		c0.15,0.1,0.12,0.24,0.04,0.28c-0.06,0.01-0.2,0.01-0.33,0.01l-4.57-0.12c-0.33-0.01-0.36-0.29-0.07-0.45
		c0.2-0.12,1.48-0.74,3.33-6.27c0.3-0.94,0.33-0.94,7.49-22.55c0.08-0.2,0.38-0.19,0.45,0.01c0,0,5.85,18.51,6.19,19.53
		c0.55,1.63,2.53,9.03,4.02,9.83C367.54,116.87,367.51,117.06,367.51,117.06z M357.89,106.5l-2.65-9.59
		c-0.05-0.3-0.17-0.53-0.33-0.01l-3.02,9.43c-0.03,0.14,0.07,0.28,0.22,0.28l5.52,0.21C357.8,106.82,357.93,106.67,357.89,106.5z"/>
	<path class="st0" d="M387.61,111.95c-1.86,2.71-4.94,3.94-9.83,4.34c-2.61,0.21-2.94,0.25-5.07,0.43l-1.28,0.11
		c-0.36,0.01-0.55-0.25-0.15-0.62c0.81-1.25,0.84-3.71,0.63-7.01c-0.24-3.9-0.58-7.57-1.33-13.45c-0.18-1.42-0.38-3.17-0.59-4.57
		c-0.5-3.08-1.37-2.66-1.36-3.05c0.01-0.19-0.02-0.37,1.71-0.56c0,0,5.32-0.49,7.15-0.16c3.87,0.7,6.9,3.02,9.15,7.18
		C389.02,98.98,390.64,107.36,387.61,111.95z M381.87,94.31c-2.13-5.35-5-5.8-5.6-5.84c-0.51-0.03-1.07,0.02-1.11,0.47
		c-0.12,2.08,1.83,22.04,2.12,24.64c0.1,0.81,0.41,1.34,1.06,1.42c1.14,0.14,2.66-0.85,3.32-2.04c1.19-2.11,1.49-3.57,1.71-5.45
		C383.97,102.51,382.8,96.67,381.87,94.31z"/>
</g>
</svg>
