<?xml version="1.0" encoding="utf-8"?>
<!-- Generator: Adobe Illustrator 23.0.1, SVG Export Plug-In . SVG Version: 6.00 Build 0)  -->
<svg version="1.1" id="Layer_1" xmlns="http://www.w3.org/2000/svg" xmlns:xlink="http://www.w3.org/1999/xlink" x="0px" y="0px"
	 viewBox="0 0 239 75" style="enable-background:new 0 0 239 75;" xml:space="preserve">
<style type="text/css">
	.st0{enable-background:new    ;}
</style>
<title>Nora_tekst</title>
<g class="st0">
	<path d="M26.19,23.96c-0.47,1.52,1.39,4.59,3.26,7.23c0.39,0.54,3.66,4.93,3.66,4.93s9.1,11.83,9.38,12.18
		c0.32,0.37,0.22,0.58-0.38,0.37c-0.59-0.26-21.68-8.41-24.51-9.52c-0.08-0.03-0.17,0.07-0.11,0.14c0.54,0.73,1.33,1.77,1.33,1.77
		s6.17,8.3,7.41,9.72c1.78,2.03,3.89,4.68,5.59,4.56c0.21-0.04,0.5,0.22,0.23,0.45c-1.52,1.1-1.97,1.43-4.03,3.09
		c-0.21,0.16-0.38-0.06-0.31-0.3c0.51-1.67-1.35-4.48-2.96-6.79c-0.78-1.13-9.3-12.38-10.54-13.75c-1.59-1.75-3.52-2.18-3.82-2.08
		c-0.17,0.05-0.39-0.15-0.25-0.33l0.41-0.29c0.26-0.2,0.66-0.5,1.04-0.82c1.7-1.32,2.6-1.99,2.6-1.99c0.27-0.21,0.51-0.08,0.59-0.04
		c0,0,11.22,3.86,18.79,7.13c0.09,0.05,0.17-0.05,0.11-0.14c0,0-5.45-7.04-5.74-7.43c-1.83-2.33-4.52-5.18-5.92-4.99
		c-0.25,0.03-0.36-0.24-0.13-0.41c0,0,2.29-1.75,3.88-2.96C26.07,23.46,26.29,23.69,26.19,23.96z"/>
</g>
<g class="st0">
	<path d="M56.88,26.35c2.23,5.54,2.2,11.28-0.8,14.63c-1.68,1.85-5,3.65-8.72,2.72c-4.11-1.04-7.63-4.85-9.76-10.53
		c-3.1-8.26-1.52-15.48,4.55-17.61C47.89,13.55,53.73,18.52,56.88,26.35z M51.38,27.35c-0.69-1.3-1.41-2.53-2.12-3.66
		c-2.99-4.63-6.08-7.5-8.7-6.06c-2.91,1.58-1.31,7.72,2.42,14.3c3.77,6.62,7.81,11.14,10.58,9.81
		C56.77,40.2,54.96,34.01,51.38,27.35z"/>
</g>
<g class="st0">
	<path d="M82.07,37.05c-2.15-0.23-6.32-2.43-7.73-3.72c-2.82-2.27-4.94-5.31-6.99-8.73c-0.05-0.08-0.14-0.22-0.24-0.27
		s-0.59,0.02-0.63,0.12c-0.05,0.07-0.03,0.18-0.01,0.27c0.9,4.24,1.62,7.86,1.93,8.9c0.4,1.33,1.19,2.81,2.1,3.24
		c0.25,0.04,0.22,0.3-0.05,0.36c0,0-3.8,0.73-7.23,1.43c-0.35,0.06-0.42-0.18-0.2-0.43c0.56-0.68,0.74-2.36,0.55-3.59
		c-0.34-2.13-1.56-8.49-3.48-17.23c-0.23-1.07-0.67-2.35-1.07-3.45c-0.19-0.56-0.83-2.3-1.6-3.04c-0.28-0.27-0.49-0.47-0.52-0.61
		c-0.12-0.29,0.89-0.23,2.89-0.79c2.11-0.59,2.99-0.86,5.15-1.13l0.05-0.01c0.74-0.1,1.47-0.16,2.26-0.18
		c0.85-0.02,1.71,0.08,2.56,0.3c1.37,0.37,2.7,1.08,3.83,2.25c0.44,0.45,0.86,1.13,1.2,1.94c0.42,0.98,0.73,2.13,0.84,3.29
		c0.17,1.71-0.07,3.4-1,4.55c-0.51,0.62-0.86,1.13-2.04,1.78c-0.29,0.12-0.2,0.33-0.16,0.42c0.62,1.97,5.7,10.2,10.34,14.09
		C82.86,36.88,82.88,37.14,82.07,37.05z M70.74,18.7c0.24-2.17-0.5-4.69-1.1-6c-0.12-0.29-0.25-0.52-0.36-0.69
		c-0.54-0.81-1.63-1.85-3.1-2.36c-0.63-0.22-1.27-0.25-1.71-0.16l-0.09,0.02c-0.13,0.04-0.32,0.13-0.46,0.3
		c-0.19,0.21-0.24,0.48-0.22,0.72c0.07,1.09,1.22,6.85,2.39,12.4c0.05,0.26,0.3,0.41,0.56,0.35c1.37-0.33,2.56-1,2.98-1.6
		c0.78-1.12,0.98-1.86,1.08-2.75C70.72,18.86,70.72,18.78,70.74,18.7z"/>
</g>
<g class="st0">
	<path d="M102.81,34.22c0,0.16-0.13,0.21-0.29,0.21l-8.18,0.23c-0.23,0.01-0.32-0.27-0.12-0.38c0,0,1.47-1.05,0.09-5.26l-1.14-3.15
		c-0.05-0.14-0.19-0.24-0.36-0.24l-6.07,0.11c-0.26,0.01-0.48,0.18-0.53,0.42l-0.76,3.14c-0.8,4.16,0.55,5.27,0.61,5.3
		c0.16,0.09,0.13,0.23,0.05,0.28c-0.06,0.02-0.2,0.02-0.32,0.03l-4.57,0.13c-0.33,0.01-0.38-0.27-0.09-0.45
		c0.2-0.13,1.43-0.82,2.98-6.44c0.25-0.95,0.28-0.95,6.26-22.92c0.07-0.2,0.37-0.21,0.45-0.01c0,0,6.83,18.17,7.23,19.16
		c0.63,1.59,3.01,8.88,4.55,9.59C102.84,34.03,102.81,34.22,102.81,34.22z M92.64,24.2l-3.16-9.43c-0.07-0.29-0.2-0.52-0.33,0.01
		l-2.51,9.57c-0.03,0.14,0.09,0.28,0.24,0.27l5.52-0.09C92.57,24.52,92.69,24.36,92.64,24.2z"/>
</g>
<g class="st0">
	<path d="M128.57,38.46c-0.63-0.07-2.08-0.37-2.37-0.42c-0.98-0.2-2.05-0.39-3.07-0.58l-0.21-0.04c-1.03-0.19-1.04-0.19-1.09-0.37
		c-0.15-0.49,1.26-0.53,1.72-3.04l0.52-2.86c0.06-0.23,0.1-0.47,0.15-0.73c0.16-0.76,0.31-1.62,0.51-2.59l0.04-0.23
		c0.17-1.04,0.45-2.51,0.75-4.17c0.04-0.24-0.12-0.48-0.36-0.52l-5.82-1.07c-0.24-0.04-0.48,0.12-0.52,0.36
		c-0.19,1.11-0.41,2.3-0.62,3.45l-0.12,0.65c-0.1,0.63-0.2,1.28-0.3,1.96c-0.22,1.45-0.37,3.12-0.47,4.53
		c-0.2,3.23,0.66,3.1,0.54,3.48c-0.07,0.19,0.04,0.17-1.54-0.12l-5.34-0.97c-0.35-0.08-0.48-0.31,0.01-0.55
		c0.35-0.25,0.75-1.09,1.15-2.24l0.61-3.33c0.05-0.26,0.11-0.53,0.17-0.82l0.05-0.27c0.05-0.26,0.1-0.52,0.16-0.79l0.3-1.61
		c0.06-0.32,0.13-0.64,0.19-0.97c0.43-2.35,0.94-5.18,1.49-8.38l0.73-3.99c0.08-0.72,0.15-1.43,0.19-2.08
		c0.22-3.23-0.66-3.09-0.53-3.46c0.06-0.16,0.04-0.13,1.34,0.07c0.12,0.02,0.28,0.04,0.43,0.06l0.06,0.01
		c1.2,0.24,2.65,0.52,4.05,0.78l1.11,0.2c0.35,0.08,0.48,0.31-0.01,0.55c-0.74,0.52-1.63,3.47-2.31,6.67
		c-0.14,0.7-0.29,1.39-0.43,2.09l-0.08,0.41c-0.1,0.62-0.25,1.46-0.43,2.42c-0.06,0.35,0.17,0.71,0.53,0.77l5.59,1.03
		c0.24,0.04,0.49-0.11,0.54-0.36c0.09-0.57,0.19-1.13,0.29-1.69l0.31-1.69c0.05-0.34,0.11-0.67,0.17-0.99
		c0.19-1.03,0.34-1.95,0.46-2.69c0.29-2.44,0.34-4.49-0.06-5.08c-0.37-0.4-0.13-0.64,0.22-0.59c0.32,0.06,1.54,0.33,2.06,0.42
		l0.17,0.03c0.88,0.16,1.83,0.35,2.79,0.53l0.52,0.1c1.23,0.23,1.08,0.2,1.08,0.37c0.01,0.38-0.76-0.04-1.65,3.06
		c-0.06,0.22-0.13,0.46-0.19,0.7c-0.33,1.21-0.48,2.57-0.73,3.75c-1.18,5.77-2.76,15.67-2.76,15.7c-0.2,2.22-0.19,4.05,0.19,4.6
		C129.13,38.34,128.92,38.51,128.57,38.46z"/>
</g>
<g class="st0">
	<path d="M148.92,36.14c-1.96,4.06-2.58,5.55-3.24,7.4c-0.05,0.15-0.08,0.2-0.46,0.08c-1.77-0.56-6.8-2.16-6.83-2.17
		c-2.5-0.71-4.04-1.23-6.09-1.89l0,0.02l-1.06-0.33c-0.07-0.02-0.14-0.06-0.19-0.11c-0.35-0.13-0.31-0.47,0.13-0.62
		c1.67-1.5,2.8-5.32,3.86-8.43c0.85-2.48,2.49-7.93,2.49-7.93c0.13-0.4,0.25-0.78,0.35-1.17l0.08-0.25c0.75-2.53,1.25-4.53,1.43-5.8
		c0.02-0.17,0.05-0.32,0.07-0.48c-0.01-0.03,0-0.06,0.01-0.09c0.2-1.88-0.17-2.45-0.21-2.77c-0.01-0.07,0-0.11,0.02-0.17
		c0-0.01,0.01-0.03,0.03-0.04c0.07-0.12,0.18-0.06,1.69,0.39l0.07,0.02c0.09,0.03,0.16,0.05,0.25,0.06
		c2.12,0.62,3.98,1.26,5.92,1.87c1.16,0.37,3.01,0.97,4.83,1.41c0.59,0.14,1.02,0.22,1.34,0.28c0.29,0.04,0.5,0.06,0.64,0.07
		c0.24,0.01,0.34,0.01,0.45,0.08c0.2,0.13-0.16,0.82-0.45,1.98c-0.57,2.33-0.86,3.39-1.22,5.06c-0.1,0.52-0.22,1.06-0.36,1.59
		c-0.03,0.14-0.08,0.22-0.15,0.23c-0.04,0.01-0.05,0-0.08-0.01c-0.55-0.22-0.73-3.24-1.89-5.7c-1.59-3.37-4.1-4.52-4.7-4.37
		c-0.28,0.06-0.44,0.31-0.54,0.53c-0.42,0.87-1.73,4.98-3.28,9.93c-0.06,0.18-0.01,0.34,0.11,0.46c0.39,0.4,1.56,0.51,2.52,0.33
		c0.28-0.06,0.52-0.11,0.75-0.17c1.11-0.3,1.8-0.73,2.53-1.45c0.17-0.24,0.55-0.21,0.39,0.3c0,0.01,0,0.01-0.01,0.03
		c-0.66,1.94-1.18,4.1-1.52,5.68c0.01,0.02,0.01,0.03-0.01,0.04c-0.27,1.37-0.42,2.3-0.42,2.3c-0.03,0.19-0.17,0.38-0.3,0.38
		c-0.1,0.02-0.2-0.08-0.25-0.35c-0.19-1-0.58-1.96-1.04-2.79c-0.01-0.02-0.01-0.03-0.03-0.02c-0.69-1.21-1.55-2.12-2.25-2.51
		c-0.59-0.33-1.09-0.28-1.28,0.31c-1.66,5.24-2.43,7.85-2.78,9.1c-0.06,0.18-0.1,0.41-0.15,0.67c-0.18,0.61-0.31,1.08-0.4,1.36
		c-0.21,0.78-0.17,1.47,0.33,1.82c0.01,0,0.02,0.02,0.05,0.03c0.32,0.17,1.75,0.67,3.45-0.09c3.61-1.63,7.04-5.47,7.85-5.15
		C149.55,35.11,149.17,35.6,148.92,36.14z"/>
</g>
<g class="st0">
	<path d="M166.31,42.91c-1.13,1.86-2.65,4.72-3.46,7.19c-0.05,0.15-0.18,0.26-0.51,0.01c-0.63-0.48-4.52-1.89-4.52-1.89
		s-7.33-2.71-9.17-3.4c-0.33-0.15-0.23-0.39-0.04-0.5c0.91-0.51,1.97-2.43,3.08-5.17c0.77-1.89,1.78-4.49,4.52-12.12
		c0,0,0.97-2.6,1.22-3.32c0.63-1.84,1.69-5.21,1.22-5.86c-0.15-0.21-0.09-0.55,0.18-0.45c0,0,2.81,1.09,6.17,2.34
		c0.33,0.14,0.21,0.36,0.03,0.48c-0.77,0.54-1.61,1.78-2.49,3.91c-0.4,0.97-0.74,1.86-1.76,4.54c-1.37,3.73-5.31,14.57-5.68,15.63
		c-0.26,0.77-0.19,1.4,0.35,1.75c0.63,0.41,1.58,0.69,3.49,0.17c2.65-0.72,5.49-2.99,7.02-4.04c0.22-0.15,0.46-0.3,0.63-0.26
		c0.1,0.03,0.21,0.13,0.15,0.34C166.69,42.42,166.46,42.66,166.31,42.91z"/>
</g>
<g class="st0">
	<path d="M191.51,60.43c-1.18-0.45-6.57-2.35-7.48-2.65c-0.33-0.13-0.22-0.31-0.04-0.43c1.67-1.07,2.51-3.13,3.36-5.36
		c0.77-2.02,5.11-14.9,5.11-14.9s0.43-1.22,0.72-2.09c0.03-0.09-0.09-0.17-0.15-0.1c-1.09,1.42-11.59,16-15.93,21.7
		c-0.12,0.16-0.38,0.07-0.38-0.13c0.07-3.92,0.5-25.27,0.39-27.09c-0.01-0.09-0.14-0.1-0.18-0.01c-0.31,0.85-0.74,2.08-0.74,2.08
		s-4.84,13.85-5.33,15.67c-0.96,3.55-0.67,4.71-0.28,5.61c0.08,0.19,0.11,0.37-0.23,0.27c-1.25-0.45-4.64-1.56-4.77-1.6
		c-0.26-0.08-0.08-0.3,0.15-0.42c1.81-0.98,2.78-3.41,3.41-4.67c0.6-1.23,5.7-15.71,6.12-17.48c0.63-2.71-0.13-4.59-0.37-4.79
		c-0.14-0.12-0.03-0.42,0.2-0.39c0.28,0.1,6.65,2.33,6.65,2.33c0.33,0.12,0.34,0.4,0.36,0.48c0,0-0.3,13-0.4,20.96
		c0,0.16,0.2,0.23,0.3,0.1c3.78-4.93,10.03-14.21,11.97-16.9c0.04-0.07,0.25-0.27,0.58-0.15c0,0,6.26,2.2,6.55,2.3
		c0.19,0.13,0.08,0.36-0.1,0.4c-1.06,0.23-2.15,2.07-3.14,4.47c-0.69,1.67-5.23,14.84-5.61,16.16c-0.7,2.41-1.38,4.44-0.49,6.24
		C191.86,60.25,191.77,60.52,191.51,60.43z"/>
</g>
<g class="st0">
	<path d="M213.81,57.86c-1.79,4.16-2.34,5.68-2.92,7.56c-0.04,0.15-0.07,0.21-0.46,0.1c-1.8-0.48-6.91-1.86-6.94-1.87
		c-2.54-0.6-4.1-1.05-6.19-1.62l0,0.02l-1.08-0.29c-0.07-0.02-0.15-0.05-0.2-0.1c-0.36-0.11-0.33-0.46,0.1-0.63
		c1.61-1.58,2.57-5.46,3.49-8.63c0.74-2.53,2.14-8.06,2.14-8.06c0.11-0.4,0.21-0.79,0.3-1.19l0.07-0.25
		c0.64-2.57,1.05-4.6,1.17-5.88c0.01-0.17,0.04-0.33,0.05-0.48c-0.01-0.03,0-0.06,0.01-0.09c0.12-1.89-0.28-2.45-0.33-2.77
		c-0.01-0.07,0-0.11,0.01-0.17c0-0.02,0.01-0.03,0.03-0.04c0.07-0.13,0.18-0.07,1.71,0.31l0.07,0.02c0.09,0.02,0.17,0.04,0.26,0.05
		c2.15,0.53,4.04,1.08,6.02,1.61c1.18,0.32,3.07,0.83,4.91,1.2c0.6,0.11,1.03,0.18,1.35,0.22c0.3,0.03,0.5,0.04,0.65,0.04
		c0.24,0,0.34-0.01,0.45,0.06c0.21,0.12-0.13,0.83-0.36,2c-0.47,2.36-0.71,3.44-1,5.12c-0.08,0.53-0.17,1.08-0.29,1.61
		c-0.02,0.14-0.08,0.22-0.14,0.24c-0.03,0.01-0.05,0-0.08,0c-0.56-0.2-0.87-3.22-2.15-5.63c-1.75-3.31-4.31-4.34-4.9-4.17
		c-0.28,0.07-0.43,0.33-0.52,0.55c-0.38,0.89-1.51,5.07-2.84,10.1c-0.05,0.18,0.01,0.34,0.14,0.45c0.41,0.38,1.58,0.44,2.54,0.21
		c0.28-0.07,0.52-0.13,0.74-0.2c1.1-0.35,1.77-0.81,2.47-1.57c0.16-0.25,0.54-0.24,0.41,0.28c0,0.02,0,0.02-0.01,0.03
		c-0.58,1.98-1,4.16-1.27,5.76c0.01,0.02,0.01,0.04-0.01,0.04c-0.21,1.39-0.32,2.32-0.32,2.32c-0.02,0.19-0.15,0.39-0.28,0.39
		c-0.1,0.02-0.21-0.07-0.26-0.34c-0.23-0.99-0.67-1.94-1.17-2.75c-0.01-0.02-0.01-0.04-0.03-0.02c-0.74-1.18-1.65-2.06-2.37-2.41
		c-0.61-0.31-1.11-0.23-1.27,0.37c-1.42,5.33-2.08,7.98-2.37,9.25c-0.05,0.18-0.08,0.41-0.12,0.68c-0.15,0.62-0.26,1.1-0.34,1.38
		c-0.18,0.79-0.11,1.48,0.41,1.81c0.01,0,0.03,0.02,0.06,0.03c0.33,0.15,1.78,0.59,3.45-0.25c3.54-1.8,6.81-5.8,7.63-5.52
		C214.4,56.79,214.03,57.3,213.81,57.86z"/>
</g>
<g class="st0">
	<path d="M233.96,72.29c-1.91-1.01-4.95-4.62-5.77-6.34c-1.77-3.15-2.59-6.77-3.21-10.71c-0.01-0.1-0.05-0.26-0.13-0.34
		c-0.08-0.08-0.56-0.2-0.63-0.12c-0.07,0.05-0.09,0.16-0.11,0.25c-0.76,4.27-1.44,7.89-1.55,8.98c-0.13,1.38,0.05,3.05,0.73,3.79
		c0.21,0.13,0.09,0.36-0.18,0.31c0,0-3.8-0.75-7.24-1.38c-0.35-0.08-0.32-0.33-0.02-0.48c0.77-0.42,1.57-1.92,1.85-3.12
		c0.48-2.1,1.73-8.46,3.22-17.29c0.18-1.08,0.26-2.43,0.3-3.6c0.03-0.59,0.09-2.44-0.35-3.42c-0.15-0.36-0.28-0.62-0.25-0.76
		c0-0.32,0.91,0.12,2.98,0.34c2.18,0.24,3.09,0.32,5.19,0.88l0.05,0.01c0.72,0.18,1.42,0.4,2.16,0.68c0.79,0.3,1.55,0.71,2.26,1.24
		c1.13,0.86,2.1,2.01,2.71,3.52c0.24,0.58,0.38,1.38,0.39,2.25c0.03,1.06-0.11,2.25-0.45,3.37c-0.48,1.65-1.33,3.12-2.63,3.85
		c-0.7,0.39-1.22,0.73-2.56,0.89c-0.32,0-0.31,0.24-0.3,0.33c-0.16,2.06,1.47,11.59,4.31,16.94
		C234.75,72.42,234.67,72.68,233.96,72.29z M230.32,51.03c1.03-1.92,1.29-4.54,1.23-5.98c0-0.32-0.04-0.57-0.08-0.77
		c-0.2-0.95-0.82-2.32-2-3.35c-0.5-0.44-1.08-0.7-1.53-0.79l-0.09-0.02c-0.14-0.01-0.35,0-0.54,0.11c-0.26,0.12-0.4,0.35-0.47,0.59
		c-0.35,1.04-1.43,6.81-2.43,12.39c-0.05,0.26,0.13,0.5,0.39,0.53c1.39,0.21,2.75,0.03,3.36-0.37c1.15-0.75,1.61-1.36,2.04-2.15
		C230.24,51.18,230.27,51.1,230.32,51.03z"/>
</g>
</svg>
