<svg xmlns="http://www.w3.org/2000/svg" width="545.58" height="262.695" viewBox="0 0 545.58 262.695">
  <g id="Group_108" data-name="Group 108" transform="translate(-328.52 -47.044)">
    <g id="Group_105" data-name="Group 105" transform="translate(328.519 124.858)">
      <g id="Group_104" data-name="Group 104">
        <path id="Path_1195" data-name="Path 1195" d="M411.4,164.725c-1.209,1.082-4.271,3.332-4.866,3.791-2.062,1.533-4.256,3.22-6.356,4.835l-.439.339c-2.133,1.638-2.148,1.638-2.587,1.436-1.184-.541,1.161-3.309-2.835-8.491l-4.529-5.894c-.332-.495-.717-1-1.128-1.528-1.174-1.592-2.546-3.378-4.057-5.409l-.36-.472c-1.674-2.108-4.011-5.146-6.636-8.565a1.148,1.148,0,0,0-1.607-.209l-12,9.229a1.147,1.147,0,0,0-.212,1.607c1.789,2.266,3.672,4.71,5.5,7.093l1.036,1.347c1.021,1.263,2.087,2.585,3.21,3.917,2.383,2.9,5.3,6.052,7.8,8.662,5.794,5.919,7.022,4.077,7.532,4.932.253.457.39.222-2.873,2.725l-11,8.486c-.745.526-1.4.383-1.033-.952.115-1.082-.781-3.289-2.284-6.021l-5.279-6.866c-.408-.531-.811-1.123-1.271-1.717l-.431-.564c-.411-.533-.822-1.066-1.222-1.653l-2.554-3.325c-.505-.658-.982-1.34-1.51-2.031-3.735-4.858-8.249-10.665-13.37-17.2l-6.338-8.246c-1.227-1.4-2.46-2.745-3.628-3.945-5.766-5.942-7-4.044-7.478-4.922-.2-.4-.184-.306,2.432-2.419.25-.194.538-.464.852-.707l.128-.1c2.5-1.87,5.534-4.154,8.417-6.371l2.289-1.755c.745-.526,1.4-.383,1.033.952-.276,2.307,3.807,9.042,8.726,15.832l3.23,4.4.651.845c1.021,1.263,2.347,2.985,3.865,4.963a1.714,1.714,0,0,0,2.383.311l11.535-8.866a1.179,1.179,0,0,0,.24-1.633c-.921-1.135-1.812-2.3-2.7-3.455L369,133.633c-.561-.666-1.092-1.357-1.6-2.013-1.641-2.13-3.118-3.99-4.327-5.5-4.146-4.743-7.958-8.346-9.757-8.609-1.385.015-1.442-.837-.745-1.421.656-.508,3.271-2.365,4.335-3.184l.347-.265c1.817-1.4,3.814-2.883,5.789-4.4l1.067-.819c2.539-1.952,2.225-1.712,2.554-1.414.735.63-1.391,1.368,3,8.371.329.492.651,1.044,1.005,1.569,1.732,2.707,4.065,5.333,5.881,7.825,8.93,12.137,25.068,32.118,25.119,32.179,3.873,4.2,7.361,7.307,9.078,7.534C412.125,163.467,412.1,164.141,411.4,164.725Z" transform="translate(-328.519 -33.692)" fill="#fff"/>
        <path id="Path_1196" data-name="Path 1196" d="M411.536,140.556c4.21,10.752,5.935,14.5,8.246,18.965.2.344.24.5-.651,1.01-4.128,2.347-15.9,9-15.97,9.042-5.677,3.457-9.326,5.442-14.156,8.147l.02.036-2.475,1.406a1.292,1.292,0,0,1-.541.173c-.845.434-1.413-.245-.939-1.334.1-5.743-5.121-14.51-9.114-21.93C372.772,150.149,365.4,137.6,365.4,137.6c-.528-.929-1.038-1.822-1.582-2.694l-.332-.584a115.053,115.053,0,0,0-8.41-12.78c-.283-.337-.515-.661-.781-.964a.5.5,0,0,1-.148-.189,15.185,15.185,0,0,0-5.572-4.429.842.842,0,0,1-.283-.339.156.156,0,0,1-.026-.122c-.1-.344.209-.434,3.677-2.5l.171-.1a3.686,3.686,0,0,0,.564-.367c4.858-2.9,9.28-5.282,13.819-7.864,2.715-1.544,7.062-3.973,11.066-6.616,1.281-.865,2.187-1.516,2.85-2.031.594-.475.98-.834,1.253-1.077.436-.431.6-.617.916-.707.6-.156,1.263,1.74,2.942,4.289,3.376,5.134,4.868,7.511,7.361,11.1.8,1.089,1.613,2.268,2.365,3.432.209.288.26.536.161.684a.378.378,0,0,1-.153.133c-1.362.638-7.351-4.281-14-6.368-9.1-2.876-15.612-.171-16.37,1.217a2.168,2.168,0,0,0,.051,1.929c.9,2.307,6.325,11.918,12.933,23.443a1.093,1.093,0,0,0,1.059.582c1.431-.041,3.661-2.039,5-4.167.373-.62.7-1.169.987-1.7a13.177,13.177,0,0,0,1.681-7.279c-.148-.74.561-1.414,1.248-.212.018.036.018.036.036.069a133.167,133.167,0,0,0,8.019,12.727.074.074,0,0,1,.056.1c2.108,2.9,3.59,4.784,3.59,4.784.3.375.426.987.189,1.214-.148.219-.5.237-1.089-.158a23.711,23.711,0,0,0-7.062-2.893c-.054-.015-.074-.051-.089,0-3.46-.8-6.685-.791-8.632-.135-1.656.531-2.434,1.564-1.648,2.939,6.966,12.234,10.507,18.228,12.257,21.055a16.641,16.641,0,0,0,1,1.434c.839,1.388,1.5,2.467,1.87,3.123,1.087,1.748,2.457,2.878,4,2.549.036-.02.089-.008.158-.043a10.867,10.867,0,0,0,5.822-6.639c3.223-9.614,1.982-22.741,3.988-23.7C410.7,137.57,410.965,139.15,411.536,140.556Z" transform="translate(-297.905 -51.655)" fill="#fff"/>
        <path id="Path_1197" data-name="Path 1197" d="M414.936,85.686c-2.215,3.365.151,12.17,2.863,19.9.579,1.6,5.465,14.6,5.465,14.6s13.877,35.22,14.332,36.274c.515,1.112.138,1.556-1.2.635-1.253-1.041-46.957-35.715-53.078-40.42a.233.233,0,0,0-.362.265c.794,2.153,2,5.248,2,5.248s9.213,24.553,11.244,28.9c2.921,6.205,6.182,14.145,10.435,15.041.528.046,1.072.9.235,1.263-4.465,1.61-5.807,2.09-12,4.713-.625.242-.883-.421-.536-.939,2.424-3.7-.158-11.864-2.447-18.613-1.112-3.3-13.982-36.7-16.046-40.91-2.646-5.378-7.057-7.779-7.859-7.764-.462.01-.847-.648-.388-1l1.2-.421c.771-.3,1.952-.76,3.115-1.258,5.075-2.016,7.744-3.011,7.744-3.011a1.358,1.358,0,0,1,1.48.316s24.634,17.276,40.793,30.554a.227.227,0,0,0,.365-.265s-8.338-20.991-8.782-22.134c-2.837-6.96-7.379-15.8-10.938-16.327-.63-.1-.7-.832-.043-1.087,0,0,6.82-2.656,11.54-4.491C414.985,84.395,415.347,85.106,414.936,85.686Z" transform="translate(-268.213 -66.501)" fill="#fff"/>
        <path id="Path_1198" data-name="Path 1198" d="M456.283,154.274c-5.486-.549-16.166-6.123-19.766-9.4-7.218-5.743-12.671-13.484-17.95-22.187a1.617,1.617,0,0,0-.625-.674c-.263-.11-1.51.051-1.618.316a.964.964,0,0,0-.018.694c2.345,10.821,4.228,20.039,5.026,22.7,1.028,3.378,3.072,7.154,5.4,8.244.628.11.561.771-.133.916,0,0-9.7,1.906-18.447,3.735-.9.145-1.066-.467-.513-1.107,1.414-1.745,1.852-6.039,1.357-9.17-.89-5.424-4.077-21.644-9.1-43.939a75.359,75.359,0,0,0-2.768-8.792c-.5-1.431-2.151-5.85-4.123-7.744-.709-.7-1.255-1.189-1.332-1.541-.316-.742,2.261-.594,7.366-2.064a72.037,72.037,0,0,1,13.12-2.937l.117-.028a49.691,49.691,0,0,1,5.756-.48,24.2,24.2,0,0,1,6.534.735,20.777,20.777,0,0,1,9.8,5.71,16.19,16.19,0,0,1,3.087,4.922,28.448,28.448,0,0,1,2.2,8.389c.462,4.35-.13,8.67-2.5,11.63a14.7,14.7,0,0,1-5.19,4.575.682.682,0,0,0-.393,1.074c1.62,5.014,14.684,25.948,26.563,35.835C458.284,153.822,458.35,154.493,456.283,154.274ZM427.135,107.59c.582-5.532-1.329-11.961-2.875-15.311a10.645,10.645,0,0,0-.929-1.748,16.309,16.309,0,0,0-7.955-5.97,8.661,8.661,0,0,0-4.36-.383l-.23.048a2.555,2.555,0,0,0-1.174.771,2.367,2.367,0,0,0-.544,1.852c.179,2.786,3.2,17.46,6.241,31.61a1.149,1.149,0,0,0,1.436.875c3.5-.852,6.527-2.577,7.578-4.126a13.686,13.686,0,0,0,2.733-7.037C427.1,108.006,427.1,107.794,427.135,107.59Z" transform="translate(-230.572 -72.474)" fill="#fff"/>
        <path id="Path_1199" data-name="Path 1199" d="M439.7,151.087c.316.449.556.944-.347,1.061-.947.079-1.891.156-2.835.276-4.884.411-9.216.816-11.734,1.064l-2.286.2c-.709.056-.773-.691-.334-1.166,1.533-1.6,2.373-6.231,1.791-16.934-.056-.668-.115-1.817-.24-3.355-.464-6.427-1.526-19.552-2.687-31.954-.125-1.5-.263-2.636-.316-3.307-1.214-10.652-2.817-15.079-4.6-16.436-.505-.355-.569-1.1.143-1.163,0,0,.827-.071,2.281-.194,2.529-.171,6.866-.5,11.752-.906l2.835-.24c.913-.038.758.492.521.987-1.513,3.225-1.263,9.035-.952,15.6.079,1.424.174,3,.311,4.654,1.169,15.3,2.625,32.161,3.11,36.05l.048.592C436.952,142.468,437.669,148.16,439.7,151.087Z" transform="translate(-193.217 -76.79)" fill="#fff"/>
        <path id="Path_1200" data-name="Path 1200" d="M473.885,153.341s-4.957-.135-12.762-.385c-2.182-.066-4.524-.365-5.325-3.138l-10.535-31.98a.4.4,0,0,0-.7-.12c-.418.566-.88,1.192-1.319,1.789a2.606,2.606,0,0,0-.508,1.477c-.329,10.737-.492,13.566-.495,16.8,0,4.042.406,11.081,2.332,13.757.373.513-.013.9-.714.875,0,0-6.84-.207-15.765-.492-.893-.069-.929-.6-.61-1.031,1.4-1.914,2.273-7.744,2.6-14.163.311-6.277,1.48-37.409,1.342-42.112-.227-7.466-1.016-14.76-2.3-15.873-.482-.416-.37-1.225.337-1.2,0,0,8.07.242,16.99.528.891.069.684.686.339,1.1-1.97,2.337-2.6,8.341-3.113,14.472-.168,2.031-.293,8.512-.686,19.781a.4.4,0,0,0,.719.24c3.524-5.047,11.446-17.6,13.091-20.57,2.817-5.083,3.414-11.941,1.368-13.357-.748-.518-.4-1.311.4-1.291,0,0,8.958.492,14.707.656,1.046.033,1.416.89.421,1.266-4.817,1.8-9.78,8.239-13.041,13.316-.462.72-4.108,6.544-6.611,11.377a1.356,1.356,0,0,0-.158,1.077c5.3,14.694,8.9,25.538,12.022,33.365,2.424,6.062,3.848,9.581,8.42,12.648C475.1,152.67,474.714,153.489,473.885,153.341Z" transform="translate(-175.26 -77.542)" fill="#fff"/>
        <path id="Path_1201" data-name="Path 1201" d="M470.779,155.875c.151.528.217,1.072-.676.888-.918-.232-1.84-.467-2.771-.661-4.751-1.2-8.979-2.233-11.443-2.814l-2.225-.564c-.689-.173-.505-.9.061-1.209,1.972-1.01,4.274-5.116,7.21-15.429.166-.653.487-1.758.865-3.253,1.658-6.228,4.929-18.985,7.869-31.095.373-1.454.615-2.577.778-3.23,2.322-10.466,2.253-15.176,1.008-17.044-.362-.5-.179-1.227.515-1.054l2.222.564c2.444.661,6.652,1.763,11.405,2.97l2.761.7c.873.26.554.709.174,1.1-2.488,2.554-4.141,8.134-5.983,14.439-.388,1.37-.814,2.9-1.222,4.506-3.883,14.847-8,31.268-8.8,35.1l-.143.574C470.985,146.83,469.809,152.449,470.779,155.875Z" transform="translate(-135.053 -73.131)" fill="#fff"/>
        <path id="Path_1202" data-name="Path 1202" d="M501.786,164.721c-5.144,1.133-10.543.875-18.975-3.029l-3.605-1.722c-3.692-1.809-10.443-4.914-16.855-8.019-.8-.429-.972-1.079.383-1.35,2.182-.8,6.361-7.522,10.175-15.036,4.549-8.869,8.484-17.373,14.431-31.273,1.444-3.386,3.12-7.534,4.317-10.953,2.712-7.866.477-8.144,1.046-8.966.278-.4.156-.324,4.4,1.62,5.121,2.319,9.938,3.791,14.74,6.573.036.013.053.071.089.089a40.779,40.779,0,0,1,4.868,3.113,21.581,21.581,0,0,1,9.088,14.995c.745,6.5-3.036,15.689-11.277,17.7-2.327.561-6.269.378-10.208-.278.02.054.02.054.056.071,4.639,3.314,9.022,9.178,9.923,15.62C515.473,151.5,509.943,162.882,501.786,164.721Zm1.868-24.969a15.7,15.7,0,0,0-2.8-9.359,15.463,15.463,0,0,0-4.827-4.108c-.071-.033-.092-.087-.161-.117l-3.427-1.641a.677.677,0,0,0-.947.332c-4.809,10.145-10.54,22.4-11.7,24.91-1.174,2.643-1.87,4.368.156,7,3.057,2.776,6.749,2.7,9.678,1.929a18.259,18.259,0,0,0,7.157-4.575C501.613,149.229,503.537,142.457,503.654,139.753ZM493.28,121.03a.7.7,0,0,0,.334.947c3.406,1.587,7.167,2.159,8.991,1.539a14.843,14.843,0,0,0,6.876-4.378c4.6-4.947,5.491-9.647,5.636-12.426a15.7,15.7,0,0,0-2.682-9.609,8.554,8.554,0,0,0-3.2-2.934c-.071-.033-.161-.031-.232-.066a2.331,2.331,0,0,0-1.419-.151,2.591,2.591,0,0,0-1.554,1.14C504.468,97.452,499.452,107.939,493.28,121.03Z" transform="translate(-121.847 -67.242)" fill="#fff"/>
        <path id="Path_1203" data-name="Path 1203" d="M522.362,162.2c-5.8,8.116-15.291,9.509-23.912,5.634-9.833-4.618-17.528-14.691-18.868-16.36-.6-.745-.214-1.128.441-1.686,6.575-5.575,16.248-16.983,16.248-16.983.416-.5,1.414-.319,1.1.76-1.375,4.817-8.846,23.772-.441,29.388,5.978,3.988,11.272-1.189,13.007-6.4,2.932-8.826-2.324-21.08-4.337-32.733-1.342-7.774-.8-13.474,3.952-19.271,7.057-8.611,18.832-10.017,28.742-2.36a42.409,42.409,0,0,1,11.15,12.341c.092.138-.018.51-.436.888-5.537,4.957-11.147,11.65-12.438,12.609a.565.565,0,0,1-.885-.5c.362-1.4,4.485-17.983-1.066-23.647-6.848-6.983-15.214,2.051-15.253,10.31-.026,6.294,3.439,13.306,5.848,24.989C527.8,151.677,526.48,156.435,522.362,162.2Z" transform="translate(-94.613 -47.071)" fill="#fff"/>
        <path id="Path_1204" data-name="Path 1204" d="M540.848,173.306c-7.746,8.573-10.333,11.788-13.293,15.852-.222.327-.342.436-1.2-.138-3.942-2.641-15.156-10.206-15.222-10.249-5.631-3.536-9.037-5.914-13.615-9.03l-.023.031-2.363-1.584a1.273,1.273,0,0,1-.4-.406c-.765-.561-.413-1.375.773-1.434,5.182-2.48,10.7-11.066,15.559-17.955,3.873-5.5,11.816-17.7,11.816-17.7.592-.89,1.169-1.743,1.707-2.62l.372-.556a114.376,114.376,0,0,0,7.68-13.234c.179-.406.365-.755.521-1.13a.458.458,0,0,1,.1-.217,15.182,15.182,0,0,0,1.475-6.96.9.9,0,0,1,.179-.411.15.15,0,0,1,.1-.074c.263-.253.48-.01,3.878,2.174l.161.107a3.89,3.89,0,0,0,.582.342c4.764,3.052,8.871,5.95,13.209,8.854,2.595,1.74,6.713,4.549,10.864,6.953,1.347.76,2.335,1.276,3.092,1.641.689.319,1.179.51,1.518.64.584.2.824.265,1.041.508.408.459-.99,1.909-2.521,4.547-3.085,5.312-4.552,7.708-6.642,11.545-.623,1.2-1.317,2.452-2.018,3.649-.168.316-.365.469-.541.449a.341.341,0,0,1-.186-.079c-1.181-.936.546-8.491-.551-15.37-1.493-9.428-6.823-14.048-8.4-14.107a2.168,2.168,0,0,0-1.7.9c-1.661,1.842-7.841,10.987-15.207,22.047a1.091,1.091,0,0,0-.046,1.2c.679,1.266,3.462,2.368,5.963,2.618.722.056,1.36.1,1.962.125a13.185,13.185,0,0,0,7.267-1.748c.594-.459,1.516-.128.742,1.021l-.043.066a133.558,133.558,0,0,0-7.81,12.862.074.074,0,0,1-.066.1c-1.653,3.177-2.679,5.348-2.679,5.348-.2.439-.691.819-1,.709-.26-.033-.436-.342-.347-1.041a23.643,23.643,0,0,0-.561-7.619c-.01-.054.013-.084-.043-.074-.827-3.457-2.279-6.335-3.733-7.79-1.214-1.243-2.485-1.477-3.368-.161-7.841,11.7-11.619,17.546-13.367,20.371a15.97,15.97,0,0,0-.839,1.533c-.87,1.37-1.544,2.444-1.962,3.067-1.079,1.753-1.477,3.485-.492,4.715.033.023.043.079.107.122a10.891,10.891,0,0,0,8.542,2.248c10.042-1.411,21.238-8.384,22.989-7.019C543.144,171.229,541.848,172.168,540.848,173.306Z" transform="translate(-71.263 -34.302)" fill="#fff"/>
        <path id="Path_1205" data-name="Path 1205" d="M589.541,139.024c-3.98.6-8.958,8.236-12.9,15.411-.8,1.5-7.215,13.811-7.215,13.811s-16.955,33.83-17.439,34.871c-.482,1.133-1.069,1.146-1.271-.464-.061-1.628-4.756-58.791-5.335-66.486a.234.234,0,0,0-.441-.092c-1.069,2.028-2.572,4.991-2.572,4.991s-12.127,23.244-14.005,27.658c-2.669,6.317-6.4,14.046-4.235,17.8.316.426.048,1.4-.778,1.023-4.182-2.25-5.434-2.932-11.52-5.792-.6-.3-.281-.936.342-1.023,4.371-.666,8.723-8.04,12.222-14.245,1.715-3.034,17.99-34.9,19.743-39.246,2.24-5.56,1.082-10.446.536-11.03-.319-.339-.084-1.061.485-.952l1.11.6c.737.375,1.868.947,3.016,1.482,4.884,2.432,7.4,3.753,7.4,3.753a1.366,1.366,0,0,1,.758,1.311s3.575,29.87,4.475,50.761a.227.227,0,0,0,.442.092s10.06-20.215,10.617-21.31c3.289-6.756,6.838-16.038,4.855-19.036-.352-.533.148-1.079.783-.758l11.04,5.59C590.536,138.2,590.245,138.942,589.541,139.024Z" transform="translate(-44.622 -19.038)" fill="#fff"/>
      </g>
    </g>
    <g id="Group_107" data-name="Group 107" transform="translate(432.902 47.044)">
      <g id="Group_106" data-name="Group 106">
        <path id="Path_1206" data-name="Path 1206" d="M406.2,91.245c-.714.38-2.465,1.118-2.809,1.268-1.181.5-2.447,1.064-3.659,1.6l-.253.112c-1.227.546-1.235.543-1.424.393-.513-.4.952-1.472-.383-4.46l-1.508-3.4c-.1-.278-.227-.566-.365-.875-.385-.911-.842-1.939-1.337-3.105l-.117-.27c-.564-1.22-1.345-2.975-2.22-4.942a.569.569,0,0,0-.755-.293l-6.92,3.075a.571.571,0,0,0-.293.753c.6,1.311,1.232,2.722,1.84,4.1l.347.776c.347.735.707,1.5,1.1,2.281.817,1.692,1.863,3.564,2.773,5.126,2.12,3.559,2.937,2.809,3.08,3.284.071.253.166.156-1.715.99l-6.345,2.827c-.424.168-.727.02-.388-.582a7.114,7.114,0,0,0-.4-3.2l-1.758-3.957c-.135-.309-.26-.64-.413-.985l-.145-.324c-.135-.306-.273-.615-.4-.949l-.85-1.914c-.166-.38-.319-.771-.495-1.163-1.243-2.8-2.753-6.154-4.473-9.933l-2.11-4.753c-.431-.827-.873-1.625-1.3-2.345-2.1-3.564-2.924-2.786-3.054-3.271-.051-.217-.054-.171,1.467-.89.145-.064.316-.161.495-.24l.077-.033c1.434-.615,3.179-1.368,4.838-2.107l1.322-.584c.424-.166.725-.02.388.584-.406,1.089.788,4.843,2.381,8.721q.524,1.259,1.054,2.516l.214.49c.347.735.786,1.725,1.3,2.865a.855.855,0,0,0,1.12.434l6.646-2.955a.592.592,0,0,0,.314-.765c-.316-.658-.615-1.329-.911-2l-.89-2.005c-.194-.388-.37-.786-.538-1.166-.546-1.227-1.046-2.3-1.457-3.182-1.457-2.794-2.886-4.993-3.73-5.333-.674-.153-.6-.574-.2-.778.383-.168,1.87-.763,2.485-1.038l.2-.087c1.046-.464,2.192-.952,3.332-1.457l.615-.273c1.462-.651,1.283-.569,1.408-.388.281.393-.839.5.467,4.422.1.278.194.584.3.88.523,1.521,1.35,3.069,1.939,4.5C397,74.191,402.489,85.8,402.5,85.834c1.391,2.5,2.717,4.417,3.529,4.728C406.7,90.717,406.61,91.041,406.2,91.245Z" transform="translate(-369.43 -31.11)" fill="#fff"/>
        <path id="Path_1207" data-name="Path 1207" d="M401.148,89.6c.212.174.4.378-.023.559-.444.166-.888.334-1.327.518-2.294.862-4.322,1.643-5.5,2.107-.686.258-1.074.4-1.074.4-.334.125-.467-.227-.319-.513.518-.977.293-3.319-1.442-8.389-.117-.314-.3-.86-.572-1.579-1.1-3.031-3.388-9.2-5.634-15.008-.265-.7-.485-1.235-.6-1.546-2.031-4.963-3.4-6.876-4.445-7.287-.293-.1-.424-.454-.089-.579l1.072-.4c1.191-.426,3.235-1.171,5.529-2.031l1.334-.5c.429-.143.429.135.383.4-.291,1.758.617,4.519,1.661,7.631.232.676.492,1.421.781,2.2,2.641,7.2,5.634,15.115,6.4,16.919l.1.278C398.653,85.824,399.771,88.465,401.148,89.6Z" transform="translate(-353.146 -34.226)" fill="#fff"/>
        <path id="Path_1208" data-name="Path 1208" d="M412.322,78.5c1.345,4.8-1.084,8.938-5.292,11.078-4.881,2.388-11.214,2.23-12.285,2.23-.477,0-.508-.268-.518-.7a95.3,95.3,0,0,0-1.531-11.65c-.064-.316.319-.651.643-.194,1.447,2.046,6.493,10.895,11.311,9.374,3.427-1.079,3.069-4.761,1.579-7.07-2.521-3.906-8.938-5.695-14.112-8.56-3.447-1.914-5.5-3.911-6.271-7.575-1.143-5.447,2-10.474,8.083-11.938a21.253,21.253,0,0,1,8.3-.48c.082.008.191.168.209.449.2,3.71,1.051,7.991,1.018,8.792a.281.281,0,0,1-.472.189c-.431-.579-5.6-7.379-9.548-6.988-4.866.482-3.967,6.57-.76,9.17,2.444,1.982,6.261,2.83,11.568,5.549C409.926,73.082,411.365,75.087,412.322,78.5Z" transform="translate(-344.323 -38.086)" fill="#fff"/>
        <path id="Path_1209" data-name="Path 1209" d="M420.544,60.255c.066.186-.133.64-.681.038-.521-.569-4.656-4.674-6.08-5.72-1.7-1.268-2.727-1.837-3.712-1.6A.2.2,0,0,0,410,53a.434.434,0,0,0-.179.1.033.033,0,0,0-.041.01.724.724,0,0,0-.163.242,1.429,1.429,0,0,0-.084.671c.071.834,3.307,14.645,5.338,23.106.607,2.48,1.023,4.251,1.243,5.093a13.1,13.1,0,0,0,1.426,3.485c.005.018.026.015.031.033a3.2,3.2,0,0,0,1.544,1.467c.237.066.24.247.066.37a.7.7,0,0,1-.2.087s-1.7.38-3.975.9l-.365.084c-1.485.35-3.184.727-4.82,1.115-.446.084-.477-.212-.3-.418a3.72,3.72,0,0,0,.686-2.355c.013-.023.028-.048.005-.061a16.775,16.775,0,0,0-.347-3.455c-.235-1.266-.467-2.411-.959-4.59l.02-.005c-1.128-4.794-2.8-11.7-4.794-20.167-.763-3.256-1.22-4.164-2.276-3.9-.962.23-1.712,1.278-2.669,3.169-.809,1.574-2.679,7.093-2.888,7.833-.225.783-.623.472-.628.268-.046-.7-.207-1.819-.278-2.472-.2-1.72-1.041-6.4-1.268-8.236-.054-.475.1-.61.454-.656a35.137,35.137,0,0,0,4.345-.536c1.931-.332,7.277-1.63,10.509-2.391l.291-.069c1.1-.258,2.013-.515,2.6-.694a32.549,32.549,0,0,0,4.133-1.442c.332-.135.533-.061.7.388.592,1.745,1.952,6.3,2.536,7.935C419.917,58.533,420.271,59.607,420.544,60.255Z" transform="translate(-331.139 -43.181)" fill="#fff"/>
        <path id="Path_1210" data-name="Path 1210" d="M432.078,66.573c.9,7.57-1.064,14.63-5.879,17.756a11.572,11.572,0,0,1-11.655.431c-4.71-2.661-7.774-8.527-8.494-16.237C405,57.3,409.36,48.937,417.552,48.355,425.286,47.8,430.817,55.875,432.078,66.573Zm-7.111-.61c-.408-1.832-.888-3.592-1.388-5.218-2.13-6.708-4.983-11.275-8.688-10.377-4.115.977-4.2,9.06-1.8,18.416,2.426,9.415,5.886,16.334,9.741,15.628C427.309,83.6,427.156,75.37,424.967,65.963Z" transform="translate(-312.856 -45.051)" fill="#fff"/>
        <path id="Path_1211" data-name="Path 1211" d="M443.914,86.528c-2.674-.671-7.555-4.2-9.1-6.083-3.161-3.365-5.3-7.588-7.277-12.275a.823.823,0,0,0-.26-.38c-.122-.074-.753-.079-.827.038a.487.487,0,0,0-.056.344c.375,5.524.641,10.219.844,11.594.263,1.748,1,3.763,2.074,4.47.306.1.225.421-.13.444,0,0-4.937.242-9.4.513-.454.008-.492-.306-.174-.584.827-.76,1.352-2.855,1.334-4.44-.046-2.748-.452-11-1.324-22.394a36.659,36.659,0,0,0-.735-4.552,11.794,11.794,0,0,0-1.477-4.128c-.3-.4-.538-.681-.546-.86-.1-.393,1.161-.13,3.792-.49a36.382,36.382,0,0,1,6.705-.5l.056-.005a24.983,24.983,0,0,1,2.886.179,12.075,12.075,0,0,1,3.179.837,10.375,10.375,0,0,1,4.432,3.531,8.045,8.045,0,0,1,1.171,2.659,14.306,14.306,0,0,1,.482,4.312,7.963,7.963,0,0,1-2.077,5.57,7.335,7.335,0,0,1-2.9,1.891.342.342,0,0,0-.276.5c.439,2.6,5.391,13.9,10.55,19.651C444.937,86.446,444.922,86.783,443.914,86.528ZM432.871,61.322a16.313,16.313,0,0,0-.316-7.782,5.086,5.086,0,0,0-.334-.934,8.161,8.161,0,0,0-3.5-3.531,4.355,4.355,0,0,0-2.131-.5l-.12.008a1.267,1.267,0,0,0-.635.3,1.181,1.181,0,0,0-.4.875c-.112,1.393.324,8.874.8,16.092a.573.573,0,0,0,.648.536,6.923,6.923,0,0,0,4.047-1.5A6.83,6.83,0,0,0,432.79,61.6C432.823,61.524,432.836,61.419,432.871,61.322Z" transform="translate(-295.841 -46.748)" fill="#fff"/>
        <path id="Path_1212" data-name="Path 1212" d="M437.374,83.772c.14.237.24.495-.219.513-.472,0-.947,0-1.421.018-2.449,0-4.626.013-5.891.031H428.7c-.357,0-.357-.375-.12-.592.832-.735,1.449-3.006,1.618-8.364,0-.337.018-.908.021-1.681.043-3.222.074-9.808.023-16.033,0-.753-.018-1.327-.018-1.664-.148-5.356-.758-7.631-1.587-8.384-.235-.2-.235-.574.12-.572H429.9c1.266.023,3.442.046,5.891.048l1.426,0c.454.02.352.278.217.513-.893,1.544-1.018,4.45-1.141,7.731-.023.712-.041,1.5-.043,2.335-.072,7.67-.064,16.133.013,18.09v.3C436.374,79.363,436.489,82.229,437.374,83.772Z" transform="translate(-277.924 -47.044)" fill="#fff"/>
        <path id="Path_1213" data-name="Path 1213" d="M454.781,74.9a88.591,88.591,0,0,0-1.7,10.2c-.01.2-.033.278-.548.247-2.368-.138-9.119-.543-9.157-.546-3.322-.094-5.391-.253-8.154-.434l0,.023-1.419-.084a.6.6,0,0,1-.273-.074c-.475-.046-.528-.485-.033-.814,1.6-2.383,1.8-7.483,2.138-11.681.273-3.35.592-10.619.592-10.619.028-.533.059-1.046.071-1.561l.018-.334a56.7,56.7,0,0,0-.056-7.647c-.026-.222-.033-.421-.064-.62a.28.28,0,0,1-.01-.12,7.665,7.665,0,0,0-1.133-3.373.414.414,0,0,1-.028-.219.077.077,0,0,1,.023-.056c.048-.176.2-.128,2.22-.054l.1.008a2.12,2.12,0,0,0,.337,0c2.824.1,5.333.306,7.935.457,1.561.087,4.047.253,6.445.232.771-.015,1.327-.043,1.745-.077.378-.038.638-.084.817-.112a1.1,1.1,0,0,1,.579-.046c.291.094.059,1.072.066,2.6.023,3.069,0,4.475.074,6.657.041.676.059,1.388.059,2.082.008.179-.036.3-.12.329a.151.151,0,0,1-.1.015c-.748-.1-1.921-3.794-4.141-6.478-3.036-3.679-6.506-4.312-7.2-3.937a1.087,1.087,0,0,0-.5.819c-.247,1.217-.584,6.721-.947,13.354a.55.55,0,0,0,.286.533c.612.37,2.09.138,3.23-.39.327-.158.612-.3.878-.441a6.633,6.633,0,0,0,2.684-2.6c.14-.35.62-.439.582.253l-.005.036a67.564,67.564,0,0,0-.1,7.522.036.036,0,0,1,0,.059c.1,1.789.207,2.983.207,2.983.023.24-.092.531-.253.561-.12.051-.276-.036-.411-.362a11.9,11.9,0,0,0-2.179-3.133c-.02-.023-.018-.043-.038-.023a8.662,8.662,0,0,0-3.585-2.406c-.839-.225-1.447,0-1.493.786-.4,7.027-.544,10.5-.579,12.168a7.267,7.267,0,0,0,.031.873c-.031.811-.046,1.444-.069,1.817-.02,1.031.25,1.878.987,2.156.02,0,.038.023.077.026a5.442,5.442,0,0,0,4.248-1.2c3.965-3.156,7.014-9,8.114-8.861C455.243,73.427,454.924,74.162,454.781,74.9Z" transform="translate(-270.574 -46.999)" fill="#fff"/>
        <path id="Path_1214" data-name="Path 1214" d="M471.9,51.522c-1.776.944-2.847,5.371-3.508,9.41-.128.842-1.1,7.713-1.1,7.713s-2.345,18.766-2.4,19.337c-.038.612-.311.717-.676-.008-.3-.755-12.045-26.908-13.6-30.436a.118.118,0,0,0-.224.031c-.168,1.133-.383,2.781-.383,2.781s-1.834,12.977-1.985,15.367c-.2,3.421-.676,7.685.977,9.1.219.145.253.648-.2.612-2.345-.367-3.049-.475-6.394-.811-.332-.041-.283-.393-.01-.538,1.949-1.044,2.771-5.241,3.383-8.749.3-1.715,2.656-19.445,2.758-21.782a7.367,7.367,0,0,0-1.587-5.292.284.284,0,0,1,.066-.528l.628.1c.411.056,1.038.135,1.669.2,2.7.329,4.116.531,4.116.531a.683.683,0,0,1,.574.492s6.667,13.477,10.573,23.17a.114.114,0,0,0,.225-.031s1.368-11.2,1.449-11.811c.421-3.733.543-8.7-.888-9.78-.255-.191-.112-.533.242-.487,0,0,3.626.472,6.134.794C472.231,50.965,472.218,51.363,471.9,51.522Z" transform="translate(-256.567 -45.987)" fill="#fff"/>
        <path id="Path_1215" data-name="Path 1215" d="M483.532,75.871c-2.768,7.1-7.815,12.408-13.536,12.9a11.565,11.565,0,0,1-10.486-5.1c-2.906-4.565-2.853-11.18.14-18.325C464,54.954,471.78,49.626,479.284,52.961,486.372,56.11,487.453,65.836,483.532,75.871Zm-5.983-3.883c.5-1.809.9-3.59,1.227-5.256,1.276-6.92.906-12.3-2.791-13.247-4.087-1.072-7.966,6.024-10.249,15.408-2.284,9.445-2.483,17.182,1.25,18.373C471.321,88.648,475.053,81.315,477.549,71.987Z" transform="translate(-233 -39.4)" fill="#fff"/>
        <path id="Path_1216" data-name="Path 1216" d="M496.49,104.5c-1.4-.8-7.815-4.276-8.9-4.832-.388-.232-.214-.439.031-.549,2.314-1.013,3.8-3.447,5.31-6.088,1.375-2.4,9.427-17.758,9.427-17.758s.786-1.454,1.319-2.485c.061-.107-.071-.237-.161-.158C501.853,74.2,485.7,90.487,479.1,96.8a.271.271,0,0,1-.454-.245c.878-4.929,5.68-31.753,5.914-34.067a.118.118,0,0,0-.222-.054c-.561,1.018-1.347,2.472-1.347,2.472S474.121,81.4,473.139,83.6c-1.921,4.289-1.794,5.8-1.475,7.017.069.263.061.492-.344.3-1.482-.814-5.537-2.9-5.692-2.978-.316-.156-.036-.393.268-.5,2.472-.87,4.189-3.738,5.233-5.208,1-1.426,10.326-18.659,11.206-20.812,1.337-3.291.753-5.812.492-6.111a.3.3,0,0,1,.327-.457l7.912,4.266a.675.675,0,0,1,.355.676s-2.973,16.327-4.7,26.341a.209.209,0,0,0,.352.186c5.751-5.46,15.487-15.906,18.468-18.911a.63.63,0,0,1,.758-.074l7.792,4.2a.283.283,0,0,1-.2.487c-1.385.079-3.123,2.184-4.85,5.009-1.2,1.965-9.56,17.666-10.31,19.246-1.365,2.891-2.62,5.322-1.865,7.762C496.962,104.352,496.8,104.676,496.49,104.5Z" transform="translate(-220.4 -34.942)" fill="#fff"/>
      </g>
    </g>
  </g>
</svg>
