<svg xmlns="http://www.w3.org/2000/svg" width="467.64" height="172.666" viewBox="0 0 467.64 172.666">
  <g id="Group_83" data-name="Group 83" transform="translate(-97.813 -114.109)">
    <g id="Group_80" data-name="Group 80" transform="translate(97.813 114.109)">
      <g id="Group_79" data-name="Group 79">
        <path id="Path_1092" data-name="Path 1092" d="M181.426,194.809c-5.153,1.536-16.865.471-21.33-1.158-8.651-2.508-16.444-7.471-24.435-13.368a1.588,1.588,0,0,0-.817-.376c-.276,0-1.345.608-1.342.884a.929.929,0,0,0,.244.635c6.126,8.9,11.251,16.521,12.957,18.628,2.184,2.67,5.429,5.317,7.934,5.436.61-.132.794.486.219.879,0,0-8.049,5.317-15.263,10.21-.757.468-1.136-.022-.874-.807.628-2.1-.57-6.139-2.177-8.779-2.819-4.567-11.712-18.03-24.52-36.289a73.1,73.1,0,0,0-5.758-6.913c-.986-1.106-4.114-4.483-6.594-5.456a5.118,5.118,0,0,1-1.776-.9c-.56-.55,1.82-1.375,5.885-4.595a70.588,70.588,0,0,1,10.751-7.523l.1-.062a47.909,47.909,0,0,1,5.021-2.573,23.586,23.586,0,0,1,6.169-1.761,20.256,20.256,0,0,1,10.96,1.522,15.815,15.815,0,0,1,4.617,3.3,27.809,27.809,0,0,1,5.1,6.759c2.035,3.753,3.1,7.874,2.06,11.426a14.375,14.375,0,0,1-2.983,6.054.661.661,0,0,0,.042,1.113c3.322,3.927,22.881,17.978,37.273,22.5C183.067,193.654,183.376,194.239,181.426,194.809Zm-43.631-31.331c-1.527-5.212-5.638-10.308-8.278-12.756a9.917,9.917,0,0,0-1.489-1.233,15.923,15.923,0,0,0-9.394-2.443,8.481,8.481,0,0,0-4.079,1.275l-.192.132a2.515,2.515,0,0,0-.772,1.131,2.3,2.3,0,0,0,.2,1.87c1.2,2.453,9.371,14.574,17.363,26.221a1.114,1.114,0,0,0,1.619.259c2.841-2.065,4.938-4.749,5.312-6.537a13.355,13.355,0,0,0-.144-7.366C137.917,163.864,137.837,163.675,137.795,163.478Z" transform="translate(-97.813 -74.43)" fill="#fff"/>
        <path id="Path_1093" data-name="Path 1093" d="M178.845,173.364c3.444,10.733,4.894,14.494,6.871,18.981.172.346.2.5-.7.941-4.161,2.035-16.035,7.8-16.108,7.832-5.738,3.021-9.414,4.732-14.285,7.07l.017.035-2.5,1.22a1.276,1.276,0,0,1-.535.132c-.849.374-1.362-.321-.834-1.352.448-5.591-4.1-14.452-7.536-21.92-2.744-5.964-9.152-18.64-9.152-18.64-.458-.936-.9-1.838-1.375-2.719l-.289-.593a111.4,111.4,0,0,0-7.411-12.96c-.254-.346-.456-.675-.7-.989a.5.5,0,0,1-.134-.192,14.806,14.806,0,0,0-5.155-4.654.845.845,0,0,1-.254-.346.146.146,0,0,1-.017-.122c-.082-.346.229-.413,3.731-2.211l.174-.085a3.956,3.956,0,0,0,.573-.324c4.906-2.525,9.359-4.575,13.938-6.811,2.739-1.34,7.125-3.442,11.187-5.77,1.3-.765,2.219-1.345,2.9-1.8.608-.426,1.006-.752,1.283-.974.453-.391.628-.56.939-.63.588-.115,1.123,1.771,2.6,4.356,2.971,5.2,4.281,7.618,6.492,11.261.717,1.111,1.429,2.311,2.092,3.489.189.294.219.535.115.675a.345.345,0,0,1-.157.12c-1.367.538-6.9-4.62-13.246-7.058-8.686-3.357-15.194-1.123-16.015.184a2.122,2.122,0,0,0-.072,1.88c.74,2.3,5.434,11.993,11.164,23.626a1.069,1.069,0,0,0,.994.63c1.4.045,3.7-1.761,5.128-3.75.4-.583.752-1.1,1.068-1.6a12.907,12.907,0,0,0,2.082-6.988c-.1-.727.63-1.34,1.225-.127l.032.067a131.259,131.259,0,0,0,7.033,12.89.069.069,0,0,1,.05.1c1.873,2.954,3.2,4.879,3.2,4.879.276.384.356.989.11,1.2-.154.2-.5.2-1.048-.219a23.109,23.109,0,0,0-6.7-3.252c-.052-.02-.067-.052-.085,0a16.9,16.9,0,0,0-8.4-.662c-1.641.416-2.465,1.377-1.788,2.764,6.037,12.345,9.122,18.4,10.651,21.258a15.111,15.111,0,0,0,.887,1.457c.727,1.4,1.3,2.5,1.626,3.155.951,1.771,2.219,2.954,3.738,2.727.035-.017.087,0,.157-.03a10.646,10.646,0,0,0,6.079-6.111c3.723-9.164,3.32-22.027,5.332-22.836C178.217,170.411,178.374,171.965,178.845,173.364Z" transform="translate(-66.619 -95.677)" fill="#fff"/>
        <path id="Path_1094" data-name="Path 1094" d="M198.5,182.652c.115.369-.182.585-.55.7l-19.447,6.089a.509.509,0,0,1-.545-.839s2.822-3.514-3.357-12.658l-4.866-6.769a.934.934,0,0,0-1.033-.324l-14.481,4.373a1.385,1.385,0,0,0-.994,1.362l.3,8.034c.9,10.514,4.889,12.26,5.058,12.287.438.107.468.463.319.63a4.789,4.789,0,0,1-.765.279l-10.863,3.4c-.774.242-1.093-.388-.518-1.011.386-.443,2.884-2.929,2.787-17.452-.042-2.456.032-2.478-.523-59.161a.6.6,0,0,1,1.068-.334s28.674,38.9,30.31,41.018c2.6,3.394,13.219,19.238,17.393,19.913C198.443,182.189,198.508,182.652,198.5,182.652Zm-31.162-17.139-13.966-20.458c-.366-.652-.834-1.113-.772.244l.473,24.642a.582.582,0,0,0,.762.488L167,166.472A.636.636,0,0,0,167.341,165.513Z" transform="translate(-25.31 -103.786)" fill="#fff"/>
        <path id="Path_1095" data-name="Path 1095" d="M210.92,164.994a96.383,96.383,0,0,0,1.128,19.778c.072.384-.08.779-1.106.635-1.937-.279-12.093,1.34-12.093,1.34s-19.178,2.926-24.014,3.656c-.9.082-.959-.57-.677-1.031,1.365-2.194,1.347-7.658.468-14.935-.608-5.023-1.534-11.891-4.769-31.764.01,0-1.014-6.814-1.345-8.691-.837-4.759-2.6-13.343-4.4-14.193-.57-.271-.849-1.091-.152-1.2,0,0,7.424-1.016,16.225-2.333.889-.09.884.535.648,1.011-1.034,2.094-1.347,5.8-.7,11.49.289,2.587.625,4.938,1.641,11.966,1.514,9.737,5.984,38.033,6.48,40.772.356,1.995,1.275,3.27,2.856,3.382,1.858.134,4.268-.411,7.782-3.833,4.894-4.759,8.328-13.107,10.387-17.208.291-.575.647-1.21,1.058-1.32.249-.07.62.017.727.548A13.457,13.457,0,0,1,210.92,164.994Z" transform="translate(0.156 -110.918)" fill="#fff"/>
        <path id="Path_1096" data-name="Path 1096" d="M204.1,185.942c.291.451.506.944-.381,1.019-.924.04-1.85.08-2.774.157-4.779.2-9.02.418-11.488.56l-2.234.095c-.695.027-.727-.707-.281-1.148,1.561-1.5,2.568-5.982,2.436-16.444-.027-.652-.032-1.776-.1-3.277-.187-6.291-.687-19.131-1.312-31.274-.065-1.464-.149-2.58-.177-3.237-.747-10.435-2.129-14.82-3.81-16.215-.478-.369-.511-1.1.184-1.131l2.236-.095c2.47-.065,6.711-.2,11.493-.406l2.777-.117c.889,0,.715.513.466.986-1.609,3.081-1.6,8.761-1.564,15.171.02,1.387.047,2.934.115,4.552.513,14.967,1.245,31.468,1.561,35.278l.025.575C201.776,177.425,202.241,183.006,204.1,185.942Z" transform="translate(30.087 -113.631)" fill="#fff"/>
        <path id="Path_1097" data-name="Path 1097" d="M235.538,172.842c-.939,9.7-8.273,15.512-17.452,16.451-10.567.9-21.995-3.85-23.942-4.6-.867-.339-.735-.847-.451-1.641,2.832-7.924,5.431-22.291,5.431-22.291.107-.628,1.039-.959,1.3.1,1.2,4.739,4.144,24.405,13.991,25.043,7,.453,8.945-6.512,7.865-11.764-1.835-8.891-12.267-16.675-19.664-25.539-4.936-5.912-7.262-11-6.079-18.214,1.756-10.726,11.015-17.667,23.135-16.043a41.387,41.387,0,0,1,15.453,4.978c.144.07.232.441.062.964-2.254,6.9-3.723,15.293-4.348,16.733a.549.549,0,0,1-.991.007c-.379-1.36-5-17.385-12.459-19.457-9.2-2.555-11.854,9.167-7.85,16.165,3.053,5.334,9.411,9.565,17.156,18.259C234.99,161.294,236.2,165.964,235.538,172.842Z" transform="translate(44.76 -114.109)" fill="#fff"/>
        <path id="Path_1098" data-name="Path 1098" d="M275.548,207.2c-2.954-1.113-16.377-5.837-18.648-6.572-.817-.329-.545-.777-.107-1.061,4.144-2.675,6.256-7.817,8.358-13.371,1.905-5.043,12.7-37.121,12.7-37.121s1.066-3.051,1.781-5.2c.082-.224-.217-.433-.361-.249-2.714,3.541-28.831,39.893-39.609,54.1a.53.53,0,0,1-.951-.326c.169-9.772,1.17-62.944.911-67.473a.227.227,0,0,0-.438-.032c-.777,2.129-1.843,5.177-1.843,5.177s-12.011,34.511-13.234,39.056c-2.378,8.856-1.659,11.732-.672,13.973.212.483.266.929-.575.677-3.108-1.116-11.56-3.882-11.884-3.985-.657-.209-.194-.75.361-1.041,4.5-2.441,6.926-8.495,8.48-11.652,1.5-3.053,14.155-39.131,15.186-43.559,1.566-6.751-.336-11.423-.929-11.919a.6.6,0,0,1,.488-.984l16.561,5.79a1.322,1.322,0,0,1,.894,1.19s-.707,32.379-.951,52.208a.409.409,0,0,0,.737.249c9.4-12.295,24.948-35.418,29.762-42.124a1.227,1.227,0,0,1,1.442-.379s15.6,5.456,16.309,5.7a.555.555,0,0,1-.242,1.006c-2.645.575-5.347,5.172-7.81,11.139-1.708,4.156-12.987,36.989-13.936,40.261-1.748,6-3.419,11.065-1.208,15.532C276.412,206.77,276.185,207.445,275.548,207.2Z" transform="translate(70.353 -111.832)" fill="#fff"/>
        <path id="Path_1099" data-name="Path 1099" d="M283.046,195.635c-7.411,8.495-9.879,11.675-12.7,15.687-.209.324-.326.433-1.166-.11-3.892-2.51-14.96-9.7-15.027-9.745-5.551-3.352-8.913-5.618-13.433-8.579l-.02.032-2.336-1.507a1.272,1.272,0,0,1-.391-.391c-.755-.535-.426-1.332.73-1.412,5.016-2.505,10.253-10.975,14.875-17.776,3.686-5.429,11.229-17.465,11.229-17.465.565-.874,1.111-1.718,1.621-2.582l.356-.55a111.883,111.883,0,0,0,7.269-13.039c.164-.4.341-.745.486-1.111a.465.465,0,0,1,.095-.214,14.831,14.831,0,0,0,1.322-6.819.808.808,0,0,1,.167-.4.143.143,0,0,1,.095-.075c.252-.252.468-.017,3.82,2.052l.159.1a3.71,3.71,0,0,0,.575.324c4.7,2.894,8.751,5.653,13.032,8.415,2.563,1.651,6.624,4.323,10.719,6.594,1.325.722,2.3,1.21,3.041,1.551.68.3,1.163.476,1.494.6.573.182.807.242,1.024.476.406.443-.934,1.878-2.383,4.478-2.921,5.237-4.308,7.6-6.286,11.373-.585,1.19-1.24,2.418-1.908,3.6-.154.311-.344.466-.518.446a.3.3,0,0,1-.182-.072c-1.17-.892.391-8.293-.8-14.984-1.614-9.172-6.891-13.59-8.435-13.622a2.128,2.128,0,0,0-1.644.911c-1.589,1.823-7.464,10.848-14.464,21.763a1.072,1.072,0,0,0-.025,1.178c.682,1.22,3.419,2.251,5.86,2.451.707.045,1.327.08,1.918.09a12.84,12.84,0,0,0,7.058-1.828c.573-.458,1.474-.147.745.986l-.042.065a129.889,129.889,0,0,0-7.4,12.676.073.073,0,0,1-.062.1c-1.559,3.128-2.525,5.262-2.525,5.262-.184.431-.665.812-.966.707-.254-.025-.433-.324-.354-1.009a23.061,23.061,0,0,0-.68-7.419c-.01-.055.01-.087-.04-.077a16.914,16.914,0,0,0-3.775-7.533c-1.2-1.19-2.448-1.4-3.287-.1-7.451,11.543-11.04,17.31-12.7,20.1a15.964,15.964,0,0,0-.792,1.514c-.824,1.347-1.462,2.406-1.86,3.021-1.024,1.731-1.385,3.424-.4,4.61.032.02.042.075.107.117a10.622,10.622,0,0,0,8.37,2.047c9.775-1.544,20.58-8.534,22.311-7.232C285.255,193.568,284.007,194.507,283.046,195.635Z" transform="translate(110.468 -91.171)" fill="#fff"/>
        <path id="Path_1100" data-name="Path 1100" d="M333.651,168.626c-3.93.087-9.687,6.868-14.392,13.333-.966,1.355-8.691,12.482-8.691,12.482s-20.593,30.674-21.188,31.622c-.605,1.034-1.173.976-1.173-.608.142-1.584,2.642-57.517,3.031-65.043a.23.23,0,0,0-.418-.139c-1.285,1.83-3.1,4.515-3.1,4.515s-14.611,21.016-16.974,25.055c-3.362,5.79-7.932,12.81-6.293,16.723.256.448-.125,1.357-.882.892-3.77-2.695-4.9-3.5-10.442-7.025-.54-.371-.152-.944.458-.951,4.316-.107,9.438-6.707,13.592-12.287,2.03-2.724,21.721-31.583,23.955-35.572,2.854-5.108,2.333-9.981,1.878-10.616-.262-.366.05-1.038.583-.862l1,.725c.672.453,1.693,1.148,2.739,1.805,4.433,2.956,6.714,4.55,6.714,4.55a1.325,1.325,0,0,1,.565,1.362s-.217,29.364-1.92,49.7a.223.223,0,0,0,.418.144s12.235-18.334,12.9-19.328c4.019-6.139,8.6-14.688,7.048-17.836-.274-.558.276-1.026.852-.64l10,6.779C334.712,167.953,334.346,168.633,333.651,168.626Z" transform="translate(133.273 -75.351)" fill="#fff"/>
      </g>
    </g>
    <g id="Group_82" data-name="Group 82" transform="translate(219.624 233.467)">
      <g id="Group_81" data-name="Group 81">
        <path id="Path_1101" data-name="Path 1101" d="M165.565,202.952s-4.144,1.407-8.163,2.752c-.406.115-.6-.2-.448-.458.615-1.036.471-3.208-1.056-8.168-.261-.844-5.5-16.381-5.5-16.381-.906-2.732-2.152-2.879-3.053-2.478-.533.237-.874-.406-.359-.832a45.228,45.228,0,0,0,2.48-3.89c1.947-3.325,2.408-4.866,2.792-5,.092-.032.249,0,.324.234.234.727.69,2.348,1.081,3.564.4,1.27,7.62,22.241,7.892,23.051,1.043,3.115,2.642,6.48,4.017,7.08C165.843,202.549,165.883,202.847,165.565,202.952Z" transform="translate(-146.727 -152.42)" fill="#fff"/>
        <path id="Path_1102" data-name="Path 1102" d="M176.659,199.042a11.949,11.949,0,0,1-2.732,2.182c-.062.017-.107.032-.122.057a11.457,11.457,0,0,1-2.428,1.126l-.371.13a20.786,20.786,0,0,1-4.236.874l-.042.01c-5.723.269-8.542-2.416-9.4-6.086a9.192,9.192,0,0,1,1.843-8.141,11.166,11.166,0,0,1,2.236-1.925c-.847-.3-1.626-.593-2.264-.859a10.31,10.31,0,0,1-5.651-5.429,9.823,9.823,0,0,1,1-9.518,1.865,1.865,0,0,1,.324-.386c.032-.055.067-.085.1-.139.015-.027.05-.06.085-.115s.12-.127.189-.212a7.672,7.672,0,0,1,.605-.6,12.218,12.218,0,0,1,3.858-2.612.229.229,0,0,1,.1-.05l.02-.005a1.551,1.551,0,0,1,.3-.134c6.266-2.488,11.538.341,12.718,5.128.892,3.591-1.009,7.541-3.394,9.877a3.586,3.586,0,0,1-.506.393,31.746,31.746,0,0,1,5.083,2.256,11.361,11.361,0,0,1,3.646,3.952C178.258,190,180.529,194.8,176.659,199.042Zm-14.823-19.213a36.99,36.99,0,0,0,5.571,2.206l.02,0c.707-1.41.533-5.5-.824-8.569-1.746-3.932-4.333-6-7.107-4.159C156.749,171.128,157.215,176.965,161.837,179.829Zm6.136,9.814c-.369-.189-2.754-.994-5.153-1.833-.7,2-.76,4.684.732,8.3,1.532,3.708,4.353,5.15,7.015,4.63l.062-.02a4.452,4.452,0,0,0,3.464-3.534C174.455,194.806,172.548,191.32,167.973,189.644Z" transform="translate(-137.807 -155.707)" fill="#fff"/>
        <path id="Path_1103" data-name="Path 1103" d="M182.08,163.954l.232,1.392a2.118,2.118,0,0,1,0,1c-3.8,9.217-6.126,21.255-2.637,29.07,1.148,2.57.767,4.864-.575,5.673-1.407.849-3.88.946-5.145-.3-2.341-2.3-2.545-8.664-.685-15.669a72.672,72.672,0,0,1,5.855-14.917c-5.486.73-11.881,1.987-15.714,4.156-.481.269-.565.03-.608-.2a24.889,24.889,0,0,0,.169-6.7c-.087-.735.007-.787.887-.911,2.164-.291,9.065-1.375,12.539-2.007l1.434-.309,3.7-.692A.492.492,0,0,1,182.08,163.954Z" transform="translate(-122.769 -159.79)" fill="#fff"/>
        <path id="Path_1104" data-name="Path 1104" d="M191.231,189.848c-1.743,5.367-6.54,9.767-13.147,11.209-.4.085-.817-.207-.112-.645a16.628,16.628,0,0,0,7.952-11.1c.7-3.995-1.918-7.982-5.788-8.021a9.511,9.511,0,0,0-5.417,1.4c-.889.433-1.307.4-1.327-.127l.662-17.046c.022-.508-.112-1,.354-1.011.057-.007,12.033-1.173,14.86-2.289.486-.192.525.017.553.247a25.734,25.734,0,0,0-1.25,5.3c-.095.737-.06.8-.916.844-2.092.117-4.926.466-8.305.832l-2.508.366c-.346.037-.438.117-.438.468l-.316,9.319c.022.406.712-.356,2.3-1.218,3.414-1.845,7.429-1.893,9.5-.864C192.026,179.558,192.626,185.562,191.231,189.848Z" transform="translate(-106.984 -161.876)" fill="#fff"/>
        <path id="Path_1105" data-name="Path 1105" d="M199.646,174.73l-13.042.239a.317.317,0,0,1-.324-.426l.765-2.991a.618.618,0,0,1,.55-.441l13.042-.242a.317.317,0,0,1,.321.428l-.765,2.986A.61.61,0,0,1,199.646,174.73Z" transform="translate(-87.799 -148.872)" fill="#fff"/>
        <path id="Path_1106" data-name="Path 1106" d="M206.358,198.942s-4.368-.247-8.592-.506c-.421-.045-.483-.413-.249-.593.961-.732,1.639-2.794,2.084-7.964.075-.882,1.029-17.238,1.029-17.238.187-2.874-.911-3.477-1.9-3.439-.585.017-.66-.7-.022-.9,0,0,1.307-.794,3.753-2.68,3.051-2.351,4.057-3.609,4.46-3.581.1,0,.229.087.214.336-.06.762-.242,2.433-.339,3.708-.1,1.327-1.263,23.462-1.315,24.313-.2,3.277.02,6.993,1.068,8.061C206.768,198.673,206.694,198.964,206.358,198.942Z" transform="translate(-71.233 -162.037)" fill="#fff"/>
        <path id="Path_1107" data-name="Path 1107" d="M219.952,198.568a12.016,12.016,0,0,1-3.347,1c-.065-.007-.11-.012-.134,0a11.456,11.456,0,0,1-2.672.137l-.391-.022a20.29,20.29,0,0,1-4.254-.77l-.045,0c-5.409-1.888-7.018-5.434-6.443-9.157a9.187,9.187,0,0,1,4.757-6.861,11.051,11.051,0,0,1,2.792-.949c-.677-.593-1.29-1.156-1.781-1.644a10.331,10.331,0,0,1-3.21-7.145,9.837,9.837,0,0,1,4.48-8.455,1.872,1.872,0,0,1,.446-.237c.05-.04.095-.057.144-.092.022-.022.067-.037.12-.075s.159-.072.252-.127c.259-.125.51-.229.789-.331a12.136,12.136,0,0,1,4.555-.984.311.311,0,0,1,.11-.01l.02,0a1.873,1.873,0,0,1,.334-.007c6.739.032,10.569,4.625,9.879,9.506-.521,3.663-3.758,6.617-6.841,7.892a3.5,3.5,0,0,1-.615.174,32.272,32.272,0,0,1,3.872,3.995,11.387,11.387,0,0,1,1.9,5.025C224.816,190.783,225.127,196.082,219.952,198.568Zm-4.54-11.964c-.271-.311-2.184-1.95-4.092-3.623-1.4,1.591-2.458,4.059-2.426,7.969.037,4.012,2.114,6.405,4.774,6.916l.067.008a4.453,4.453,0,0,0,4.532-1.985C219.494,193.816,219.029,189.869,215.413,186.6Zm-2.022-11.393a37.155,37.155,0,0,0,4.338,4.132h.022c1.183-1.041,2.55-4.9,2.436-8.256-.147-4.3-1.771-7.187-5.035-6.512C211.921,165.239,210.173,170.83,213.39,175.211Z" transform="translate(-63.52 -160.838)" fill="#fff"/>
        <path id="Path_1108" data-name="Path 1108" d="M228.515,192.374a24.5,24.5,0,0,1-13.425,7.693c-1.041.132-1-.271-.924-.334a28.493,28.493,0,0,0,10.771-11.266c.742-1.327,1.539-3.282,2-4.326a6.226,6.226,0,0,1-4.717,2.323c-6.637.027-9.01-7.332-7.536-13.254,1.479-5.947,6.846-9.722,12.878-8.223C238.564,167.722,236.537,183.486,228.515,192.374Zm.573-15.873c.59-5.339.035-9.575-2.849-10.23-3.026-.667-4.789,3.362-5.541,8.7-.762,5.294.852,8.821,3.623,8.846C227.4,183.862,228.816,178.916,229.088,176.5Z" transform="translate(-46.271 -158.129)" fill="#fff"/>
        <path id="Path_1109" data-name="Path 1109" d="M248.2,192.473c-3.135,6.953-8.388,12.018-14.011,12.262a11.054,11.054,0,0,1-9.946-5.531c-2.568-4.669-2.119-11.256,1.238-18.244,4.869-10.161,12.8-15.131,19.935-11.485C252.163,172.916,252.636,182.653,248.2,192.473Zm-5.621-4.124c.6-1.778,1.1-3.536,1.514-5.182,1.661-6.836,1.624-12.208-1.93-13.313-3.935-1.245-8.153,5.653-10.95,14.9-2.8,9.311-3.457,17,.122,18.351C235.495,204.673,239.584,197.533,242.583,188.348Z" transform="translate(-33.651 -152.729)" fill="#fff"/>
      </g>
    </g>
  </g>
</svg>
