<svg xmlns="http://www.w3.org/2000/svg" width="512.298" height="246.425" viewBox="0 0 512.298 246.425">
  <g id="Group_68" data-name="Group 68" transform="translate(-161.567 -400.033)">
    <path id="Path_1025" data-name="Path 1025" d="M225.832,470.861c2.439,12.345-4.48,22.263-15.492,26.832-12.744,5.046-28.647,3.408-31.341,3.2-1.2-.1-1.223-.779-1.165-1.863.56-10.861-1.561-29.606-1.561-29.606-.1-.814.93-1.574,1.654-.354,3.241,5.422,14.2,28.67,26.617,25.8,8.83-2.04,8.653-11.382,5.361-17.477-5.574-10.32-21.375-16.081-33.819-24.306-8.3-5.487-13.069-10.916-14.288-20.287-1.809-13.928,7.077-25.957,22.675-28.445,8-1.278,12.769-1.075,20.975.422.2.035.447.46.438,1.171-.232,9.371,1.072,20.309.83,22.324a.71.71,0,0,1-1.226.377c-.969-1.538-12.641-19.659-22.646-19.46-12.332.261-11.267,15.753-3.707,22.929,5.757,5.464,15.2,8.338,28.01,16.226C220.867,456.772,224.1,462.1,225.832,470.861Z" transform="translate(0 7.707)" fill="#f7d4ce"/>
    <path id="Path_1026" data-name="Path 1026" d="M245.108,428.224c.087.5-.579,1.548-1.715-.161-1.081-1.612-9.854-13.413-13.008-16.557-3.765-3.8-6.114-5.612-8.65-5.406a.4.4,0,0,0-.193.068,1.18,1.18,0,0,0-.489.19.066.066,0,0,0-.1.01,1.7,1.7,0,0,0-.505.541,3.653,3.653,0,0,0-.47,1.641c-.129,2.111,2.732,37.768,4.612,59.638.573,6.41.943,10.983,1.168,13.168a33.042,33.042,0,0,0,2.253,9.226c.006.048.055.045.058.093.862,1.979,1.944,3.595,3.3,4.238.57.251.512.708.029.949a1.845,1.845,0,0,1-.541.142s-4.38.3-10.25.737l-.943.074c-3.833.312-8.209.618-12.438.959-1.146.048-1.107-.7-.592-1.149,1.406-1.165,2.182-3.286,2.594-5.616.045-.058.093-.109.039-.155a42.87,42.87,0,0,0,.441-8.747c-.113-3.244-.254-6.185-.66-11.81h.048c-1.007-12.38-2.565-30.218-4.344-52.1-.685-8.406-1.484-10.842-4.216-10.568-2.484.2-4.747,2.539-7.846,6.893-2.61,3.614-9.355,16.676-10.16,18.446-.85,1.873-1.731.943-1.67.431.158-1.764.177-4.618.241-6.272.145-4.367-.177-16.354-.055-21.017.048-1.2.476-1.49,1.381-1.464a89.86,89.86,0,0,0,11.035.306c4.946-.1,18.758-1.329,27.112-2.008l.747-.058c2.832-.232,5.21-.525,6.745-.75a83.3,83.3,0,0,0,10.845-2.034c.882-.222,1.355.039,1.6,1.223.827,4.586,2.494,16.464,3.34,20.75C244.188,423.7,244.664,426.509,245.108,428.224Z" transform="translate(42.792 0)" fill="#f7d4ce"/>
    <path id="Path_1027" data-name="Path 1027" d="M270.083,406.488a49.073,49.073,0,0,0-5.049,3.43c-3.08,2.365-5.657,6.327-7.978,10.848l-16.518,34.71c-1.2,15.292-1.825,22.658-1.847,26.24-.048,5.094,1.3,12.728,4.029,14.4.682.422.38,1.226-.508,1.159,0,0-13.011-1.03-24.232-1.924-1.194.042-1.149-.7-.425-1.262,2.858-2.227,5.094-10.134,5.741-14.092.6-3.736,1.184-11.672,2.391-27.2,0,0-10.861-30.935-11.324-32.371-2.327-7.118-6.468-17.461-9.046-18.646-.959-.441-1.751-1.686.084-1.541l11.875,1.236,13.712.779a2.633,2.633,0,0,1,.608.145c.348.2.7.753-.351,1.136-4.1,1.493-2.526,10.1-.792,15.228l8.184,28.557c.177.65.473,1.152.959.109L251.8,420.647c1.783-4.6,2.893-9.007,1.58-12.737a7.531,7.531,0,0,0-2.118-3.022c-.306-.155-.763-.84.084-1.033.161-.032,7.347.737,7.711.766l11.012.7C271.045,405.394,271.1,406.52,270.083,406.488Z" transform="translate(94.771 0.423)" fill="#f7d4ce"/>
    <path id="Path_1028" data-name="Path 1028" d="M278.685,510.368s-5.963-1.889-15.337-4.911c-2.623-.843-5.352-2.018-5.361-5.664l-1.628-42.443a.5.5,0,0,0-.808-.386c-.7.541-1.48,1.139-2.217,1.712a3.244,3.244,0,0,0-1.133,1.615c-4.139,12.895-5.32,16.267-6.452,20.187-1.41,4.9-3.373,13.577-1.966,17.494.274.75-.331,1.088-1.175.817,0,0-8.222-2.642-18.938-6.1-1.056-.393-.917-1.046-.38-1.461,2.365-1.831,5.458-8.6,8.081-16.267,2.568-7.5,14.832-44.838,16.3-50.588,2.327-9.123,3.91-18.243,2.739-20.042-.438-.669-.023-1.612.83-1.342,0,0,9.7,3.105,20.416,6.562,1.055.4.586,1.072.029,1.445-3.2,2.15-6.056,9.21-8.821,16.464-.911,2.407-3.321,10.217-7.72,23.743a.5.5,0,0,0,.785.541c6.027-4.891,20.013-17.352,23.042-20.377,5.188-5.178,8.3-13.287,6.307-15.714-.724-.891-.019-1.734.943-1.426,0,0,10.684,3.717,17.6,5.921,1.255.4,1.4,1.57.068,1.68-6.465.512-14.729,6.578-20.448,11.6-.811.714-7.263,6.5-11.978,11.492a1.7,1.7,0,0,0-.566,1.245c1.3,19.659,1.9,34.067,2.948,44.644.827,8.193,1.326,12.953,5.8,18.266C280.394,509.979,279.641,510.838,278.685,510.368Z" transform="translate(135.994 6.463)" fill="#f7d4ce"/>
    <path id="Path_1029" data-name="Path 1029" d="M290.985,522.6s-5.4-3.16-13.873-8.183c-2.369-1.4-4.776-3.147-3.978-6.707l7.791-41.748a.5.5,0,0,0-.7-.554c-.8.367-1.7.782-2.542,1.175a3.277,3.277,0,0,0-1.461,1.326c-6.89,11.662-8.782,14.694-10.755,18.266-2.455,4.467-6.288,12.493-5.786,16.621.1.792-.557.988-1.323.534,0,0-7.434-4.386-17.123-10.127-.943-.618-.66-1.223-.045-1.506,2.71-1.268,7.221-7.183,11.479-14.079,4.158-6.745,24.367-40.448,27.077-45.729,4.286-8.386,7.846-16.93,7.1-18.942-.28-.747.335-1.577,1.1-1.126,0,0,8.769,5.175,18.459,10.912.943.615.331,1.175-.3,1.416-3.595,1.387-7.939,7.64-12.238,14.1-1.419,2.143-5.5,9.23-12.776,21.449a.5.5,0,0,0,.647.7c6.964-3.44,23.354-12.5,26.977-14.781,6.2-3.9,11.025-11.122,9.622-13.928-.509-1.03.364-1.693,1.229-1.181,0,0,9.6,5.986,15.862,9.661,1.133.669,1.02,1.847-.309,1.657-6.417-.933-15.817,3.157-22.5,6.79-.946.515-8.518,4.737-14.218,8.557a1.7,1.7,0,0,0-.83,1.091c-3.076,19.46-5.68,33.639-6.99,44.191-1.007,8.167-1.574,12.921,1.615,19.093C292.732,522.595,291.812,523.268,290.985,522.6Z" transform="translate(175.361 25.867)" fill="#f7d4ce"/>
    <path id="Path_1030" data-name="Path 1030" d="M315.925,508.9c-9.915,10.678-13.233,14.691-17.04,19.762-.283.409-.438.547-1.506-.193-4.927-3.4-18.939-13.133-19.019-13.191-7.035-4.557-11.292-7.617-17.011-11.627l-.029.042-2.954-2.04a1.623,1.623,0,0,1-.489-.518c-.956-.721-.5-1.738,1-1.8,6.578-3.035,13.69-13.767,19.933-22.372,4.982-6.861,15.206-22.108,15.206-22.108.766-1.11,1.5-2.179,2.2-3.273l.483-.7a144.536,144.536,0,0,0,9.915-16.557c.232-.505.473-.946.673-1.413a.673.673,0,0,1,.129-.274c2.414-5.606,1.815-7.72,1.986-8.756a1.081,1.081,0,0,1,.229-.508.177.177,0,0,1,.125-.093c.338-.312.608,0,4.853,2.806l.206.142a5.326,5.326,0,0,0,.727.441c5.953,3.929,11.083,7.649,16.5,11.392,3.244,2.243,8.383,5.854,13.577,8.956,1.689.978,2.922,1.651,3.868,2.124.869.415,1.487.66,1.908.833.734.261,1.036.347,1.31.656.5.589-1.287,2.388-3.263,5.69-3.984,6.649-5.873,9.645-8.583,14.446-.8,1.509-1.7,3.07-2.6,4.566-.216.4-.47.586-.689.557a.449.449,0,0,1-.235-.1c-1.474-1.2.84-10.7-.428-19.392-1.722-11.913-8.357-17.835-10.349-17.938a2.738,2.738,0,0,0-2.163,1.113c-2.127,2.291-10.079,13.715-19.56,27.537a1.383,1.383,0,0,0-.081,1.522c.833,1.606,4.322,3.044,7.476,3.4.908.084,1.712.148,2.472.19a16.666,16.666,0,0,0,9.2-2.076c.753-.573,1.908-.138.917,1.3a.562.562,0,0,0-.061.084,169.051,169.051,0,0,0-10.073,16.078.094.094,0,0,1-.081.125c-2.143,3.978-3.472,6.694-3.472,6.694-.258.55-.891,1.023-1.274.882-.328-.048-.547-.438-.422-1.323a29.835,29.835,0,0,0-.576-9.616c-.013-.068.016-.106-.055-.093-.982-4.377-2.761-8.029-4.573-9.886-1.509-1.59-3.109-1.905-4.241-.264-10.092,14.613-14.958,21.922-17.214,25.458a21.391,21.391,0,0,0-1.085,1.918c-1.12,1.712-1.986,3.057-2.526,3.836-1.39,2.188-1.924,4.367-.7,5.934.042.029.055.1.135.155a13.706,13.706,0,0,0,10.732,2.983c12.686-1.6,26.929-10.2,29.114-8.448C318.857,506.32,317.206,507.485,315.925,508.9Z" transform="translate(212.517 51.364)" fill="#f7d4ce"/>
    <path id="Path_1031" data-name="Path 1031" d="M375.247,467.158c-5.065.418-11.968,9.612-17.539,18.317-1.136,1.818-10.243,16.779-10.243,16.779s-24.19,41.166-24.885,42.437c-.7,1.381-1.442,1.349-1.561-.7.058-2.053-1.046-74.412-1.13-84.147a.3.3,0,0,0-.547-.151c-1.519,2.462-3.656,6.069-3.656,6.069s-17.223,28.242-19.959,33.642c-3.888,7.727-9.242,17.14-6.822,22.053.36.563-.061,1.767-1.072,1.223-5.075-3.183-6.594-4.142-14.015-8.254-.73-.434-.27-1.207.515-1.261,5.561-.473,11.659-9.387,16.583-16.9,2.414-3.675,25.581-42.431,28.158-47.75,3.282-6.813,2.233-13.059,1.6-13.847-.373-.447-.016-1.342.685-1.155l1.348.859c.9.534,2.272,1.348,3.672,2.117,5.95,3.472,9.011,5.345,9.011,5.345a1.711,1.711,0,0,1,.84,1.718s2,37.906,1.371,64.278a.288.288,0,0,0,.55.151s14.366-24.6,15.151-25.935c4.708-8.229,9.957-19.617,7.717-23.56-.4-.7.274-1.345,1.046-.891,0,0,7.939,4.714,13.432,7.971C376.57,466.206,376.142,467.117,375.247,467.158Z" transform="translate(248.173 74.207)" fill="#f7d4ce"/>
    <path id="Path_1032" data-name="Path 1032" d="M354.541,525.658c-7.086,12.728-9.352,17.413-11.842,23.247-.177.467-.293.634-1.506.174-5.593-2.13-21.519-8.245-21.616-8.283-7.92-2.748-12.779-4.708-19.289-7.241l-.019.052-3.357-1.281a1.575,1.575,0,0,1-.6-.386c-1.1-.473-.9-1.57.544-1.986,5.667-4.512,10.012-16.628,14.028-26.472,3.205-7.852,9.5-25.1,9.5-25.1.483-1.262.94-2.472,1.358-3.7l.3-.792a143.555,143.555,0,0,0,5.683-18.44c.109-.547.241-1.033.322-1.535a.62.62,0,0,1,.061-.3c1.007-6.021-.077-7.929-.161-8.975a1.122,1.122,0,0,1,.1-.55.221.221,0,0,1,.1-.122c.254-.383.592-.148,5.384,1.574l.229.087a4.663,4.663,0,0,0,.814.251c6.716,2.4,12.586,4.8,18.745,7.141,3.678,1.4,9.535,3.685,15.318,5.458,1.87.553,3.231.911,4.267,1.142.936.2,1.6.286,2.053.357a2.793,2.793,0,0,1,1.422.328c.624.451-.679,2.626-1.815,6.3-2.285,7.4-3.4,10.768-4.891,16.074-.415,1.654-.917,3.385-1.445,5.056-.113.438-.312.679-.534.7a.44.44,0,0,1-.251-.045c-1.719-.814-1.735-10.587-5.036-18.732-4.509-11.163-12.367-15.331-14.324-14.954a2.736,2.736,0,0,0-1.837,1.593c-1.519,2.732-6.52,15.724-12.435,31.405a1.387,1.387,0,0,0,.283,1.5c1.191,1.361,4.924,1.931,8.068,1.525.9-.135,1.7-.261,2.449-.4a16.686,16.686,0,0,0,8.438-4.209c.592-.734,1.821-.586,1.2,1.043l-.035.1a168.237,168.237,0,0,0-5.954,18.018.093.093,0,0,1-.051.138c-1.133,4.373-1.78,7.328-1.78,7.328-.116.6-.618,1.207-1.027,1.159-.335.035-.637-.293-.724-1.181a29.864,29.864,0,0,0-2.851-9.2c-.029-.064-.01-.109-.077-.077-1.989-4.016-4.592-7.144-6.79-8.518-1.844-1.181-3.479-1.107-4.183.759-6.32,16.6-9.307,24.853-10.655,28.824a21.327,21.327,0,0,0-.6,2.121c-.682,1.928-1.2,3.44-1.545,4.325-.827,2.462-.827,4.7.734,5.934.045.019.074.087.167.116a13.7,13.7,0,0,0,11.131.348c11.942-4.583,23.724-16.322,26.266-15.141C356.774,522.45,355.448,523.975,354.541,525.658Z" transform="translate(297.321 97.106)" fill="#f7d4ce"/>
  </g>
</svg>
