<svg xmlns="http://www.w3.org/2000/svg" width="448.655" height="231.458" viewBox="0 0 448.655 231.458">
  <g id="Group_118" data-name="Group 118" transform="translate(-344.011 -47.043)">
    <g id="Group_115" data-name="Group 115" transform="translate(344.011 122.077)">
      <g id="Group_114" data-name="Group 114">
        <path id="Path_1236" data-name="Path 1236" d="M401.55,141.92c4.844,8.23,2.383,17.065-4.353,23.1-7.856,6.807-19.658,9.626-21.636,10.151-.881.232-1.072-.249-1.3-1.04-2.322-7.915-8.545-20.806-8.545-20.806-.281-.557.271-1.357,1.091-.669,3.682,3.071,17.358,16.963,25.532,11.789,5.813-3.679,3.337-10.317-.549-13.86-6.58-5.991-19.338-6.147-30.312-8.911-7.322-1.843-12.1-4.534-15.32-10.933-4.795-9.519-1.453-20.361,9.092-26.057a40.5,40.5,0,0,1,15.122-4.966c.151-.024.437.215.6.728,2.19,6.77,5.867,14.272,6.2,15.776a.538.538,0,0,1-.781.576c-1.084-.859-13.989-10.9-21.1-8.245-8.765,3.279-4.111,14.1,3.1,17.341,5.493,2.468,12.971,2.158,24.126,4.585C394.46,133.08,398.11,136.083,401.55,141.92Z" transform="translate(-344.011 -46.148)"/>
        <path id="Path_1237" data-name="Path 1237" d="M404.765,88.348a37.108,37.108,0,0,0-2.087,4.136c-1.169,2.7-1.423,6.274-1.3,10.124l1.819,29.1c4.834,10.583,7.131,15.7,8.435,18.081,1.846,3.394,5.552,7.959,7.971,8.064.608.027.7.676.088.955l-16.777,7.644c-.772.464-1.018-.042-.745-.686,1.077-2.522-.352-8.586-1.382-11.453-.972-2.7-3.511-8.176-8.423-18.916,0,0-18.589-16.518-19.426-17.3-4.16-3.862-10.713-9.194-12.859-9.031-.8.059-1.78-.479-.51-1.057l8.327-3.547,9.377-4.529a1.917,1.917,0,0,1,.459-.129c.305,0,.737.242.186.881-2.165,2.5,2.046,7.627,5.078,10.391L398.94,127c.354.364.735.588.676-.283l-1.763-22.248c-.51-3.7-1.4-7.036-3.635-9.026a5.729,5.729,0,0,0-2.522-1.226c-.259.012-.813-.273-.322-.715.1-.083,5.142-2.214,5.4-2.329l7.559-3.589C405,87.269,405.451,87.994,404.765,88.348Z" transform="translate(-322.459 -63.757)"/>
        <path id="Path_1238" data-name="Path 1238" d="M465.726,148.09c-3.02.649-16.594,3.872-18.855,4.473-.847.161-.862-.352-.649-.823,2-4.4,1.011-9.758-.2-15.452-1.1-5.166-9.221-37.334-9.221-37.334s-.737-3.079-1.289-5.229c-.054-.23-.408-.247-.432-.015-.359,4.358-2.605,48.173-3.96,65.6a.517.517,0,0,1-.955.234c-5.044-8.144-32.419-52.5-35.036-56.1a.221.221,0,0,0-.376.208c.488,2.165,1.226,5.247,1.226,5.247s8.4,34.814,9.8,39.209c2.734,8.562,4.853,10.549,6.858,11.875.432.288.715.625-.117.867-3.149.728-11.584,2.93-11.909,3.02-.65.176-.554-.518-.254-1.05,2.414-4.4,1.206-10.676.811-14.1-.386-3.311-9.082-39.763-10.583-43.96-2.29-6.4-6.335-9.238-7.087-9.336a.579.579,0,0,1-.12-1.064c.71-.173,16.723-4.014,16.723-4.014a1.293,1.293,0,0,1,1.367.51s16.592,27.063,26.9,43.537a.4.4,0,0,0,.742-.186c1.228-15.122,1.777-42.429,2.187-50.51a1.2,1.2,0,0,1,.991-1.072l16.467-3.953a.542.542,0,0,1,.332.955c-1.875,1.88-1.665,7.1-.525,13.323.793,4.336,8.911,37.38,9.861,40.581,1.741,5.869,3.052,10.935,7.241,13.442C466.212,147.272,466.38,147.951,465.726,148.09Z" transform="translate(-287.7 -76.495)"/>
        <path id="Path_1239" data-name="Path 1239" d="M460.764,143.443c-3.857,3.245-8.547,5.42-17.431,5.857l-3.821.139c-3.933.1-11.035.474-17.844.686-.874-.007-1.306-.483-.276-1.316,1.492-1.645,2.051-9.2,1.946-17.261-.081-9.539-.518-18.5-1.646-32.917-.283-3.508-.7-7.771-1.2-11.2-1.2-7.869-3.213-7.117-3.1-8.066.059-.457-.012-.342,4.448-.574,5.366-.31,10.1-1.2,15.41-.977.037,0,.076.037.115.037a39.412,39.412,0,0,1,5.508.481A20.637,20.637,0,0,1,457.234,87c3.52,5.178,4.392,14.646-1.694,20.014-1.726,1.506-5.146,3.1-8.779,4.294.042.037.042.037.076.037,5.405.752,11.724,3.774,15.352,8.833C466.5,126.16,466.863,138.262,460.764,143.443Zm-26.611-33.259a.677.677,0,0,0,.706.654c3.591-.168,7.034-1.355,8.308-2.686a14.21,14.21,0,0,0,3.879-6.768,18.557,18.557,0,0,0-.735-13.035,15.012,15.012,0,0,0-6.54-6.953,8.132,8.132,0,0,0-4.011-1.067c-.078,0-.151.044-.225.046a2.185,2.185,0,0,0-1.272.5,2.448,2.448,0,0,0-.808,1.655C433.174,85.228,433.577,96.346,434.153,110.184Zm17.107,11.265a14.98,14.98,0,0,0-6.528-6.687,14.7,14.7,0,0,0-5.918-1.34c-.073,0-.115-.034-.188-.032l-3.63.134a.654.654,0,0,0-.659.7c.43,10.735,1.011,23.662,1.145,26.308.176,2.759.356,4.534,3.24,5.864,3.826,1,6.921-.706,9.062-2.664a17.417,17.417,0,0,0,4.033-7.053A24.236,24.236,0,0,0,451.26,121.448Z" transform="translate(-238.246 -77.777)"/>
        <path id="Path_1240" data-name="Path 1240" d="M488.723,120.082c-2.188,14.419-9.382,26.44-19.856,29.765-5.828,1.811-15.049,1.462-21.714-5.122-7.336-7.3-10.012-19.673-7.424-34.265,3.752-21.223,16.047-34.438,31.452-31.357C485.732,82.006,491.833,99.709,488.723,120.082Zm-12.8-4.739c.173-3.584.181-7.075.085-10.325-.522-13.45-3.467-23.327-10.759-23.557-8.086-.286-12.349,14.587-12.673,33.064-.3,18.594,2.571,33.113,10.039,33.767C471.289,149.061,475.183,133.81,475.922,115.343Z" transform="translate(-207.433 -76.506)"/>
        <path id="Path_1241" data-name="Path 1241" d="M500.181,144.083a94.628,94.628,0,0,0-8.538,17.444c-.12.364-.444.627-1.25.012-1.523-1.169-10.979-4.663-10.979-4.663s-17.793-6.714-22.278-8.415c-.808-.361-.542-.947-.081-1.206,2.219-1.216,4.831-5.9,7.573-12.537,1.892-4.585,4.4-10.9,11.184-29.436.007,0,2.4-6.311,3.027-8.074,1.57-4.468,4.187-12.654,3.059-14.241-.359-.505-.2-1.338.444-1.1,0,0,6.831,2.7,14.985,5.8.8.352.5.886.071,1.179-1.892,1.291-3.94,4.309-6.123,9.482-1,2.349-1.838,4.517-4.348,11.011-3.376,9.048-13.152,35.378-14.05,37.954-.649,1.877-.478,3.408.82,4.265,1.523,1.008,3.843,1.7,8.491.464,6.467-1.719,13.411-7.2,17.143-9.719.525-.352,1.133-.723,1.536-.62.251.063.522.315.359.82A12.27,12.27,0,0,1,500.181,144.083Z" transform="translate(-181.7 -71.938)"/>
        <path id="Path_1242" data-name="Path 1242" d="M487.513,159.592c.007.527-.068,1.047-.847.654-.791-.447-1.58-.894-2.39-1.306-4.089-2.3-7.734-4.311-9.863-5.469L472.5,152.4c-.6-.337-.242-.962.356-1.1,2.075-.442,5.232-3.655,10.527-12.444.315-.562.889-1.5,1.614-2.786,3.091-5.334,9.307-16.3,15.058-26.741.706-1.252,1.211-2.227,1.528-2.786,4.768-9.087,5.881-13.452,5.2-15.486-.212-.554.142-1.182.735-.847l1.914,1.079c2.09,1.221,5.7,3.3,9.785,5.6l2.375,1.338c.742.461.334.8-.12,1.062-2.932,1.738-5.859,6.47-9.141,11.836-.7,1.167-1.477,2.466-2.258,3.853-7.3,12.737-15.217,26.87-16.924,30.207l-.281.5C489.972,151.294,487.477,156.187,487.513,159.592Z" transform="translate(-159.249 -59.994)"/>
        <path id="Path_1243" data-name="Path 1243" d="M517.176,180s-3.94-2.646-10.122-6.843c-1.731-1.172-3.472-2.612-2.7-5.266l7.854-31.255a.378.378,0,0,0-.5-.452c-.627.244-1.323.513-1.98.769a2.473,2.473,0,0,0-1.169.937c-5.759,8.513-7.341,10.715-9,13.33-2.073,3.269-5.347,9.167-5.159,12.317.037.605-.469.723-1.03.347,0,0-5.422-3.672-12.5-8.472-.684-.513-.439-.957.037-1.147,2.112-.83,5.806-5.1,9.35-10.122,3.467-4.917,20.349-29.494,22.641-33.366,3.643-6.15,6.738-12.456,6.267-14.011-.176-.583.33-1.182.889-.8,0,0,6.4,4.329,13.469,9.123.686.515.2.908-.288,1.06-2.788.886-6.37,5.417-9.927,10.115-1.174,1.555-4.6,6.731-10.681,15.644a.379.379,0,0,0,.459.562c5.432-2.28,18.269-8.376,21.12-9.932,4.875-2.668,8.872-7.91,7.942-10.1-.342-.806.349-1.267.984-.837,0,0,6.992,4.983,11.562,8.057.823.561.689,1.445-.312,1.24-4.817-1.006-12.126,1.653-17.361,4.089-.742.349-6.675,3.193-11.169,5.82a1.277,1.277,0,0,0-.679.786c-3.24,14.6-5.874,25.21-7.361,33.139-1.143,6.143-1.792,9.712.334,14.538C518.5,180.078,517.772,180.544,517.176,180Z" transform="translate(-147.35 -51.74)"/>
        <path id="Path_1244" data-name="Path 1244" d="M534.646,191.461s-3.989-2.568-10.254-6.643c-1.753-1.138-3.52-2.541-2.8-5.212l7.234-31.4a.377.377,0,0,0-.51-.442l-1.963.808a2.482,2.482,0,0,0-1.152.962c-5.591,8.621-7.127,10.854-8.73,13.5-2.009,3.311-5.166,9.272-4.915,12.417.051.605-.457.732-1.023.364,0,0-5.5-3.564-12.659-8.22-.7-.5-.461-.947.012-1.147,2.1-.872,5.7-5.21,9.148-10.305,3.367-4.98,19.763-29.885,21.98-33.8,3.521-6.223,6.489-12.585,5.991-14.133-.19-.576.305-1.187.872-.818,0,0,6.484,4.2,13.645,8.857.7.5.217.9-.271,1.067-2.766.935-6.257,5.54-9.719,10.3-1.15,1.58-4.463,6.819-10.371,15.852a.377.377,0,0,0,.466.552c5.388-2.388,18.1-8.73,20.923-10.344,4.822-2.761,8.711-8.081,7.737-10.256-.356-.8.327-1.272.972-.854,0,0,7.085,4.844,11.711,7.827.84.544.72,1.433-.283,1.248-4.836-.913-12.09,1.892-17.275,4.429-.737.364-6.606,3.323-11.052,6.038a1.281,1.281,0,0,0-.662.8c-2.952,14.653-5.376,25.32-6.7,33.276-1.026,6.162-1.606,9.746.615,14.526C535.976,191.512,535.254,191.991,534.646,191.461Z" transform="translate(-122.869 -35.26)"/>
      </g>
    </g>
    <g id="Group_117" data-name="Group 117" transform="translate(347.483 47.043)">
      <g id="Group_116" data-name="Group 116">
        <path id="Path_1245" data-name="Path 1245" d="M378.042,96.117c.112.154.007.3-.142.41l-8.066,5.894a.248.248,0,0,1-.383-.3s.754-2.075-3.555-5.342l-3.33-2.373a.452.452,0,0,0-.527.012l-6.033,4.314a.676.676,0,0,0-.244.789l1.406,3.682c2.078,4.739,4.2,4.917,4.285,4.9.22-.022.293.139.247.242a2.113,2.113,0,0,1-.31.249l-4.5,3.293c-.32.234-.566-.007-.4-.388.11-.266.881-1.812-1.457-8.535-.408-1.135-.378-1.157-9.582-27.37a.3.3,0,0,1,.442-.325s19.446,13.525,20.539,14.25c1.741,1.162,9.17,6.841,11.213,6.494C377.94,95.909,378.044,96.117,378.042,96.117Zm-17.163-3.032L351.167,85.8c-.273-.249-.562-.388-.317.232l4.106,11.36a.287.287,0,0,0,.432.1l5.481-3.911A.311.311,0,0,0,360.879,93.084Z" transform="translate(-345.433 -6.425)"/>
        <path id="Path_1246" data-name="Path 1246" d="M372.243,66.558c-.747,1.775,1.133,5.71,3.084,9.106.413.7,3.845,6.389,3.845,6.389s9.6,15.349,9.9,15.8c.342.479.2.72-.505.4-.679-.378-25.2-12.693-28.491-14.37a.111.111,0,0,0-.147.156c.562.945,1.4,2.295,1.4,2.295s6.477,10.742,7.812,12.6c1.916,2.664,4.143,6.113,6.221,6.162.251-.022.581.33.222.574-1.96,1.147-2.549,1.492-5.232,3.264-.273.168-.452-.12-.335-.393.815-1.953-1.111-5.564-2.776-8.54-.813-1.455-9.783-16.037-11.12-17.837a7.049,7.049,0,0,0-4.375-2.966c-.215.046-.454-.227-.266-.43l.522-.3c.339-.21.852-.53,1.357-.864,2.209-1.392,3.376-2.092,3.376-2.092a.654.654,0,0,1,.725.017s13.093,5.977,21.853,10.806c.107.068.217-.042.149-.156,0,0-5.757-9.141-6.064-9.641-1.943-3.027-4.851-6.787-6.57-6.721-.305.01-.405-.33-.115-.508,0,0,2.976-1.846,5.032-3.123C372.153,65.948,372.382,66.251,372.243,66.558Z" transform="translate(-336.81 -19.569)"/>
        <path id="Path_1247" data-name="Path 1247" d="M394.617,88.354c.085.168-.037.3-.207.383l-8.877,4.585a.251.251,0,0,1-.337-.361s1.065-1.934-2.69-5.83l-2.925-2.859a.457.457,0,0,0-.525-.068l-6.628,3.337a.67.67,0,0,0-.361.74l.82,3.857c1.326,5,3.4,5.508,3.481,5.508.222.015.264.183.208.278a2.611,2.611,0,0,1-.347.2l-4.958,2.556c-.354.186-.562-.093-.337-.439.151-.251,1.147-1.66-.129-8.667-.225-1.182-.193-1.2-5.251-28.537a.294.294,0,0,1,.486-.249s17.143,16.369,18.11,17.253c1.541,1.418,8.01,8.176,10.085,8.149C394.548,88.135,394.617,88.354,394.617,88.354Zm-16.5-5.647-8.474-8.7c-.234-.286-.5-.469-.356.183L371.6,86.05a.283.283,0,0,0,.408.176l6.02-3.025A.312.312,0,0,0,378.115,82.707Z" transform="translate(-316.437 -24.454)"/>
        <path id="Path_1248" data-name="Path 1248" d="M400.4,77.776a47.667,47.667,0,0,0,2.966,9.248c.083.171.059.378-.447.437a48.647,48.647,0,0,0-5.574,2.122s-8.74,3.743-10.947,4.683c-.415.149-.525-.154-.449-.405.381-1.206-.3-3.8-1.611-7.144-.906-2.307-2.188-5.454-6.165-14.487,0,0-1.318-3.11-1.7-3.962-.986-2.153-2.878-6.008-3.835-6.194-.3-.056-.535-.415-.217-.547,0,0,3.4-1.4,7.41-3.1.413-.151.488.144.435.4-.232,1.123.073,2.92,1.079,5.542.454,1.191.9,2.268,2.251,5.476,1.914,4.434,7.512,17.314,8.081,18.555.413.9,1.006,1.394,1.775,1.252.9-.164,1.97-.72,3.22-2.773,1.736-2.861,2.339-7.244,2.812-9.443.071-.312.159-.654.342-.757.11-.066.3-.068.413.171A6.151,6.151,0,0,1,400.4,77.776Z" transform="translate(-306.755 -30.7)"/>
        <path id="Path_1249" data-name="Path 1249" d="M402.128,53.949a18.03,18.03,0,0,0-1.213,1.978,12.173,12.173,0,0,0-1.06,5L399.567,75.5c1.97,5.474,2.908,8.118,3.46,9.358.779,1.772,2.439,4.2,3.642,4.348.3.039.322.366,0,.481,0,0-4.658,1.677-8.679,3.123-.405.2-.505-.063-.342-.374.637-1.213.178-4.3-.217-5.767-.376-1.387-1.414-4.219-3.425-9.775,0,0-8.584-9-8.97-9.424-1.919-2.095-4.963-5.022-6.04-5.029-.4,0-.869-.31-.21-.547l4.3-1.428,4.861-1.873a1.064,1.064,0,0,1,.234-.044c.149.015.357.149.054.444-1.179,1.157.708,3.889,2.1,5.388l7.295,8.6c.159.193.339.322.347-.115l.037-11.162c-.1-1.87-.408-3.567-1.443-4.651a2.851,2.851,0,0,0-1.206-.713c-.129,0-.393-.171-.132-.371.051-.037,2.656-.894,2.786-.94l3.916-1.477C402.289,53.419,402.482,53.8,402.128,53.949Z" transform="translate(-297.827 -37.704)"/>
        <path id="Path_1250" data-name="Path 1250" d="M415.268,76.5c1.123,4.644-1.335,8.511-5.437,10.42-4.746,2.117-10.8,1.753-11.824,1.716-.454-.017-.476-.273-.471-.688a91.7,91.7,0,0,0-1.067-11.191c-.054-.308.325-.613.62-.164,1.313,2,5.84,10.635,10.5,9.348,3.313-.916,3.1-4.453,1.75-6.711-2.278-3.821-8.359-5.747-13.208-8.662-3.235-1.946-5.127-3.928-5.74-7.456-.911-5.249,2.261-9.951,8.132-11.145a20.352,20.352,0,0,1,7.957-.181c.076.01.176.168.183.437.064,3.557.735,7.678.674,8.447a.265.265,0,0,1-.454.161c-.4-.566-5.11-7.246-8.9-7.007-4.668.3-4.014,6.15-1.033,8.745,2.268,1.98,5.894,2.917,10.876,5.7C413.161,71.24,414.47,73.21,415.268,76.5Z" transform="translate(-280.851 -40.648)"/>
        <path id="Path_1251" data-name="Path 1251" d="M424.257,74.111a84.2,84.2,0,0,0,.877,9.856c.037.186.034.266-.452.361-2.224.439-8.574,1.685-8.613,1.692-3.1.71-5.054,1.064-7.656,1.56l0,.017-1.338.266a.662.662,0,0,1-.269,0c-.449.068-.605-.327-.227-.749.913-2.59-.129-7.361-.823-11.333-.552-3.166-2-9.978-2-9.978-.1-.5-.2-.986-.31-1.465l-.064-.315a54.447,54.447,0,0,0-1.887-7.073c-.078-.2-.132-.378-.208-.557a.239.239,0,0,1-.039-.107,7.258,7.258,0,0,0-1.86-2.854.411.411,0,0,1-.076-.2.058.058,0,0,1,.007-.059c0-.173.159-.168,2.046-.579l.093-.02a1.928,1.928,0,0,0,.31-.081c2.644-.583,5.01-1,7.461-1.484,1.465-.288,3.809-.737,6.025-1.331.713-.2,1.221-.356,1.6-.491.344-.127.574-.229.732-.3a1.081,1.081,0,0,1,.525-.181c.293.022.31.981.686,2.39.757,2.839,1.074,4.145,1.665,6.152.2.618.388,1.272.554,1.914.051.164.037.281-.027.337a.208.208,0,0,1-.09.034c-.715.085-2.69-3.054-5.393-5-3.7-2.681-7.063-2.437-7.617-1.921a1.037,1.037,0,0,0-.266.884c.059,1.184,1.072,6.365,2.327,12.6a.527.527,0,0,0,.391.425c.659.2,1.973-.371,2.9-1.135.261-.227.493-.427.706-.623a6.31,6.31,0,0,0,1.863-3.052c.044-.356.469-.557.6.1l.007.037a63.031,63.031,0,0,0,1.716,6.987c.022.017.027.037.012.056.515,1.633.906,2.715.906,2.715.081.217.042.513-.1.579-.1.076-.266.034-.474-.237a11.409,11.409,0,0,0-2.766-2.38c-.024-.015-.027-.034-.042-.01a8.317,8.317,0,0,0-3.9-1.37c-.832-.007-1.343.344-1.191,1.089,1.308,6.606,2.014,9.863,2.38,11.411a8.171,8.171,0,0,0,.237.8c.171.754.305,1.345.378,1.7.225.957.679,1.675,1.428,1.76.017,0,.039.012.078,0a5.22,5.22,0,0,0,3.645-2.134c2.915-3.877,4.336-10.024,5.39-10.156C424.328,72.631,424.208,73.388,424.257,74.111Z" transform="translate(-267.774 -44.641)"/>
        <path id="Path_1252" data-name="Path 1252" d="M437.344,84.615c-2.588-.5-7.434-3.618-9.006-5.337-3.191-3.049-5.452-6.975-7.588-11.348a.765.765,0,0,0-.269-.349c-.12-.063-.723-.041-.784.081a.462.462,0,0,0-.039.332c.647,5.254,1.145,9.726,1.409,11.028.344,1.655,1.152,3.542,2.217,4.163.3.078.234.391-.1.432,0,0-4.7.483-8.948.977-.434.032-.491-.269-.2-.547.749-.771,1.143-2.8,1.042-4.311-.188-2.622-1-10.488-2.427-21.323a35.725,35.725,0,0,0-.937-4.311,11.369,11.369,0,0,0-1.626-3.867c-.312-.361-.549-.62-.569-.791-.12-.366,1.1-.186,3.6-.664a34.7,34.7,0,0,1,6.377-.83l.054,0a23.29,23.29,0,0,1,2.766.017,11.624,11.624,0,0,1,3.081.637,9.918,9.918,0,0,1,4.416,3.142,7.689,7.689,0,0,1,1.257,2.48,13.578,13.578,0,0,1,.684,4.092,7.618,7.618,0,0,1-1.694,5.43,7.043,7.043,0,0,1-2.669,1.956.325.325,0,0,0-.234.493c.552,2.458,5.869,13,11.1,18.223C438.321,84.485,438.323,84.808,437.344,84.615Zm-11.858-23.5a15.6,15.6,0,0,0-.706-7.419,4.747,4.747,0,0,0-.369-.872,7.766,7.766,0,0,0-3.528-3.191,4.133,4.133,0,0,0-2.061-.371l-.112.012a1.248,1.248,0,0,0-.593.317,1.137,1.137,0,0,0-.337.857c-.036,1.338.767,8.459,1.6,15.329a.55.55,0,0,0,.647.481,6.67,6.67,0,0,0,3.787-1.638,6.551,6.551,0,0,0,1.609-3.232C425.452,61.3,425.459,61.2,425.486,61.111Z" transform="translate(-253.072 -45.795)"/>
        <path id="Path_1253" data-name="Path 1253" d="M438.493,59.8l-12.788.168a.311.311,0,0,1-.312-.42l.767-2.927a.6.6,0,0,1,.537-.432l12.79-.168a.31.31,0,0,1,.31.422l-.764,2.925A.6.6,0,0,1,438.493,59.8Z" transform="translate(-230.202 -34.103)"/>
        <path id="Path_1254" data-name="Path 1254" d="M460.935,59.814c0,.19-.312.544-.632-.166-.3-.674-2.842-5.637-3.826-7.012-1.172-1.658-1.936-2.483-2.9-2.566a.151.151,0,0,0-.076.015.405.405,0,0,0-.193.039.035.035,0,0,0-.042,0,.681.681,0,0,0-.22.171,1.391,1.391,0,0,0-.278.583c-.183.784-1.345,14.3-2.017,22.6-.186,2.434-.334,4.17-.386,5a12.461,12.461,0,0,0,.264,3.591c0,.02.017.022.015.042a3.028,3.028,0,0,0,.972,1.79c.2.132.142.3-.051.359a.724.724,0,0,1-.212.02s-1.655-.161-3.882-.369l-.356-.029c-1.453-.125-3.11-.286-4.714-.42-.43-.059-.366-.337-.147-.469a3.562,3.562,0,0,0,1.323-1.941c.02-.015.039-.032.022-.054a15.848,15.848,0,0,0,.713-3.242c.161-1.223.3-2.332.5-4.46l.015,0c.4-4.695.935-11.47,1.643-19.765.271-3.186.124-4.148-.916-4.219-.94-.078-1.936.652-3.369,2.087-1.2,1.189-4.543,5.654-4.954,6.265-.437.647-.706.244-.652.059.169-.652.354-1.716.481-2.332.332-1.624.959-6.13,1.3-7.869.1-.447.273-.527.61-.459a34.489,34.489,0,0,0,4.111.806c1.855.271,7.1.679,10.269.947l.283.027c1.074.09,1.982.129,2.571.144a31.718,31.718,0,0,0,4.185-.083c.344-.027.505.1.522.557.019,1.77-.1,6.316-.051,7.974C460.879,58.061,460.879,59.145,460.935,59.814Z" transform="translate(-214.07 -47.043)"/>
        <path id="Path_1255" data-name="Path 1255" d="M471.914,70.289c-1.548,7.124-5.52,12.893-10.852,14.221a11.074,11.074,0,0,1-10.671-3.245c-3.43-3.872-4.372-10.132-2.617-17.331,2.544-10.471,9.1-16.675,16.687-14.648C471.625,51.2,474.111,60.223,471.914,70.289Zm-6.238-2.771c.2-1.782.315-3.523.369-5.149.168-6.726-.989-11.75-4.617-12.092-4.028-.4-6.626,6.885-7.373,16.094-.74,9.265.232,16.6,3.938,17.168C462.294,84.192,464.721,76.707,465.676,67.518Z" transform="translate(-199.167 -44.362)"/>
        <path id="Path_1256" data-name="Path 1256" d="M477.435,81.366a47.32,47.32,0,0,0-3.94,8.879c-.051.183-.208.322-.625.027a48.674,48.674,0,0,0-5.571-2.124s-9.016-3.02-11.291-3.784c-.41-.166-.288-.464-.061-.6,1.084-.649,2.3-3.037,3.547-6.409.859-2.324,1.995-5.527,5.034-14.917,0,0,1.084-3.2,1.362-4.092.7-2.261,1.856-6.4,1.26-7.173-.188-.247-.122-.667.2-.557,0,0,3.464,1.218,7.6,2.617.408.159.264.43.054.588-.92.679-1.885,2.224-2.881,4.851-.452,1.194-.833,2.295-1.965,5.586-1.518,4.585-5.908,17.925-6.309,19.228-.288.95-.173,1.711.491,2.117.779.476,1.953.776,4.253.071,3.2-.981,6.567-3.85,8.384-5.176.256-.19.549-.386.754-.339.127.024.269.144.2.4A5.953,5.953,0,0,1,477.435,81.366Z" transform="translate(-186.443 -41.921)"/>
        <path id="Path_1257" data-name="Path 1257" d="M484,95.855s-2.141-1.018-5.505-2.644c-.94-.454-1.907-1.038-1.719-2.407l1.6-16.028a.189.189,0,0,0-.283-.186c-.293.164-.615.349-.923.522a1.246,1.246,0,0,0-.51.549c-2.227,4.631-2.847,5.835-3.477,7.248-.784,1.768-1.975,4.922-1.65,6.467.064.3-.178.391-.483.244,0,0-2.952-1.418-6.8-3.274-.376-.2-.288-.442-.066-.569.984-.566,2.5-2.944,3.884-5.688,1.355-2.683,7.91-16.072,8.76-18.152,1.352-3.308,2.419-6.653,2.075-7.388-.129-.273.078-.605.381-.461,0,0,3.482,1.675,7.327,3.528.376.205.164.435-.064.547-1.316.64-2.756,3.142-4.17,5.725-.471.854-1.785,3.665-4.141,8.516a.188.188,0,0,0,.266.244c2.519-1.523,8.423-5.476,9.719-6.453,2.217-1.672,3.809-4.558,3.189-5.574-.227-.371.083-.654.427-.486,0,0,3.821,1.951,6.3,3.14.449.217.444.664-.063.637-2.456-.146-5.874,1.7-8.284,3.289-.344.227-3.069,2.065-5.1,3.694a.62.62,0,0,0-.278.437c-.537,7.451-1.067,12.9-1.221,16.921-.117,3.123-.178,4.936,1.223,7.165C484.66,95.8,484.333,96.08,484,95.855Z" transform="translate(-174.536 -36.936)"/>
        <path id="Path_1258" data-name="Path 1258" d="M511.29,71.923c-1.919.139-4.573,3.6-6.719,6.88-.437.686-3.945,6.328-3.945,6.328s-9.324,15.52-9.592,16c-.273.52-.552.505-.591-.269.029-.779-.122-28.222-.117-31.914a.113.113,0,0,0-.208-.061c-.583.93-1.409,2.29-1.409,2.29s-6.633,10.644-7.693,12.683c-1.5,2.915-3.569,6.465-2.666,8.34.132.215-.029.667-.413.459-1.912-1.226-2.485-1.6-5.283-3.184-.276-.168-.1-.459.2-.474,2.109-.161,4.456-3.518,6.348-6.35.93-1.384,9.858-16,10.852-18.005a7.013,7.013,0,0,0,.659-5.244c-.139-.171,0-.51.266-.435l.508.33c.339.205.857.518,1.384.815,2.243,1.338,3.4,2.061,3.4,2.061a.654.654,0,0,1,.312.657s.618,14.38.283,24.377a.109.109,0,0,0,.208.061s5.539-9.277,5.842-9.778c1.814-3.105,3.848-7.4,3.01-8.906-.146-.266.11-.51.4-.334l5.066,3.071C511.8,71.566,511.63,71.911,511.29,71.923Z" transform="translate(-162.256 -29.873)"/>
        <path id="Path_1259" data-name="Path 1259" d="M489.176,98.973c-.015.264-.071.52-.444.293-.381-.249-.757-.5-1.145-.735-1.953-1.3-3.7-2.439-4.717-3.093l-.916-.608c-.283-.188-.085-.486.22-.535,1.05-.142,2.744-1.631,5.71-5.82.178-.266.5-.713.906-1.328,1.741-2.549,5.247-7.786,8.5-12.781.4-.6.689-1.064.864-1.335,2.712-4.353,3.43-6.492,3.167-7.532-.083-.283.115-.581.4-.393l.916.608c1,.684,2.72,1.855,4.675,3.152l1.135.757c.352.256.137.41-.1.525-1.526.757-3.162,3.01-5,5.564-.393.557-.828,1.177-1.269,1.841-4.111,6.082-8.582,12.839-9.556,14.441l-.156.234C490.709,94.925,489.286,97.271,489.176,98.973Z" transform="translate(-148.85 -21.093)"/>
        <path id="Path_1260" data-name="Path 1260" d="M525.373,81.878c-1.926.027-4.775,3.323-7.109,6.472-.476.659-4.311,6.081-4.311,6.081s-10.22,14.944-10.515,15.405c-.3.5-.581.476-.574-.3.078-.774,1.541-28.176,1.763-31.86a.114.114,0,0,0-.205-.073c-.64.894-1.543,2.2-1.543,2.2s-7.249,10.237-8.423,12.207c-1.672,2.822-3.94,6.243-3.154,8.166.125.222-.066.666-.437.435-1.836-1.338-2.383-1.741-5.085-3.489-.266-.181-.071-.461.23-.461,2.112-.037,4.651-3.247,6.711-5.967,1.006-1.326,10.776-15.383,11.89-17.329a7.039,7.039,0,0,0,.967-5.193c-.129-.181.027-.51.288-.422l.488.359c.327.227.825.571,1.333.9,2.161,1.465,3.271,2.251,3.271,2.251a.658.658,0,0,1,.271.674s-.229,14.387-1.152,24.35a.11.11,0,0,0,.205.071s6.074-8.933,6.406-9.416c1.995-2.991,4.275-7.161,3.53-8.711-.134-.273.137-.5.417-.31l4.876,3.364C525.9,81.551,525.715,81.883,525.373,81.878Z" transform="translate(-143.322 -17.218)"/>
        <path id="Path_1261" data-name="Path 1261" d="M516.145,103.225a81.638,81.638,0,0,0-5.718,9.04c-.173.361-.408.774-.693.015-.52-1.4-2.136-2.214-4.436-2.9a11.146,11.146,0,0,1-3.318-1.614c-4.182-3.179-5.4-6.257-5.53-9.219-.337-7.844,6.753-16.221,11.765-19.678,4.319-2.981,9.492-4.109,13.227-1.936.151.081.293.176.437.271a12.931,12.931,0,0,1,1.567,1.123c.049.032.078.054.083.081a20.827,20.827,0,0,1,4.258,5.1.062.062,0,0,0,.037.044c.015.012,0,.029.019.042.044.071,0,.244-.215.425l-.339.3-.01.017a3.1,3.1,0,0,0-.332.322c-1.084,1-1.616,1.558-2.217,2.18-.51.522-.989,1.023-1.394,1.458a18.7,18.7,0,0,1-1.58,1.6.274.274,0,0,1-.432-.242c.024-.1.1-.388.227-.808l.01-.017c.31-1.2,2.961-9.172-1.052-10.915-2.71-1.179-6.706,2.346-8.147,3.977a41.415,41.415,0,0,0-8.709,14.575c-1.074,3.02-2.344,9.348.305,10.9,2.017,1.177,5.029-3.911,7.168-7.195l-.017-.012c.413-.613.706-1.077.9-1.36.947-1.479,2.241-4.216,2.114-5.144-.042-.278.12-.652.4-.461,0,0,3.223,2.258,6.743,4.626.347.259.076.393-.166.481a9.743,9.743,0,0,0-4.143,3.784C516.758,102.382,516.477,102.763,516.145,103.225Z" transform="translate(-127.775 -5.587)"/>
        <path id="Path_1262" data-name="Path 1262" d="M526.048,111.914a83.942,83.942,0,0,0-6.055,7.83c-.1.161-.156.215-.576-.042-1.934-1.191-7.436-4.595-7.468-4.614-2.756-1.584-4.431-2.656-6.68-4.06l-.01.015-1.157-.713a.61.61,0,0,1-.2-.186c-.374-.254-.22-.649.344-.7,2.432-1.282,4.907-5.491,7.1-8.872,1.75-2.7,5.315-8.684,5.315-8.684.266-.437.527-.854.769-1.284l.168-.273a54.9,54.9,0,0,0,3.42-6.47c.078-.2.159-.369.225-.552a.338.338,0,0,1,.046-.1,7.286,7.286,0,0,0,.574-3.357.414.414,0,0,1,.076-.2.075.075,0,0,1,.049-.039c.12-.125.227-.012,1.892.964l.078.051a1.612,1.612,0,0,0,.288.149c2.334,1.372,4.353,2.678,6.479,3.984,1.272.781,3.291,2.048,5.325,3.118.659.339,1.138.569,1.509.728.332.139.574.22.737.278a1.092,1.092,0,0,1,.508.22c.2.215-.435.93-1.118,2.224-1.377,2.6-2.034,3.772-2.959,5.642-.276.588-.583,1.2-.9,1.785-.073.154-.164.229-.249.222a.174.174,0,0,1-.09-.032c-.583-.427.1-4.067-.554-7.336-.891-4.48-3.528-6.587-4.282-6.584a1.033,1.033,0,0,0-.8.461c-.762.911-3.542,5.4-6.855,10.828a.53.53,0,0,0,0,.576c.349.591,1.7,1.064,2.9,1.138.347.015.652.022.942.022a6.285,6.285,0,0,0,3.438-.972c.276-.232.723-.09.376.474l-.019.032a63.837,63.837,0,0,0-3.489,6.3c.007.027,0,.041-.032.049-.73,1.548-1.179,2.6-1.179,2.6-.088.212-.315.405-.466.359-.125-.01-.215-.154-.186-.493a11.348,11.348,0,0,0-.413-3.628c0-.027,0-.041-.019-.039a8.308,8.308,0,0,0-1.934-3.65c-.6-.571-1.218-.659-1.614-.015-3.525,5.74-5.222,8.608-6.006,9.99a7.4,7.4,0,0,0-.371.749c-.391.669-.691,1.2-.879,1.5-.483.859-.64,1.694-.146,2.266.017.01.022.037.054.054a5.209,5.209,0,0,0,4.124.916c4.775-.862,9.995-4.407,10.857-3.787C527.108,110.876,526.5,111.352,526.048,111.914Z" transform="translate(-117.312 -0.162)"/>
        <path id="Path_1263" data-name="Path 1263" d="M531.667,129.15c-1.855-1.875-4.1-7.187-4.426-9.492-.913-4.319-.566-8.835.139-13.652a.785.785,0,0,0-.027-.442c-.061-.117-.571-.439-.691-.376-.1.034-.164.151-.22.254-2.434,4.7-4.546,8.677-5.063,9.9-.649,1.562-1.045,3.577-.518,4.687.2.234-.027.459-.329.3,0,0-4.155-2.253-7.942-4.243-.376-.22-.251-.5.149-.562,1.052-.215,2.522-1.667,3.293-2.971,1.323-2.273,5.09-9.228,10.032-18.982a36.335,36.335,0,0,0,1.66-4.087,11.34,11.34,0,0,0,.835-4.111,2.408,2.408,0,0,1-.019-.977c.107-.369,1.016.471,3.345,1.484a34.369,34.369,0,0,1,5.735,2.913l.051.027a22.87,22.87,0,0,1,2.271,1.577,11.5,11.5,0,0,1,2.185,2.261A9.964,9.964,0,0,1,544,97.749a7.728,7.728,0,0,1-.364,2.759,13.522,13.522,0,0,1-1.745,3.765,7.623,7.623,0,0,1-4.463,3.528,7.076,7.076,0,0,1-3.306.107.327.327,0,0,0-.474.276c-.935,2.344-2.49,14.045-1.121,21.311C532.544,129.59,532.363,129.861,531.667,129.15Zm3.472-26.1a15.6,15.6,0,0,0,3.6-6.526,4.662,4.662,0,0,0,.19-.928,7.8,7.8,0,0,0-1.116-4.624,4.181,4.181,0,0,0-1.489-1.472l-.1-.051a1.186,1.186,0,0,0-.667-.071,1.122,1.122,0,0,0-.766.515c-.781,1.084-4.136,7.419-7.324,13.562a.549.549,0,0,0,.259.762,6.68,6.68,0,0,0,4.055.786,6.547,6.547,0,0,0,3.152-1.765C535,103.189,535.061,103.113,535.139,103.047Z" transform="translate(-104.821 6.671)"/>
      </g>
    </g>
  </g>
</svg>
