<?xml version="1.0" encoding="utf-8"?>
<!-- Generator: Adobe Illustrator 23.0.1, SVG Export Plug-In . SVG Version: 6.00 Build 0)  -->
<svg version="1.1" id="Layer_1" xmlns="http://www.w3.org/2000/svg" xmlns:xlink="http://www.w3.org/1999/xlink" x="0px" y="0px"
	 viewBox="0 0 1044.95 889.05" style="enable-background:new 0 0 1044.95 889.05;" xml:space="preserve">
<g>
	<path d="M158.4,533.86c-3.84,0.6-6.75-19.38-16.07-34.89c-12.22-20.32-28.81-25.99-32.5-24.66c-1.72,0.54-2.59,2.27-3.08,3.67
		c-2.11,5.78-7.82,32.6-14.47,64.95c-1.02,4.91,9.26,5.65,17.19,3.29c9.74-2.89,14.6-6.18,19.68-12.44
		c0.94-1.61,3.45-1.64,2.61,1.94c-5.51,23.77-7.2,52-7.2,52c-0.14,2.08-2.32,4.51-3.46,0.49c-6.6-22.97-29.84-40.37-32.26-28.83
		c-7.15,34.25-10.39,51.17-11.84,59.3c-1.16,6.56-1.1,21.67,3.19,28.69c0.85,1.38,0.87,3.15-1.25,2.71
		c-7.09-1.59-22.03-4.7-38.8-8.11l-5.99-1.25c-3.39-0.14-3.84-2.79-0.73-4.24c9.61-10.51,14.32-35.45,19.08-55.84
		c3.8-16.27,10.72-51.73,10.72-51.73c4.25-20.97,6.74-37.3,7.24-46.88c0.9-17.71-3.67-19.94-2.9-22.19
		c0.45-1.21,0.3-0.94,11.12,1.12l0.48,0.1c0.58,0.12,1.07,0.22,1.65,0.24c13.82,2.59,25.98,5.43,38.68,8.08
		c7.61,1.59,19.7,4.22,31.51,5.88c13.07,1.83,13.86,0.28,15.58,1.15c1.36,0.68-0.47,5.32-1.54,12.83
		c-2.15,15.12-3.28,21.98-4.54,32.79c-0.38,3.32-0.75,6.85-1.27,10.21C159.15,533.14,158.82,533.74,158.4,533.86z"/>
	<path d="M282.75,683.89c-12.86-4.72-35.13-24.74-41.77-34.86c-13.83-18.3-22.17-40.3-29.5-64.51c-0.17-0.59-0.51-1.6-1.09-2.02
		c-0.57-0.42-3.67-0.81-4.09-0.24c-0.4,0.38-0.43,1.06-0.46,1.66c-1.05,27.49-2.21,50.85-1.94,57.76
		c0.39,8.77,2.97,19.12,7.91,23.18c1.44,0.66,0.88,2.2-0.89,2.12c0,0-24.53-1.41-46.71-2.42c-2.25-0.2-2.28-1.78-0.55-2.98
		c4.48-3.33,8.18-13.4,8.94-21.23c1.2-13.62,3.56-54.64,5.25-111.41c0.22-6.97-0.48-15.47-1.23-22.89
		c-0.32-3.76-1.56-15.41-5.13-21.19c-1.28-2.12-2.3-3.65-2.25-4.54c-0.31-1.98,5.8-0.03,19.01-0.41c13.89-0.36,19.7-0.68,33.4,1.03
		l0.29,0.02c4.7,0.51,9.29,1.3,14.16,2.4c5.25,1.22,10.39,3.13,15.27,5.81c7.88,4.39,14.96,10.81,20.05,19.8
		c2.01,3.43,3.56,8.32,4.39,13.77c1.08,6.65,1.23,14.23,0.11,21.55c-1.57,10.76-5.67,20.79-13.2,26.45
		c-4.09,3.05-7.05,5.62-15.32,7.81c-1.99,0.28-1.77,1.75-1.61,2.34c0.8,13.07,19.31,71.55,41.8,102.7
		C287.86,684.03,287.6,685.69,282.75,683.89z M241.44,553.47c4.82-12.96,4.2-29.62,2.54-38.64c-0.3-1.99-0.72-3.58-1.15-4.78
		c-2.1-5.79-7.15-13.89-15.45-19.29c-3.54-2.32-7.42-3.48-10.26-3.61l-0.59-0.03c-0.89,0.07-2.18,0.31-3.29,1.13
		c-1.53,1.01-2.19,2.55-2.45,4.12c-1.29,6.83-3.08,44.02-4.52,79.97c-0.07,1.68,1.24,3.01,2.92,2.99c8.94,0.11,17.31-2.17,20.8-5.25
		c6.56-5.71,8.91-9.93,10.93-15.25C241.11,554.45,241.22,553.94,241.44,553.47z"/>
	<path d="M403.01,479.66c-3.53,2.96-5.74,9.13-6.84,16.95c-0.79,5.39-0.49,20.32-0.52,26.52c0.43,5.87,1.24,18.41,2.81,42.49
		l3.77,51.51c1.87,25.6-14.94,47.82-44.14,49.96c-29.41,2.16-48.96-17.41-50.84-43.01l-0.45-6.07c-0.14-2.01-0.2-4.13-0.36-6.26
		c-0.83-11.36-2.02-31.68-3.37-50.07l-0.4-5.39c-0.35-4.81-0.79-9.42-1.1-13.57c-0.61-7.12-1.09-13.57-1.59-19.05l-0.04-0.48
		c-1.68-14.96-3.94-24.28-6.32-29.73c-0.1-0.09-0.11-0.18-0.11-0.18c-1.29-2.82-2.6-4.56-3.96-5.61c-1.15-0.88-1.37-2.51,0.19-2.82
		c0,0,0.09-0.01,0.2-0.01c3.72-0.28,8.72-0.54,14.31-0.95c5.79-0.32,12.94-0.85,20.59-1.41l7.06-0.52c2.27-0.07,1.87,1.21,1.27,2.41
		c-1.98,3.92-2.76,9.4-3.07,15.91c0.01,0.19,0.02,0.38-0.06,0.48c-0.06,3.21-0.12,6.51-0.05,10.08c0.04,0.68,0,1.44,0.05,2.13
		c0.07,0.85,0.14,1.82,0.11,2.8c0.41,6.92,0.9,16.38,1.64,27.73c0.19,2.6,0.64,8.76,0.94,15.5l0.12,1.65
		c0.4,6.73,0.82,13.88,1.12,18c0.72,9.93,1.65,21.17,2.46,32.24l0.48,6.65c0,0,0.56,4.79,0.56,4.9
		c1.08,14.71,12.97,28.55,28.15,27.43c15.19-1.11,24.36-16.61,24.21-31.38c-0.11-11.31-1.48-39.94-1.48-39.94
		c-1.26-14.61-3.32-39.94-3.59-42.35c-0.92-11.05-3.51-33.1-6.77-42.53c-2.03-6.14-4.63-10.79-7.79-12.2
		c-0.82-0.33-1.07-1.08-0.82-1.68c0.17-0.51,0.64-0.84,1.42-0.89c0,0,18.24-1.15,30.79-2.07c0.88-0.07,1.49,0.17,1.72,0.46
		C404.06,477.92,403.84,479.01,403.01,479.66z"/>
	<path d="M580.09,580.34c0.16,13.77,1.56,34.2,5.45,50.17c0.24,0.97-0.11,2-2.74,1.76c-4.97-0.46-30.59,4.99-30.59,4.99
		s-48.4,9.94-60.62,12.42c-2.27,0.33-2.5-1.33-1.85-2.54c3.18-5.75,2.43-19.66-0.76-38.05c-2.2-12.7-5.44-30.05-16.26-80.19
		c0.02,0-3.47-17.21-4.56-21.94c-2.74-11.99-8.36-33.61-13.04-35.53c-1.49-0.62-2.29-2.66-0.53-3.02c0,0,18.74-3.55,40.96-8.05
		c2.25-0.35,2.33,1.25,1.78,2.49c-2.36,5.46-2.67,14.93-0.3,29.33c1.08,6.55,2.24,12.48,5.74,30.23
		c5.13,24.57,20.18,95.98,21.79,102.89c1.17,5.02,3.68,8.15,7.72,8.23c4.74,0.1,10.8-1.6,19.3-10.77
		c11.82-12.75,19.49-34.43,24.19-45.13c0.66-1.51,1.48-3.17,2.52-3.51c0.63-0.21,1.57-0.03,1.92,1.3
		C580.49,576.44,580.06,578.51,580.09,580.34z"/>
	<path d="M649.76,611.06c0.97,0.97,1.77,2.08-0.4,2.75c-2.28,0.6-4.56,1.2-6.82,1.89c-11.79,3.09-22.22,5.92-28.29,7.61
		c-3.52,0.92-5.51,1.45-5.51,1.45c-1.72,0.45-2.19-1.36-1.32-2.7c3.07-4.56,3.15-16.27-2.83-42.24c-0.43-1.62-1.05-4.4-2.02-8.11
		c-3.87-15.55-12.07-47.24-20.2-77.13c-0.95-3.61-1.77-6.35-2.19-7.96c-7.51-25.57-13.32-35.74-18.25-38.31
		c-1.4-0.65-1.86-2.46-0.15-2.91c0,0,1.99-0.52,5.51-1.44c6.11-1.5,16.61-4.14,28.39-7.23l6.85-1.79c2.21-0.48,2.06,0.88,1.7,2.2
		c-2.34,8.54,0.74,22.67,4.31,38.6c0.8,3.45,1.7,7.28,2.74,11.28c9.38,36.97,20.14,77.65,22.98,86.96l0.37,1.43
		C639.35,591.12,643.54,604.76,649.76,611.06z"/>
	<path d="M734.66,396.98c-5.99,8.02-1.43,30.21,4.14,49.8c1.2,4.06,11.39,37.03,11.39,37.03s29.17,89.46,30.13,92.14
		c1.12,2.84,0.12,3.89-3.07,1.4c-2.95-2.77-111.19-95.63-125.66-108.22c-0.44-0.38-1.13,0.05-0.94,0.61
		c1.65,5.46,4.19,13.32,4.19,13.32s19.19,62.3,23.58,73.38c6.33,15.83,13.24,36.03,23.65,38.87c1.29,0.2,2.53,2.39,0.4,3.17
		c-11.32,3.33-14.72,4.32-30.48,9.91c-1.6,0.51-2.14-1.17-1.19-2.41c6.57-8.83,1.37-29.47-3.29-46.55
		c-2.27-8.36-29.22-93.16-33.71-103.9c-5.75-13.74-16.34-20.36-18.34-20.44c-1.15-0.05-2.01-1.73-0.81-2.53l3.03-0.87
		c1.96-0.63,4.95-1.59,7.92-2.65c12.9-4.25,19.66-6.32,19.66-6.32c2.06-0.66,3.19,0.63,3.62,1c0,0,58.55,46.55,96.66,81.91
		c0.46,0.47,1.15,0.04,0.94-0.61c0,0-17.56-53.33-18.49-56.23c-6-17.69-15.95-40.31-24.7-42.14c-1.55-0.33-1.64-2.16,0.06-2.71
		c0,0,17.3-5.56,29.3-9.42C734.98,393.78,735.76,395.6,734.66,396.98z"/>
	<path d="M903.12,502.92c-6.39,19.84-22.82,32.92-51.85,44.24c-15.49,6-17.43,6.87-30.05,11.84l-7.59,2.99
		c-2.14,0.72-3.79-0.51-2.03-3.53c2.66-9.08-1.66-24.06-8.88-43.72c-8.53-23.25-17.29-44.93-32.52-79.29
		c-3.68-8.27-8.06-18.57-11.89-26.68c-8.62-17.83-13.18-13.68-13.81-16.07c-0.25-1.16-0.76-2.2,9.37-6.51
		c0,0,31.43-12.61,43.18-13.93c24.77-2.78,47.39,5.81,68.65,26.96C888.13,421.55,913.17,469.58,903.12,502.92z M836.19,406.21
		c-22.65-28.61-40.91-26.17-44.64-25.32c-3.18,0.72-6.48,2.07-5.9,4.86c3.06,12.84,51.17,130.56,57.63,145.87
		c2.09,4.77,4.92,7.41,8.99,6.71c7.16-1.23,14.63-10.01,16.48-18.45c3.39-14.97,2.56-24.36,0.51-36.23
		C863.85,452.22,846.15,418.81,836.19,406.21z"/>
	<path d="M1015.1,419.15c8.09,27.54,11.54,37.2,16.29,48.76c0.42,0.89,0.48,1.29-1.83,2.35c-10.73,4.91-41.32,18.83-41.51,18.92
		c-14.8,7.32-24.27,11.44-36.81,17.09l0.03,0.09l-6.43,2.95c-0.44,0.2-0.94,0.32-1.37,0.31c-2.19,0.89-3.44-0.91-2.04-3.5
		c1.49-14.2-9.52-37.05-17.79-56.29c-6.6-15.35-22.11-48.03-22.11-48.03c-1.11-2.42-2.17-4.74-3.33-7.02l-0.69-1.52
		c-7.27-15.16-13.43-26.71-18.04-33.47c-0.63-0.9-1.13-1.75-1.72-2.56c-0.17-0.14-0.25-0.32-0.33-0.5
		c-7.07-9.74-11.25-10.84-12.83-12.18c-0.34-0.28-0.46-0.55-0.62-0.9c-0.05-0.09-0.09-0.18-0.04-0.31c-0.19-0.89,0.6-1.03,9.64-5.39
		l0.45-0.2c0.53-0.25,0.98-0.46,1.47-0.79c12.66-6.12,24.13-11.06,35.92-16.46c7.06-3.23,18.36-8.3,28.84-13.97
		c3.36-1.86,5.74-3.28,7.49-4.4c1.57-1.05,2.61-1.85,3.34-2.4c1.18-0.97,1.62-1.39,2.42-1.54c1.51-0.26,2.75,4.58,6.35,11.25
		c7.23,13.44,10.41,19.66,15.81,29.08c1.75,2.87,3.49,5.97,5.1,9.01c0.46,0.76,0.53,1.38,0.25,1.72c-0.14,0.17-0.23,0.21-0.41,0.29
		c-3.52,1.29-17.27-12.2-33.27-18.81c-21.9-9.1-38.61-3.82-40.79-0.55c-1.07,1.46-0.74,3.36-0.3,4.78
		c1.73,5.91,13.07,30.88,26.91,60.86c0.5,1.07,1.4,1.63,2.5,1.67c3.55,0.21,9.51-4.25,13.29-9.22c1.06-1.46,1.99-2.75,2.82-4
		c3.99-6.15,5.39-11.12,5.74-17.66c-0.2-1.85,1.7-3.37,3.13-0.24c0.05,0.09,0.05,0.09,0.09,0.18c5.17,12,11.93,24.37,17.07,33.26
		c0.14,0.04,0.17,0.14,0.13,0.27c4.58,7.63,7.83,12.63,7.83,12.63c0.68,0.99,0.84,2.54,0.2,3.04c-0.4,0.51-1.29,0.48-2.66-0.62
		c-5.14-3.91-11.11-6.79-16.85-8.71c-0.13-0.05-0.17-0.14-0.22-0.01c-8.4-2.74-16.38-3.41-21.34-2.22
		c-4.21,0.96-6.37,3.35-4.73,6.92c14.57,31.81,22.05,47.41,25.76,54.8c0.49,1.07,1.28,2.33,2.16,3.76c1.77,3.63,3.16,6.44,3.94,8.14
		c2.32,4.56,5.46,7.66,9.35,7.18c0.09-0.04,0.22,0.01,0.4-0.08c2.21-0.58,11.09-4.33,15.86-15.16c10.06-23.1,9.86-55.88,15.02-57.81
		C1013.68,411.58,1013.99,415.55,1015.1,419.15z"/>
</g>
</svg>
