<?xml version="1.0" encoding="utf-8"?>
<!-- Generator: Adobe Illustrator 23.0.1, SVG Export Plug-In . SVG Version: 6.00 Build 0)  -->
<svg version="1.1" id="Layer_1" xmlns="http://www.w3.org/2000/svg" xmlns:xlink="http://www.w3.org/1999/xlink" x="0px" y="0px"
	 viewBox="0 0 1044.95 889.05" style="enable-background:new 0 0 1044.95 889.05;" xml:space="preserve">
<g>
	<path d="M136.45,202.94c1.77,0.14,1.8,1.56,0.69,2.18c-6.19,3.73-9.17,19.81-10.77,34.41c-0.3,3.04-2.45,27.85-2.45,27.85
		s-4.81,67.73-4.9,69.79c-0.02,2.2-0.97,2.63-2.42,0.1c-1.22-2.65-48.34-94.14-54.6-106.49c-0.19-0.37-0.76-0.27-0.8,0.15
		c-0.38,4.1-0.82,10.04-0.82,10.04s-4.09,46.86-4.17,55.47c-0.07,12.31-0.94,27.68,5.25,32.41c0.81,0.48,1.04,2.28-0.6,2.23
		c-8.47-0.85-11.01-1.11-23.06-1.67c-1.21-0.09-1.11-1.36-0.14-1.93c6.79-4.11,8.92-19.32,10.45-32.01
		c0.75-6.2,5.78-70.21,5.7-78.62c-0.12-10.75-5.41-18.05-6.71-18.65c-0.75-0.34-0.87-1.7,0.14-1.91l2.26,0.24
		c1.48,0.11,3.75,0.28,6.02,0.38c9.77,0.66,14.86,1.12,14.86,1.12c1.56,0.12,1.97,1.29,2.15,1.65c0,0,26.49,47.03,42.35,81.02
		c0.18,0.44,0.76,0.34,0.8-0.15c0,0,2.75-40.42,2.92-42.61c0.8-13.46,0.29-31.28-5.06-34.89c-0.95-0.64-0.5-1.89,0.77-1.79
		C114.3,201.28,127.4,202.26,136.45,202.94L136.45,202.94z"/>
	<path d="M235.74,304.33c-9.31,25.7-26.94,45.16-47.41,47.43c-11.38,1.19-28.19-2.83-38.04-17.38
		c-10.82-16.11-11.19-39.84-1.07-65.72c14.67-37.63,42.12-57.42,69.32-46.1C244.22,233.24,248.94,268.02,235.74,304.33z
		 M213.96,290.92c1.64-6.53,2.92-12.94,3.94-18.95c3.97-24.92,2.19-44.15-11.14-47.24c-14.76-3.5-28.05,22.28-35.42,56.13
		c-7.38,34.07-7.43,61.81,6.06,65.76C193.07,351.2,205.82,324.59,213.96,290.92z"/>
	<path d="M287.23,419.84c-6.5-7.45-13.63-27.85-14.32-36.56c-2.4-16.37-0.04-33.19,3.74-51.04c0.1-0.43,0.22-1.19,0.01-1.65
		c-0.21-0.46-2.05-1.78-2.5-1.57c-0.39,0.1-0.65,0.52-0.88,0.89c-10.21,17.03-19.05,31.4-21.28,35.86
		c-2.8,5.69-4.76,13.13-3.05,17.41c0.69,0.92-0.21,1.7-1.3,1.04c0,0-15.03-9.4-28.71-17.74c-1.35-0.91-0.82-1.92,0.69-2.08
		c3.99-0.55,9.83-5.63,13.02-10.33c5.49-8.19,21.22-33.32,42-68.65c2.56-4.34,5.07-9.95,7.17-14.9c1.1-2.49,4.36-10.29,4.1-15.18
		c-0.07-1.79-0.19-3.1,0.15-3.65c0.49-1.36,3.68,2,12.18,6.34c8.89,4.59,12.69,6.41,20.77,12.25l0.18,0.11
		c2.8,1.95,5.43,4.05,8.13,6.44c2.9,2.6,5.48,5.58,7.64,8.98c3.45,5.51,5.71,12.03,5.81,19.48c0.08,2.87-0.64,6.5-2,10.24
		c-1.63,4.58-4.17,9.42-7.42,13.67c-4.73,6.26-10.8,11.19-17.53,12.15c-3.65,0.51-6.41,1.11-12.4-0.38
		c-1.37-0.51-1.73,0.49-1.83,0.92c-4.04,8.55-12.62,51.96-9.22,79.47C290.41,421.69,289.67,422.66,287.23,419.84z M306.37,323
		c7.55-6.53,12.94-17.28,15.03-23.56c0.49-1.37,0.79-2.51,0.93-3.43c0.68-4.39,0.3-11.26-3.08-17.57c-1.42-2.7-3.48-4.78-5.24-5.85
		l-0.36-0.22c-0.59-0.26-1.48-0.56-2.48-0.43c-1.32,0.11-2.27,0.86-2.99,1.75c-3.19,3.88-17.24,26.78-30.62,49.01
		c-0.63,1.04-0.26,2.34,0.8,2.91c5.61,3.17,11.7,4.64,14.98,3.89c6.12-1.33,9.08-3.19,12.2-5.85
		C305.82,323.5,306.08,323.22,306.37,323z"/>
	<path d="M374.6,468.6c-0.39,0.58-1.05,0.4-1.63,0l-30.86-21.22c-0.88-0.6-0.45-1.86,0.59-1.74c0,0,8.29,0.1,14.51-19.21l4.26-14.71
		c0.19-0.65-0.06-1.42-0.71-1.86l-22.74-15.99c-1-0.68-2.26-0.61-3.09,0.11l-11.29,9.54c-14.19,13.23-12.19,20.98-12.04,21.25
		c0.35,0.75-0.13,1.2-0.55,1.17c-0.28-0.1-0.8-0.46-1.27-0.79l-17.24-11.86c-1.23-0.84-0.69-2.02,0.87-1.9
		c1.08,0.06,7.51,0.85,28.4-15.76c3.5-2.84,3.62-2.76,84.98-67.85c0.81-0.56,1.92,0.21,1.69,1.16c0,0-23.74,85.6-24.95,90.36
		c-1.96,7.61-12.83,40.94-9.07,47.74C375.21,467.98,374.61,468.6,374.6,468.6z M364.05,404.09l13.75-43.4
		c0.53-1.27,0.66-2.47-1.23-0.85l-35.1,28.64c-0.47,0.44-0.43,1.25,0.15,1.66l20.65,14.54
		C362.91,405.11,363.77,404.85,364.05,404.09z"/>
	<path d="M497.26,534.62c-2.73-1.05-8.82-4.07-10.05-4.65c-4.14-2.03-8.63-4.14-12.94-6.17l-0.89-0.42
		c-4.36-2.05-4.38-2.07-4.42-2.94c-0.11-2.34,6.23-0.87,11.21-11.5l5.68-12.07c0.52-0.93,1.01-1.96,1.52-3.05
		c1.57-3.18,3.29-6.84,5.29-10.92l0.46-0.96c1.98-4.4,4.91-10.62,8.21-17.62c0.48-1.03,0.04-2.25-0.98-2.74l-24.58-11.57
		c-1.03-0.48-2.25-0.04-2.74,0.98c-2.14,4.72-4.5,9.72-6.79,14.6l-1.31,2.76c-1.17,2.66-2.4,5.45-3.6,8.34
		c-2.68,6.19-5.3,13.42-7.41,19.57c-4.68,14.11-0.72,14.55-1.67,16.06c-0.53,0.77-0.04,0.8-6.71-2.34l-22.57-10.57
		c-1.45-0.76-1.76-1.93,0.67-2.43c1.83-0.71,4.6-3.95,7.73-8.59l6.62-14.06c0.51-1.09,1.12-2.21,1.69-3.43l0.55-1.16
		c0.51-1.09,1.03-2.18,1.64-3.31l3.2-6.81c0.63-1.35,1.33-2.67,2-4.08c4.68-9.95,10.24-21.91,16.45-35.46l7.95-16.88
		c1.22-3.11,2.35-6.18,3.3-9.03c4.75-14.07,0.71-14.48,1.72-15.97c0.46-0.65,0.34-0.55,5.85,1.89c0.52,0.24,1.19,0.48,1.83,0.78
		l0.26,0.12c5.03,2.45,11.17,5.41,17.07,8.19l4.69,2.21c1.44,0.76,1.75,1.93-0.68,2.43c-3.9,1.46-11.29,13.5-18.08,26.93
		c-1.46,2.92-2.91,5.84-4.36,8.77l-0.82,1.73c-1.17,2.66-2.83,6.19-4.73,10.24c-0.7,1.48-0.09,3.33,1.46,4.06l23.62,11.11
		c1.03,0.48,2.32,0.07,2.81-0.96c1.05-2.4,2.17-4.78,3.29-7.15l3.34-7.13c0.61-1.44,1.27-2.85,1.9-4.2
		c2.06-4.37,3.8-8.25,5.22-11.42c4.16-10.51,6.77-19.55,5.7-22.63c-1.16-2.19,0.15-2.99,1.66-2.36c1.35,0.63,6.45,3.27,8.64,4.3
		l0.71,0.34c3.72,1.75,7.74,3.72,11.78,5.62l2.18,1.03c5.2,2.44,4.56,2.14,4.35,2.91c-0.4,1.69-3.33-1.1-10.89,11.65
		c-0.52,0.93-1.14,1.9-1.68,2.89c-2.9,4.99-5.17,10.87-7.65,15.81c-12.01,24.22-30.63,66.37-30.68,66.5
		c-3.52,9.63-5.6,17.74-4.56,20.67C499.86,534.74,498.76,535.25,497.26,534.62z"/>
	<path d="M608.43,526.05c-7.91,19.15-10.33,26.14-12.89,34.79c-0.17,0.69-0.31,0.95-2.1,0.49c-8.25-2.09-31.75-8.1-31.9-8.13
		c-11.64-2.58-18.83-4.54-28.44-7.04l-0.02,0.07l-4.95-1.25c-0.34-0.09-0.67-0.24-0.91-0.45c-1.64-0.49-1.52-2.07,0.44-2.89
		c7.27-7.31,11.41-25.14,15.45-39.7c3.24-11.62,9.29-37.02,9.29-37.02c0.47-1.86,0.92-3.65,1.31-5.45l0.3-1.17
		c2.77-11.81,4.53-21.1,4.99-26.98c0.05-0.79,0.16-1.5,0.2-2.22c-0.04-0.16,0-0.29,0.04-0.43c0.44-8.67-1.41-11.18-1.71-12.65
		c-0.06-0.31-0.01-0.52,0.05-0.79c0.02-0.07,0.04-0.14,0.13-0.19c0.29-0.59,0.8-0.31,7.86,1.33l0.34,0.09
		c0.42,0.11,0.76,0.19,1.19,0.23c9.89,2.28,18.58,4.69,27.65,6.99c5.44,1.37,14.09,3.63,22.55,5.18c2.74,0.47,4.71,0.75,6.2,0.91
		c1.36,0.13,2.31,0.15,2.96,0.16c1.11-0.01,1.55-0.04,2.07,0.23c0.97,0.53-0.52,3.82-1.51,9.2c-2.01,10.84-3.04,15.77-4.26,23.51
		c-0.32,2.41-0.74,4.93-1.21,7.38c-0.09,0.64-0.33,1.01-0.63,1.08c-0.16,0.04-0.23,0.02-0.37-0.02c-2.56-0.87-4.2-14.67-10.21-25.63
		c-8.2-15.02-19.99-19.61-22.7-18.76c-1.25,0.34-1.93,1.56-2.32,2.55c-1.7,4.11-6.62,23.28-12.39,46.41
		c-0.21,0.82,0.04,1.55,0.64,2.07c1.91,1.73,7.28,1.91,11.65,0.82c1.26-0.34,2.36-0.65,3.4-0.97c5.02-1.65,8.06-3.81,11.22-7.33
		c0.72-1.14,2.48-1.13,1.87,1.27c-0.02,0.07-0.02,0.07-0.04,0.14c-2.52,9.09-4.32,19.1-5.44,26.43c0.05,0.09,0.04,0.16-0.05,0.21
		c-0.87,6.36-1.3,10.65-1.3,10.65c-0.07,0.86-0.67,1.8-1.26,1.8c-0.46,0.11-0.95-0.31-1.22-1.55c-1.13-4.53-3.18-8.85-5.55-12.52
		c-0.04-0.09-0.03-0.15-0.12-0.1c-3.48-5.35-7.66-9.33-11-10.9c-2.81-1.37-5.1-1-5.78,1.75c-6.2,24.49-9.05,36.64-10.3,42.47
		c-0.21,0.82-0.33,1.89-0.49,3.1c-0.64,2.84-1.13,5.06-1.47,6.36c-0.76,3.61-0.39,6.78,2.01,8.26c0.07,0.02,0.13,0.11,0.26,0.14
		c1.51,0.67,8.21,2.58,15.78-1.35c16.11-8.44,30.81-26.97,34.6-25.72C611.05,521.16,609.44,523.52,608.43,526.05z"/>
	<path d="M699.63,536.34c-2.72,9.56-5.94,23.97-6.55,35.81c-0.03,0.72-0.47,1.36-2.25,0.65c-3.33-1.33-22.17-2.84-22.17-2.84
		s-35.53-3.09-44.48-3.88c-1.64-0.24-1.46-1.43-0.76-2.13c3.39-3.32,5.73-13.09,7.3-26.47c1.09-9.23,2.41-21.9,5.25-58.8
		c0.02,0,1.14-12.61,1.37-16.11c0.56-8.86,1.14-24.96-1.71-27.25c-0.9-0.73-1.04-2.32,0.25-2.2c0,0,13.7,1.4,29.99,2.86
		c1.63,0.22,1.34,1.34,0.72,2.09c-2.76,3.29-4.92,9.78-6.24,20.22c-0.6,4.75-1.02,9.09-2.24,22.08
		c-1.51,18.05-5.79,70.53-6.11,75.63c-0.22,3.71,0.87,6.39,3.65,7.28c3.25,1.04,7.8,1.11,15.55-3.48c10.81-6.39,20.55-19.8,26-26.23
		c0.78-0.91,1.68-1.88,2.47-1.91c0.47-0.01,1.1,0.31,1.06,1.3C700.72,533.73,699.99,535.07,699.63,536.34z"/>
	<path d="M844.77,565.96c-5.8,0.24-31.9,1.93-36.26,2.32c-1.63,0.03-1.48-0.93-0.95-1.72c5.08-7.51,4.94-17.72,4.5-28.62
		c-0.41-9.89-5.28-71.9-5.28-71.9s-0.39-5.92-0.73-10.07c-0.04-0.44-0.68-0.58-0.8-0.16c-2.03,7.94-19.99,88.21-27.98,119.99
		c-0.23,0.91-1.48,1-1.84,0.13c-6.75-16.64-43.37-107.25-47.07-114.72c-0.2-0.36-0.8-0.17-0.77,0.27
		c0.22,4.16,0.62,10.08,0.62,10.08s4.56,66.99,5.77,75.55c2.36,16.69,5.65,21.03,8.93,24.11c0.72,0.66,1.13,1.38-0.48,1.56
		c-6.05,0.35-22.34,1.77-22.96,1.83c-1.26,0.12-0.87-1.13-0.14-2.02c5.85-7.36,5.6-19.35,5.94-25.81
		c0.33-6.24-4.26-76.35-5.71-84.58c-2.22-12.54-8.8-19.07-10.16-19.48c-0.81-0.25-0.88-1.69,0.11-2.02
		c1.37-0.09,32.17-2.14,32.17-2.14c1.61-0.11,2.15,1.07,2.36,1.37c0,0,22.14,55.25,36.01,88.94c0.29,0.67,1.25,0.6,1.43-0.11
		c7.04-27.56,16.66-77.85,19.96-92.66c0.07-0.35,0.55-1.56,2.17-1.67c0,0,30.3-2.02,31.67-2.11c1.03,0.19,1,1.38,0.31,1.87
		c-4.06,2.88-5.31,12.6-5.17,24.46c0.1,8.26,4.69,71.88,5.44,78.1c1.37,11.39,2.19,21.17,9.15,27.12
		C845.91,564.6,846.02,565.91,844.77,565.96z"/>
	<path d="M935.29,509.73c0.94,20.69,1.71,28.06,3.06,36.97c0.13,0.7,0.12,0.99-1.7,1.34c-8.36,1.6-32.19,6.11-32.33,6.13
		c-11.64,2.59-18.98,3.86-28.74,5.66l0.01,0.07l-5.02,0.96c-0.35,0.07-0.72,0.06-1.01-0.02c-1.69,0.25-2.26-1.23-0.83-2.8
		c3.49-9.7-0.31-27.6-2.82-42.51c-1.99-11.9-7.26-37.46-7.26-37.46c-0.36-1.88-0.71-3.69-1.13-5.49l-0.22-1.18
		c-2.49-11.87-4.83-21.03-6.9-26.55c-0.29-0.74-0.49-1.43-0.76-2.09c-0.1-0.13-0.13-0.27-0.15-0.41c-3.27-8.04-6.02-9.53-6.9-10.74
		c-0.19-0.25-0.23-0.46-0.29-0.74c-0.02-0.07-0.03-0.14,0.03-0.22c0.02-0.65,0.61-0.62,7.69-2.12l0.34-0.07
		c0.42-0.08,0.77-0.15,1.17-0.29c9.92-2.12,18.82-3.61,28.01-5.37c5.51-1.06,14.29-2.67,22.62-4.85c2.67-0.73,4.59-1.31,6.01-1.8
		c1.29-0.46,2.15-0.85,2.75-1.11c0.98-0.48,1.38-0.7,1.96-0.67c1.1,0.08,1.14,3.68,2.52,8.98c2.77,10.66,3.92,15.57,6.1,23.1
		c0.73,2.31,1.42,4.78,2.03,7.19c0.19,0.61,0.13,1.06-0.13,1.25c-0.12,0.1-0.19,0.11-0.33,0.13c-2.69,0.3-10.01-11.51-20.1-18.9
		c-13.78-10.14-26.42-9.3-28.5-7.39c-0.99,0.84-1.09,2.23-1.03,3.3c0.2,4.44,3.86,23.89,8.42,47.28c0.16,0.84,0.71,1.38,1.47,1.6
		c2.46,0.76,7.39-1.35,10.9-4.19c0.99-0.84,1.86-1.58,2.66-2.32c3.85-3.63,5.69-6.87,7.05-11.39c0.18-1.34,1.77-2.07,2.23,0.36
		c0.02,0.07,0.02,0.07,0.03,0.14c1.56,9.3,4.18,19.13,6.27,26.24c0.08,0.06,0.1,0.13,0.04,0.21c1.9,6.13,3.33,10.19,3.33,10.19
		c0.29,0.81,0.15,1.92-0.38,2.17c-0.38,0.29-0.98,0.12-1.75-0.89c-2.94-3.62-6.62-6.67-10.32-9c-0.08-0.06-0.1-0.13-0.15-0.04
		c-5.42-3.37-10.89-5.2-14.58-5.22c-3.11-0.05-5.03,1.26-4.5,4.04c4.76,24.8,7.31,37.02,8.65,42.83c0.16,0.84,0.5,1.85,0.87,3.01
		c0.62,2.84,1.12,5.06,1.37,6.39c0.83,3.59,2.51,6.31,5.32,6.64c0.07-0.02,0.15,0.04,0.29,0.02c1.64-0.03,8.52-1.13,13.71-7.91
		c11.02-14.46,16.5-37.47,20.45-37.94C935.59,504.19,935.13,507.02,935.29,509.73z"/>
	<path d="M1047.23,528.57c-9.88-0.35-29.65-9.08-36.48-14.53c-13.59-9.44-24.25-22.66-34.71-37.62c-0.24-0.36-0.71-0.98-1.2-1.14
		c-0.48-0.16-2.7,0.27-2.86,0.76c-0.2,0.36-0.06,0.83,0.05,1.25c5.45,19.09,9.9,35.37,11.64,40.04c2.24,5.93,6.34,12.45,10.64,14.13
		c1.13,0.12,1.09,1.31-0.13,1.65c0,0-17.14,4.54-32.58,8.83c-1.59,0.37-1.97-0.71-1.05-1.92c2.32-3.29,2.61-11.02,1.36-16.57
		c-2.23-9.61-9.82-38.27-21.41-77.59c-1.42-4.83-3.81-10.5-5.98-15.42c-1.06-2.5-4.53-10.22-8.28-13.37
		c-1.36-1.17-2.4-1.98-2.57-2.61c-0.66-1.29,3.97-1.33,12.94-4.55c9.44-3.36,13.36-4.89,23.14-6.79l0.21-0.06
		c3.33-0.71,6.66-1.2,10.25-1.53c3.88-0.34,7.83-0.19,11.78,0.56c6.38,1.24,12.69,4.05,18.19,9.08c2.15,1.9,4.31,4.9,6.11,8.45
		c2.23,4.32,4.04,9.48,4.91,14.76c1.34,7.73,0.79,15.53-3.11,21.11c-2.12,3.01-3.57,5.44-8.75,8.79c-1.31,0.64-0.82,1.59-0.58,1.96
		c3.49,8.79,29.31,44.74,51.72,61.05C1050.76,527.52,1050.95,528.72,1047.23,528.57z M989.61,448.4c0.39-9.98-3.77-21.26-6.94-27.08
		c-0.65-1.29-1.3-2.29-1.87-3.02c-2.74-3.5-8.02-7.92-14.92-9.76c-2.95-0.8-5.88-0.72-7.87-0.18l-0.4,0.12
		c-0.6,0.25-1.43,0.7-2.01,1.52c-0.81,1.04-0.92,2.24-0.76,3.37c0.65,4.97,7.78,30.89,14.86,55.86c0.33,1.17,1.53,1.79,2.67,1.4
		c6.16-1.93,11.39-5.37,13.09-8.27c3.22-5.39,3.88-8.81,4.07-12.91C989.59,449.14,989.57,448.77,989.61,448.4z"/>
</g>
</svg>
