<?xml version="1.0" encoding="utf-8"?>
<!-- Generator: Adobe Illustrator 23.0.1, SVG Export Plug-In . SVG Version: 6.00 Build 0)  -->
<svg version="1.1" id="Layer_1" xmlns="http://www.w3.org/2000/svg" xmlns:xlink="http://www.w3.org/1999/xlink" x="0px" y="0px"
	 viewBox="0 0 315.67 206.88" style="enable-background:new 0 0 315.67 206.88;" xml:space="preserve">
<style type="text/css">
	.st0{fill:#F7D4CE;}
</style>
<g>
	<path class="st0" d="M41.14,70.32c-0.88,4.5-4.12,7.78-10.15,11.01c-3.22,1.71-3.62,1.95-6.24,3.37l-1.58,0.85
		c-0.45,0.22-0.84-0.01-0.53-0.72c0.34-2.05-0.99-5.21-3.09-9.31c-2.47-4.85-4.95-9.35-9.18-16.45c-1.02-1.71-2.25-3.84-3.29-5.51
		c-2.35-3.66-3.23-2.64-3.43-3.14c-0.09-0.25-0.22-0.46,1.87-1.67c0,0,6.53-3.57,9.05-4.17c5.33-1.26,10.49,0.03,15.69,4.08
		C35.73,52.96,42.46,62.78,41.14,70.32z M24,50.97c-5.69-5.65-9.61-4.64-10.4-4.35c-0.67,0.24-1.36,0.62-1.16,1.22
		c1,2.72,14.59,27.15,16.4,30.32c0.58,0.98,1.27,1.49,2.14,1.23c1.53-0.45,2.93-2.57,3.11-4.46c0.35-3.35-0.08-5.38-0.84-7.92
		C31.24,60.29,26.5,53.46,24,50.97z"/>
	<path class="st0" d="M67.75,45.3c2.52,7.93,1.87,15.9-2.66,20.25c-2.53,2.4-7.33,4.55-12.41,2.86c-5.6-1.88-10.09-7.55-12.45-15.67
		c-3.43-11.81-0.47-21.68,8.19-23.99C56.61,26.56,64.2,34.08,67.75,45.3z M60,46.1c-0.82-1.88-1.69-3.67-2.56-5.31
		c-3.66-6.75-7.66-11.07-11.45-9.34c-4.21,1.89-2.64,10.58,1.85,20.12c4.54,9.59,9.67,16.3,13.66,14.75
		C66.13,64.53,64.28,55.74,60,46.1z"/>
	<path class="st0" d="M100.46,58.48c0,0-2.66,0.48-6.86,1.23c-1.17,0.21-2.46,0.31-3.2-1.08l-9.23-15.91
		c-0.09-0.15-0.31-0.15-0.39,0.01c-0.16,0.35-0.34,0.74-0.5,1.1c-0.12,0.27-0.16,0.56-0.1,0.85c1.03,5.77,1.26,7.3,1.62,9.03
		c0.45,2.16,1.46,5.88,2.79,7.09c0.26,0.23,0.1,0.48-0.28,0.55c0,0-3.68,0.66-8.48,1.51c-0.48,0.06-0.56-0.22-0.44-0.48
		c0.53-1.18,0.35-4.4-0.2-7.86c-0.54-3.39-3.41-20.16-4.02-22.66c-0.96-3.96-2.2-7.78-3.01-8.23c-0.3-0.17-0.33-0.61,0.05-0.68
		c0,0,4.34-0.78,9.14-1.63c0.49-0.06,0.44,0.29,0.3,0.55c-0.79,1.47-0.45,4.75-0.04,8.09c0.14,1.11,0.8,4.58,1.86,10.65
		c0.04,0.21,0.33,0.24,0.41,0.05c1.31-3.1,4.14-10.7,4.69-12.47c0.93-3.03,0.48-6.77-0.77-7.29c-0.46-0.19-0.36-0.66,0.07-0.73
		c0,0,4.84-0.74,7.94-1.3c0.56-0.1,0.86,0.32,0.37,0.63c-2.37,1.51-4.3,5.5-5.47,8.58c-0.17,0.44-1.46,3.96-2.25,6.82
		c-0.06,0.2-0.07,0.41,0.04,0.59c4.48,7.26,7.63,12.65,10.18,16.49c1.98,2.97,3.13,4.69,5.92,5.81
		C101.04,57.99,100.92,58.47,100.46,58.48z"/>
	<path class="st0" d="M127.71,29.43c0.03,0.22-0.29,0.65-0.74-0.12c-0.42-0.73-3.88-6.07-5.15-7.52c-1.52-1.75-2.48-2.6-3.58-2.58
		c-0.02,0-0.04,0-0.09,0.02c-0.07,0-0.13,0.02-0.22,0.07c-0.02-0.02-0.04,0-0.04,0c-0.09,0.04-0.17,0.13-0.23,0.22
		c-0.15,0.2-0.21,0.46-0.25,0.7c-0.12,0.91,0.11,16.39,0.31,25.9c0.07,2.79,0.1,4.77,0.13,5.72c0.04,1.12,0.24,2.74,0.71,4.05
		c0,0.02,0.02,0.02,0.02,0.04c0.32,0.88,0.74,1.61,1.31,1.92c0.24,0.13,0.2,0.32-0.01,0.41c-0.06,0.02-0.15,0.05-0.24,0.05
		c0,0-1.9,0.01-4.45,0.03l-0.41,0.01c-1.66,0.03-3.56,0.03-5.4,0.06c-0.5-0.01-0.46-0.34-0.22-0.52c0.64-0.46,1.04-1.36,1.28-2.35
		c0.02-0.02,0.04-0.04,0.02-0.07c0.33-1.3,0.41-2.77,0.44-3.76c0.04-1.41,0.07-2.68,0.05-5.12l0.02,0
		c-0.08-5.38-0.26-13.13-0.41-22.63c-0.06-3.65-0.33-4.73-1.52-4.69c-1.08,0.02-2.12,0.96-3.59,2.76c-1.23,1.49-4.51,6.94-4.91,7.68
		c-0.42,0.79-0.77,0.36-0.73,0.14c0.12-0.76,0.21-1.99,0.28-2.7c0.19-1.88,0.38-7.07,0.57-9.08c0.06-0.52,0.25-0.63,0.64-0.59
		c0.65,0.1,2.25,0.35,4.76,0.44c2.14,0.1,8.14-0.04,11.77-0.1l0.32,0c1.23-0.02,2.27-0.08,2.94-0.13c2.5-0.15,4.1-0.45,4.74-0.57
		c0.39-0.07,0.59,0.06,0.66,0.57c0.23,2.01,0.61,7.18,0.86,9.06C127.44,27.45,127.57,28.68,127.71,29.43z"/>
	<path class="st0" d="M158.81,43.15c-1.31,8.22-5.46,15.06-11.45,16.91c-3.33,1.01-8.6,0.78-12.37-3.01
		c-4.16-4.19-5.64-11.27-4.11-19.59c2.22-12.1,9.29-19.6,18.07-17.78C157.24,21.4,160.66,31.53,158.81,43.15z M151.52,40.39
		c0.11-2.05,0.13-4.04,0.09-5.89c-0.25-7.68-1.89-13.33-6.05-13.48c-4.61-0.2-7.1,8.28-7.36,18.82c-0.24,10.61,1.34,18.91,5.6,19.31
		C148.74,59.62,151.02,50.93,151.52,40.39z"/>
	<path class="st0" d="M179.23,76.38c-2.22-2.03-5.08-7.96-5.59-10.57c-1.29-4.87-1.15-10.04-0.62-15.57
		c0.01-0.13,0.03-0.37-0.05-0.5c-0.08-0.13-0.68-0.47-0.81-0.39c-0.12,0.04-0.18,0.18-0.23,0.3c-2.51,5.5-4.69,10.15-5.21,11.58
		c-0.65,1.82-0.99,4.14-0.33,5.37c0.24,0.25,0,0.52-0.36,0.36c0,0-4.87-2.33-9.3-4.39c-0.44-0.23-0.31-0.55,0.14-0.65
		c1.19-0.3,2.78-2.04,3.59-3.57c1.38-2.67,5.28-10.81,10.36-22.21c0.63-1.4,1.19-3.19,1.66-4.75c0.25-0.79,0.97-3.26,0.72-4.74
		c-0.08-0.54-0.16-0.93-0.08-1.11c0.1-0.43,1.18,0.48,3.9,1.5c2.85,1.09,4.06,1.51,6.7,3l0.06,0.03c0.91,0.49,1.78,1.04,2.68,1.67
		c0.97,0.69,1.85,1.5,2.62,2.45c1.23,1.55,2.14,3.44,2.43,5.7c0.12,0.87,0.03,1.99-0.25,3.17c-0.34,1.44-0.94,2.99-1.78,4.39
		c-1.22,2.06-2.89,3.76-4.89,4.28c-1.09,0.28-1.9,0.56-3.77,0.31c-0.43-0.11-0.5,0.21-0.52,0.34c-0.93,2.72-2.04,16.16-0.07,24.37
		C180.26,76.83,180.07,77.15,179.23,76.38z M181.71,46.42c2.06-2.23,3.32-5.67,3.74-7.65c0.1-0.43,0.15-0.79,0.16-1.07
		c0.06-1.35-0.3-3.42-1.53-5.21c-0.52-0.77-1.22-1.33-1.79-1.59l-0.12-0.05c-0.19-0.06-0.47-0.12-0.76-0.05
		c-0.39,0.08-0.66,0.34-0.84,0.63c-0.83,1.28-4.3,8.69-7.59,15.88c-0.16,0.33,0,0.72,0.34,0.85c1.81,0.77,3.7,1,4.67,0.67
		c1.81-0.61,2.64-1.28,3.49-2.19C181.56,46.59,181.63,46.5,181.71,46.42z"/>
	<path class="st0" d="M211,98.49c-1.85-2.38-3.66-8.7-3.72-11.36c-0.45-5.02,0.57-10.09,2.02-15.45c0.04-0.13,0.09-0.36,0.03-0.5
		c-0.06-0.14-0.59-0.58-0.74-0.52c-0.12,0.02-0.21,0.15-0.28,0.25c-3.4,5-6.34,9.22-7.09,10.53c-0.95,1.68-1.68,3.91-1.23,5.24
		c0.19,0.29-0.09,0.51-0.41,0.29c0,0-4.41-3.12-8.42-5.89c-0.4-0.3-0.22-0.6,0.24-0.62c1.22-0.1,3.09-1.54,4.14-2.91
		c1.81-2.4,7.03-9.76,13.96-20.14c0.85-1.27,1.71-2.94,2.44-4.41c0.38-0.74,1.51-3.05,1.51-4.55c0.01-0.55,0-0.95,0.11-1.11
		c0.18-0.41,1.09,0.67,3.59,2.14c2.63,1.55,3.75,2.17,6.1,4.09l0.05,0.04c0.82,0.64,1.58,1.32,2.36,2.1
		c0.84,0.84,1.57,1.79,2.17,2.86c0.96,1.74,1.53,3.76,1.43,6.02c-0.02,0.87-0.31,1.96-0.79,3.08c-0.58,1.36-1.43,2.79-2.49,4.03
		c-1.54,1.82-3.48,3.21-5.54,3.39c-1.12,0.09-1.97,0.23-3.76-0.33c-0.41-0.18-0.53,0.12-0.57,0.25c-1.38,2.53-4.74,15.58-4.18,24
		C211.94,99.11,211.69,99.39,211,98.49z M218.5,69.38c2.41-1.85,4.24-5.03,4.98-6.9c0.17-0.41,0.28-0.75,0.34-1.03
		c0.28-1.32,0.29-3.42-0.63-5.39c-0.39-0.85-0.98-1.51-1.49-1.87l-0.11-0.07c-0.17-0.09-0.44-0.2-0.75-0.17
		c-0.4,0.01-0.7,0.22-0.94,0.48c-1.04,1.12-5.7,7.84-10.16,14.37c-0.21,0.3-0.12,0.71,0.19,0.9c1.65,1.06,3.48,1.61,4.49,1.44
		c1.89-0.3,2.82-0.81,3.81-1.57C218.33,69.52,218.41,69.44,218.5,69.38z"/>
	<path class="st0" d="M240.65,112.96c-0.11,0.19-0.31,0.14-0.5,0.03l-9.8-5.83c-0.28-0.17-0.17-0.56,0.15-0.54
		c0,0,2.52-0.13,4.02-6.13l1-4.55c0.04-0.2-0.05-0.43-0.25-0.55l-7.23-4.4c-0.32-0.19-0.7-0.14-0.94,0.1l-3.24,3.12
		c-4.04,4.3-3.28,6.62-3.23,6.7c0.12,0.22-0.02,0.37-0.14,0.37c-0.09-0.03-0.25-0.13-0.4-0.22l-5.47-3.26
		c-0.39-0.23-0.25-0.6,0.23-0.59c0.33-0.01,2.3,0.11,8.31-5.36c1.01-0.93,1.04-0.91,24.46-22.31c0.24-0.19,0.59,0.02,0.54,0.32
		c0,0-5.5,26.48-5.77,27.95c-0.44,2.35-3.08,12.69-1.8,14.69C240.83,112.76,240.66,112.96,240.65,112.96z M236.16,93.58l3.31-13.46
		c0.14-0.4,0.15-0.76-0.39-0.23l-10.09,9.4c-0.14,0.14-0.11,0.39,0.08,0.5l6.56,4.01C235.83,93.91,236.09,93.81,236.16,93.58z"/>
	<path class="st0" d="M285.77,87.82c-2.12,0.58-4.33,5.04-6.01,9.19c-0.34,0.86-3.03,7.95-3.03,7.95s-7.04,19.44-7.23,20.04
		c-0.19,0.64-0.5,0.69-0.72-0.17c-0.14-0.88-6.34-31.59-7.14-35.73c-0.02-0.13-0.2-0.14-0.24-0.02c-0.45,1.17-1.08,2.87-1.08,2.87
		s-5.09,13.39-5.83,15.9c-1.04,3.6-2.58,8.03-1.16,9.93c0.2,0.21,0.11,0.76-0.36,0.6c-2.41-0.95-3.13-1.24-6.62-2.4
		c-0.34-0.13-0.21-0.49,0.12-0.58c2.33-0.64,4.22-4.92,5.72-8.51c0.74-1.75,7.53-20.09,8.2-22.56c0.86-3.16-0.08-5.74-0.41-6.02
		c-0.19-0.16-0.11-0.57,0.2-0.55l0.64,0.26c0.43,0.16,1.07,0.39,1.73,0.61c2.81,1.01,4.26,1.56,4.26,1.56
		c0.45,0.16,0.47,0.54,0.49,0.66c0,0,3.85,15.98,5.67,27.25c0.02,0.14,0.19,0.16,0.25,0.02c0,0,4.17-11.61,4.4-12.24
		c1.35-3.88,2.68-9.14,1.42-10.64c-0.22-0.27,0.01-0.59,0.37-0.46c0,0,3.75,1.38,6.35,2.33C286.25,87.31,286.15,87.73,285.77,87.82z
		"/>
	<path class="st0" d="M305.61,131.2c0,0-2.68-0.41-6.89-1.07c-1.18-0.19-2.43-0.5-2.67-2.06l-3.55-18.05
		c-0.03-0.17-0.25-0.24-0.37-0.11c-0.27,0.28-0.56,0.59-0.84,0.88c-0.2,0.21-0.33,0.48-0.38,0.77c-0.91,5.8-1.19,7.32-1.41,9.07
		c-0.27,2.19-0.53,6.03,0.33,7.62c0.17,0.3-0.07,0.49-0.45,0.43c0,0-3.69-0.58-8.51-1.34c-0.48-0.1-0.46-0.39-0.26-0.6
		c0.89-0.94,1.76-4.04,2.37-7.5c0.59-3.38,3.34-20.18,3.58-22.73c0.38-4.06,0.45-8.07-0.17-8.76c-0.23-0.26-0.12-0.69,0.26-0.63
		c0,0,4.36,0.68,9.17,1.44c0.48,0.1,0.32,0.42,0.11,0.62c-1.22,1.13-1.97,4.35-2.67,7.63c-0.23,1.09-0.74,4.59-1.71,10.68
		c-0.03,0.21,0.23,0.34,0.37,0.18c2.25-2.5,7.4-8.77,8.49-10.26c1.87-2.56,2.66-6.24,1.64-7.15c-0.37-0.33-0.12-0.74,0.31-0.67
		c0,0,4.82,0.87,7.93,1.35c0.56,0.09,0.71,0.58,0.14,0.71c-2.73,0.65-5.86,3.8-7.97,6.33c-0.3,0.36-2.67,3.27-4.35,5.72
		c-0.12,0.17-0.21,0.37-0.16,0.57c1.88,8.32,3.1,14.45,4.26,18.9c0.9,3.45,1.44,5.45,3.71,7.43
		C306.31,130.92,306.05,131.34,305.61,131.2z"/>
</g>
</svg>
