<svg xmlns="http://www.w3.org/2000/svg" width="711.026" height="248.375" viewBox="0 0 711.026 248.375">
  <g id="Group_113" data-name="Group 113" transform="translate(-305.014 -272.934)">
    <g id="Group_110" data-name="Group 110" transform="translate(305.014 272.934)">
      <g id="Group_109" data-name="Group 109">
        <path id="Path_1217" data-name="Path 1217" d="M358.956,376.188c-1.924-.449-6.292-1.918-7.16-2.194-2.968-.976-6.178-1.98-9.248-2.943l-.641-.2c-3.117-.976-3.129-.988-3.234-1.565-.288-1.555,4.1-1.159,6.466-8.749l2.7-8.613c.26-.672.489-1.41.737-2.187.762-2.277,1.577-4.889,2.544-7.8l.214-.688c.933-3.132,2.324-7.575,3.888-12.572a1.393,1.393,0,0,0-.911-1.744l-17.554-5.5a1.391,1.391,0,0,0-1.744.914c-1,3.358-2.122,6.934-3.216,10.416l-.613,1.974c-.545,1.89-1.115,3.876-1.654,5.92-1.224,4.4-2.32,9.49-3.166,13.8-1.84,9.892.846,9.827.35,10.93-.279.567.053.539-4.715-.951l-16.11-5.019c-1.041-.375-1.357-1.131.226-1.688,1.156-.644,2.723-3.073,4.393-6.475l3.145-10.038c.245-.778.548-1.586.821-2.46l.257-.824c.245-.778.49-1.555.793-2.367l1.521-4.858c.3-.967.651-1.912.967-2.918,2.224-7.1,4.849-15.643,7.77-25.3l3.777-12.049c.536-2.2,1.013-4.362,1.388-6.364,1.884-9.877-.861-9.781-.322-10.868.254-.474.177-.4,4.1.731.366.115.836.211,1.3.356l.183.053c3.6,1.184,7.99,2.609,12.207,3.928l3.346,1.047c1.038.375,1.354,1.131-.226,1.692-2.485,1.332-6.333,10.1-9.654,19.723q-1.055,3.142-2.116,6.28l-.387,1.239c-.545,1.893-1.335,4.415-2.24,7.3a2.084,2.084,0,0,0,1.357,2.59l16.863,5.282a1.437,1.437,0,0,0,1.791-.9c.483-1.707,1.016-3.4,1.546-5.1l1.6-5.084c.266-1.025.582-2.032.883-3,.976-3.117,1.791-5.88,2.447-8.142,1.828-7.426,2.745-13.731,1.75-15.7-.979-1.363-.17-2.017.9-1.732.964.3,4.635,1.6,6.19,2.088l.505.158c2.655.833,5.53,1.781,8.418,2.686l1.558.49c3.712,1.162,3.253,1.022,3.188,1.549-.115,1.174-2.33-.424-6.237,8.817-.26.675-.582,1.379-.855,2.1-1.487,3.612-2.466,7.761-3.681,11.305-5.834,17.346-14.437,47.333-14.465,47.426-1.469,6.782-2.128,12.417-1.156,14.279C360.713,376.036,360.025,376.473,358.956,376.188Z" transform="translate(-305.014 -272.934)"/>
        <path id="Path_1218" data-name="Path 1218" d="M381.811,355.183c-5.639,12.842-7.383,17.542-9.239,23.357-.127.462-.223.635-1.428.3-5.555-1.531-21.374-5.945-21.467-5.97-7.841-1.915-12.674-3.346-19.143-5.183l-.012.043-3.334-.917a1.519,1.519,0,0,1-.607-.319c-1.1-.353-1.007-1.422.335-1.949C331.937,359.7,335,347.7,337.954,337.9c2.358-7.82,6.831-24.918,6.831-24.918.344-1.252.675-2.451.96-3.671l.217-.787a138.107,138.107,0,0,0,3.77-18.189c.053-.533.133-1.01.167-1.5a.642.642,0,0,1,.031-.291c.421-5.862-.8-7.593-.97-8.588a1.054,1.054,0,0,1,.05-.533.166.166,0,0,1,.084-.124c.211-.393.555-.2,5.3,1.013l.229.062a4.391,4.391,0,0,0,.8.17c6.658,1.689,12.5,3.448,18.61,5.137,3.659,1.007,9.477,2.661,15.178,3.839,1.846.362,3.182.579,4.192.706.917.105,1.558.133,2,.155a2.72,2.72,0,0,1,1.394.186c.644.378-.412,2.575-1.165,6.206-1.518,7.3-2.286,10.627-3.228,15.847-.245,1.627-.57,3.334-.923,4.976-.071.431-.239.682-.449.722a.434.434,0,0,1-.245-.016c-1.716-.626-2.621-9.988-6.528-17.5-5.335-10.286-13.248-13.567-15.088-13.028a2.638,2.638,0,0,0-1.614,1.7c-1.208,2.754-4.821,15.655-9.065,31.226a1.333,1.333,0,0,0,.406,1.407c1.264,1.2,4.9,1.4,7.872.728.855-.214,1.608-.406,2.308-.61a15.992,15.992,0,0,0,7.7-4.8c.508-.756,1.7-.725,1.249.892l-.028.093a163,163,0,0,0-4.065,17.811.089.089,0,0,1-.037.136c-.688,4.294-1.038,7.185-1.038,7.185-.059.579-.48,1.214-.877,1.205-.319.059-.635-.226-.8-1.069a28.8,28.8,0,0,0-3.569-8.557c-.031-.056-.018-.105-.081-.071-2.274-3.668-5.053-6.426-7.281-7.538-1.881-.967-3.436-.75-3.944,1.1-4.548,16.485-6.658,24.664-7.594,28.6a20.382,20.382,0,0,0-.375,2.085c-.477,1.912-.84,3.4-1.084,4.288-.57,2.432-.366,4.579,1.239,5.62.046.012.081.071.173.1a13.221,13.221,0,0,0,10.7-.682c11.026-5.481,21.25-17.8,23.791-16.9C383.657,351.908,382.527,353.488,381.811,355.183Z" transform="translate(-261.349 -259.956)"/>
        <path id="Path_1219" data-name="Path 1219" d="M422.9,297.744c-4.48,1.961-7.9,12.482-10.258,22.145-.471,2.014-4.1,18.474-4.1,18.474s-9.189,45.025-9.428,46.4c-.208,1.475-.886,1.679-1.636-.149-.592-1.89-24.156-67.431-27.27-76.27a.287.287,0,0,0-.548.031c-.614,2.717-1.438,6.667-1.438,6.667s-6.872,31.093-7.683,36.859c-1.128,8.247-3.064,18.493.669,22.214.505.4.5,1.623-.595,1.447-5.611-1.32-7.3-1.719-15.336-3.151-.8-.164-.623-1.013.074-1.311,4.917-2.159,7.693-12.179,9.83-20.562,1.05-4.1,10.06-46.615,10.744-52.259.871-7.225-2.035-12.588-2.86-13.105a.691.691,0,0,1,.266-1.267l1.5.359c.982.208,2.488.517,4,.784,6.5,1.307,9.871,2.06,9.871,2.06a1.639,1.639,0,0,1,1.3,1.3s13.638,33.891,21.3,58.1a.277.277,0,0,0,.548-.031s5.406-26.886,5.713-28.342c1.716-8.96,2.943-20.968-.328-23.856-.579-.511-.17-1.311.678-1.137l14.713,3.07C423.8,296.465,423.7,297.422,422.9,297.744Z" transform="translate(-221.632 -249.903)"/>
        <path id="Path_1220" data-name="Path 1220" d="M426.034,391.881c-6.088-2.785-16.188-13.375-19.038-18.555-6.051-9.431-9.282-20.466-11.937-32.53a2.06,2.06,0,0,0-.455-1.025c-.263-.226-1.76-.53-1.986-.27a1.186,1.186,0,0,0-.291.793c-1.546,13.356-2.99,24.689-3.114,28.06-.142,4.291.725,9.428,2.977,11.593.675.372.344,1.109-.511,1,0,0-11.894-1.611-22.666-2.934-1.088-.183-1.044-.951-.155-1.472,2.311-1.453,4.492-6.215,5.152-10.007,1.1-6.587,3.789-26.48,6.751-54.069a90.682,90.682,0,0,0,.263-11.194c-.016-1.84-.18-7.569-1.7-10.512a6.24,6.24,0,0,1-.926-2.3c-.074-.979,2.829.2,9.276.511,6.772.35,9.623.412,16.228,1.76l.143.019a58.6,58.6,0,0,1,6.807,1.707,29.139,29.139,0,0,1,7.222,3.4,25.2,25.2,0,0,1,9.025,10.4,19.575,19.575,0,0,1,1.62,6.872,34.629,34.629,0,0,1-.759,10.5c-1.171,5.18-3.544,9.917-7.432,12.386a17.772,17.772,0,0,1-7.749,3.228c-.985.062-.929.784-.874,1.078-.105,6.4,6.714,35.579,16.495,51.6C428.513,392.141,428.324,392.94,426.034,391.881ZM410.816,326.8c2.835-6.137,3.163-14.276,2.692-18.728a12.727,12.727,0,0,0-.381-2.376,19.825,19.825,0,0,0-6.8-9.976,10.493,10.493,0,0,0-4.864-2.147l-.285-.034a3.135,3.135,0,0,0-1.648.421,2.885,2.885,0,0,0-1.351,1.918c-.886,3.275-3.157,21.328-5.208,38.782a1.392,1.392,0,0,0,1.307,1.568c4.35.39,8.514-.406,10.329-1.778a16.636,16.636,0,0,0,5.893-7.014C410.615,327.26,410.692,327.018,410.816,326.8Z" transform="translate(-172.454 -241.148)"/>
        <path id="Path_1221" data-name="Path 1221" d="M412.431,380.781c.3.595.505,1.23-.6,1.211-1.152-.071-2.3-.139-3.457-.161-5.945-.366-11.218-.641-14.289-.787-1.772-.105-2.776-.17-2.776-.17-.867-.05-.812-.961-.2-1.456,2.122-1.648,3.947-7.07,5.127-20.033.053-.815.186-2.2.3-4.071.576-7.8,1.6-23.766,2.392-38.872.112-1.822.146-3.213.2-4.031.415-13.012-.728-18.614-2.633-20.559-.545-.514-.49-1.425.378-1.376l2.776.173c3.064.235,8.334.607,14.276.973l3.454.217c1.1.111.821.719.449,1.276-2.385,3.6-3.107,10.633-3.885,18.573-.152,1.723-.319,3.634-.443,5.648-1.289,18.589-2.5,39.1-2.6,43.863l-.047.716C410.643,369.94,410.5,376.908,412.431,380.781Z" transform="translate(-125.335 -236.133)"/>
        <path id="Path_1222" data-name="Path 1222" d="M458.428,381.792s-6.023-.016-15.5-.084c-2.652-.016-5.5-.307-6.559-3.65L422.61,339.552a.479.479,0,0,0-.849-.121c-.489.7-1.035,1.472-1.546,2.206a3.133,3.133,0,0,0-.573,1.816c-.074,13.037-.186,16.473-.093,20.4.118,4.911.824,13.446,3.247,16.631.465.614.009,1.1-.846,1.091,0,0-8.309-.047-19.153-.124-1.087-.056-1.14-.7-.768-1.233,1.639-2.367,2.525-9.474,2.723-17.272.189-7.631.666-45.462.359-51.169-.5-9.053-1.676-17.886-3.275-19.2-.595-.486-.483-1.478.375-1.475,0,0,9.806.056,20.643.13,1.088.059.849.818.446,1.323-2.317,2.9-2.9,10.205-3.346,17.666-.143,2.469-.1,10.342-.229,24.035a.477.477,0,0,0,.874.27c4.124-6.237,13.368-21.718,15.28-25.374,3.262-6.249,3.78-14.6,1.252-16.253-.923-.6-.521-1.58.449-1.574,0,0,10.89.322,17.876.347,1.267.009,1.744,1.041.551,1.527-5.8,2.336-11.63,10.3-15.435,16.556-.536.892-4.79,8.071-7.677,14.013a1.634,1.634,0,0,0-.164,1.311c6.878,17.678,11.581,30.734,15.605,40.146,3.123,7.287,4.957,11.513,10.6,15.1C459.887,380.94,459.441,381.946,458.428,381.792Z" transform="translate(-102.647 -234.807)"/>
        <path id="Path_1223" data-name="Path 1223" d="M456.294,379.071c.375.552.66,1.156-.443,1.283-1.149.077-2.3.161-3.442.288-5.939.418-11.206.837-14.267,1.1-1.775.127-2.779.2-2.779.2-.861.059-.926-.849-.387-1.419,1.887-1.912,2.984-7.522,2.457-20.531-.056-.815-.105-2.206-.235-4.074-.455-7.813-1.524-23.766-2.726-38.844-.127-1.822-.273-3.207-.328-4.025-1.3-12.95-3.166-18.356-5.3-20.036-.61-.434-.672-1.348.186-1.41,0,0,1.007-.068,2.782-.192,3.07-.167,8.343-.486,14.279-.9l3.445-.242c1.109-.031.911.607.62,1.205-1.9,3.888-1.685,10.949-1.419,18.923.071,1.729.158,3.643.3,5.657,1.159,18.595,2.646,39.092,3.169,43.82l.05.719C453.1,368.562,453.878,375.486,456.294,379.071Z" transform="translate(-46.175 -236.591)"/>
        <path id="Path_1224" data-name="Path 1224" d="M498.526,369.932c-4.567,4.477-10.3,7.683-21.489,9.09l-4.818.539c-4.966.511-13.92,1.661-22.511,2.584-1.1.077-1.7-.486-.477-1.636,1.732-2.228,1.713-11.835.809-22.025-1.019-12.058-2.435-23.347-5.248-41.484-.691-4.418-1.633-9.765-2.6-14.053-2.268-9.846-4.746-8.7-4.691-9.911.031-.582-.047-.431,5.57-1.149,6.763-.908,12.668-2.494,19.4-2.72.04,0,.1.04.152.037a50.113,50.113,0,0,1,7.011.074,26.2,26.2,0,0,1,19,9.6c4.945,6.209,6.958,18.105-.226,25.482-2.035,2.07-6.212,4.421-10.692,6.277.053.043.053.043.1.037,6.909.431,15.19,3.65,20.265,9.7C504.118,347.52,505.744,362.794,498.526,369.932Zm-36.859-39.52a.856.856,0,0,0,.957.762c4.526-.558,8.765-2.386,10.249-4.195a18.066,18.066,0,0,0,4.26-8.932c1.558-8.055-.551-13.468-2.187-16.42A19.053,19.053,0,0,0,466,293.454a10.356,10.356,0,0,0-5.174-.96c-.1.009-.189.068-.285.081a2.815,2.815,0,0,0-1.555.753,3.158,3.158,0,0,0-.867,2.178C458.027,298.941,459.607,312.966,461.667,330.412Zm22.725,12.609a19.035,19.035,0,0,0-8.9-7.835,18.747,18.747,0,0,0-7.612-1.122c-.093.009-.149-.034-.242-.022l-4.585.514a.829.829,0,0,0-.762.951c1.574,13.542,3.557,29.841,3.978,33.178.49,3.47.886,5.694,4.66,7.1,4.932.9,8.69-1.555,11.209-4.238,2.042-2.178,3.712-6.15,4.427-9.31C488.382,354.094,486.012,345.884,484.392,343.021Z" transform="translate(-27.039 -238.98)"/>
        <path id="Path_1225" data-name="Path 1225" d="M516.093,353.471c1.3,12.042-6.159,20.981-17.1,24.441-12.643,3.77-27.762.871-30.324.44-1.143-.192-1.109-.843-.967-1.884,1.45-10.366.985-28.525.985-28.525-.031-.79,1.022-1.428,1.617-.2,2.652,5.474,11.212,28.686,23.366,26.972,8.644-1.214,9.254-10.19,6.6-16.312-4.477-10.366-19.15-17.213-30.4-26.148-7.507-5.955-11.621-11.556-12.008-20.649-.57-13.508,8.957-24.3,24.128-25.38,7.786-.558,12.337.034,20.082,2.159.192.05.39.474.319,1.156-1,8.969-.672,19.568-1.069,21.486a.683.683,0,0,1-1.205.257c-.8-1.561-10.481-19.915-20.091-20.556-11.85-.787-12.123,14.162-5.477,21.675,5.065,5.725,13.873,9.273,25.51,17.9C512.511,339.545,515.164,344.923,516.093,353.471Z" transform="translate(15.634 -245.467)"/>
        <path id="Path_1226" data-name="Path 1226" d="M536.136,347.413c.18,14.022.536,19.016,1.252,25.079.074.474.059.672-1.174.867-5.688.9-21.916,3.423-22.009,3.442-7.931,1.493-12.925,2.19-19.574,3.194l.006.05-3.414.539a1.512,1.512,0,0,1-.682-.037c-1.146.133-1.506-.877-.5-1.912,2.568-6.487.393-18.679-.97-28.822-1.087-8.089-4.09-25.5-4.09-25.5-.2-1.283-.4-2.513-.641-3.739l-.124-.806a138.511,138.511,0,0,0-4.093-18.118c-.173-.508-.3-.973-.468-1.435a.594.594,0,0,1-.09-.279c-2.042-5.505-3.863-6.58-4.437-7.411a1.067,1.067,0,0,1-.177-.508.179.179,0,0,1,.028-.149c.025-.446.421-.409,5.242-1.27l.235-.037a4.468,4.468,0,0,0,.8-.177c6.757-1.214,12.8-2.029,19.063-3.021,3.742-.595,9.731-1.49,15.407-2.782,1.825-.431,3.126-.787,4.1-1.084.874-.285,1.469-.527,1.881-.691a2.729,2.729,0,0,1,1.345-.406c.747.078.691,2.519,1.509,6.131,1.639,7.274,2.314,10.62,3.615,15.76.446,1.58.855,3.265,1.218,4.911.111.418.062.719-.112.843a.393.393,0,0,1-.232.087c-1.822.139-6.515-8.009-13.18-13.226-9.1-7.163-17.662-6.875-19.119-5.623a2.662,2.662,0,0,0-.771,2.209c.043,3.011,2.094,16.25,4.663,32.174a1.343,1.343,0,0,0,.957,1.115c1.642.567,5.034-.75,7.463-2.59.694-.548,1.3-1.035,1.853-1.515a15.948,15.948,0,0,0,5.025-7.55c.149-.9,1.242-1.363,1.506.3l.015.093a162.217,162.217,0,0,0,3.662,17.895.1.1,0,0,1,.025.143c1.149,4.192,2.026,6.968,2.026,6.968.183.555.056,1.3-.307,1.459-.263.186-.669.056-1.171-.641a28.574,28.574,0,0,0-6.788-6.311c-.05-.043-.059-.09-.1-.037-3.594-2.395-7.259-3.758-9.753-3.848-2.107-.1-3.43.737-3.132,2.633,2.677,16.885,4.139,25.206,4.917,29.166a18.871,18.871,0,0,0,.521,2.054c.356,1.939.641,3.451.784,4.353.483,2.451,1.561,4.319,3.451,4.6.05-.006.105.034.2.018a13.218,13.218,0,0,0,9.462-5.047c7.773-9.545,11.984-24.99,14.67-25.222C536.468,343.667,536.09,345.573,536.136,347.413Z" transform="translate(51.534 -253.088)"/>
        <path id="Path_1227" data-name="Path 1227" d="M553.767,280.491c-3.448,3.464-2.782,14.509-1.435,24.364.3,2.042,2.95,18.685,2.95,18.685s7.934,45.261,8.219,46.624c.344,1.453-.214,1.89-1.58.468-1.239-1.543-47.16-53.9-53.291-60.984a.284.284,0,0,0-.5.229c.421,2.754,1.1,6.729,1.1,6.729s4.988,31.443,6.345,37.106c1.967,8.089,3.913,18.329,8.752,20.42.617.189,1.053,1.332-.022,1.565-5.707.827-7.42,1.075-15.422,2.686-.8.136-.948-.716-.409-1.245,3.78-3.814,2.7-14.149,1.617-22.734-.524-4.195-7.7-47.048-9.13-52.557-1.837-7.039-6.506-10.967-7.463-11.144a.692.692,0,0,1-.217-1.276l1.524-.214c.995-.167,2.509-.428,4.012-.731,6.525-1.168,9.939-1.7,9.939-1.7a1.652,1.652,0,0,1,1.685.734s25.095,26.545,41.081,46.268a.277.277,0,0,0,.5-.229s-4.808-26.994-5.059-28.463c-1.682-8.963-4.932-20.587-9.037-22.077-.725-.266-.638-1.162.217-1.3l14.812-2.531C554.145,278.97,554.4,279.9,553.767,280.491Z" transform="translate(89.264 -259.902)"/>
        <path id="Path_1228" data-name="Path 1228" d="M574.951,342.928c1.747,11.987-5.369,21.194-16.178,25.064-12.495,4.238-27.707,1.9-30.284,1.571-1.146-.149-1.14-.805-1.035-1.85,1.059-10.413-.084-28.537-.084-28.537-.059-.787.97-1.469,1.6-.263,2.859,5.369,12.278,28.243,24.358,26.077,8.591-1.537,8.864-10.531,5.992-16.547-4.864-10.19-19.782-16.482-31.353-24.987-7.721-5.67-12.046-11.116-12.767-20.187-1.078-13.477,8.037-24.615,23.156-26.263,7.761-.846,12.33-.424,20.15,1.41.2.04.409.462.363,1.143-.669,9,.062,19.577-.266,21.507a.682.682,0,0,1-1.193.3c-.864-1.531-11.218-19.509-20.847-19.794-11.869-.338-11.584,14.608-4.66,21.864,5.273,5.53,14.208,8.749,26.155,16.941C570.846,329.145,573.7,334.421,574.951,342.928Z" transform="translate(135.811 -265.268)"/>
      </g>
    </g>
    <g id="Group_112" data-name="Group 112" transform="translate(529.992 432.462)">
      <g id="Group_111" data-name="Group 111">
        <path id="Path_1229" data-name="Path 1229" d="M429.881,337.268c-1.589.564-3.145,2.4-4.533,4.932-.964,1.741-2.788,6.906-3.6,9.028-.607,2.07-1.949,6.475-4.517,14.933l-5.354,18.149c-2.661,9.019-11.3,14.474-21.582,11.435-10.36-3.055-14.54-12.287-11.881-21.306l.629-2.135c.211-.716.465-1.447.688-2.2,1.18-4.006,3.4-11.128,5.307-17.607l.555-1.9c.505-1.695.948-3.334,1.382-4.793.7-2.525,1.372-4.8,1.912-6.742l.05-.17c1.354-5.347,1.781-8.836,1.67-11.008a.11.11,0,0,1-.016-.078,5.382,5.382,0,0,0-.632-2.438c-.282-.446-.146-1.035.424-.942l.071.022c1.314.387,3.061.939,5.028,1.521,2.029.635,4.554,1.379,7.244,2.178l2.485.731c.79.266.486.654.13.985a14.98,14.98,0,0,0-3.111,5.059c-.019.068-.037.136-.084.158-.434,1.091-.88,2.215-1.32,3.448-.068.239-.18.5-.254.737a9.131,9.131,0,0,1-.322.973c-.753,2.429-1.8,5.735-3.018,9.722-.273.914-.914,3.092-1.682,5.44l-.17.579c-.731,2.361-1.509,4.864-1.936,6.317-1.032,3.5-2.169,7.473-3.321,11.37l-.685,2.342-.443,1.754c-1.531,5.186.756,11.463,6.109,13.04s10.493-2.553,12.349-7.637c1.425-3.891,4.65-13.886,4.65-13.886,1.45-5.174,4.015-14.124,4.232-14.983,1.112-3.91,3.07-11.8,3.169-15.457.1-2.37-.2-4.3-1.1-5.189a.468.468,0,0,1-.059-.682.522.522,0,0,1,.6-.124s6.4,1.961,10.825,3.268a.731.731,0,0,1,.527.375A.547.547,0,0,1,429.881,337.268Z" transform="translate(-377.631 -324.426)"/>
        <path id="Path_1230" data-name="Path 1230" d="M446.885,336.244c-3.278,1.651-5.419,9.669-6.794,17.006-.27,1.524-2.324,14-2.324,14s-5.075,34.1-5.2,35.136c-.1,1.115-.6,1.292-1.236-.046-.517-1.385-20.8-49.533-23.49-56.033a.213.213,0,0,0-.406.05c-.353,2.057-.812,5.053-.812,5.053s-3.9,23.558-4.272,27.914c-.514,6.224-1.555,13.969,1.391,16.609.4.279.44,1.2-.384,1.106-4.257-.762-5.533-.991-11.615-1.741-.6-.09-.505-.731,0-.982,3.6-1.819,5.27-9.431,6.534-15.8.629-3.111,5.667-35.322,5.948-39.576.366-5.446-2.026-9.347-2.664-9.7a.518.518,0,0,1,.146-.96l1.134.208c.747.115,1.884.288,3.03.428,4.92.716,7.479,1.143,7.479,1.143a1.246,1.246,0,0,1,1.026.926s11.575,24.835,18.285,42.661a.208.208,0,0,0,.409-.046s2.971-20.352,3.138-21.458c.926-6.779,1.363-15.825-1.205-17.858-.455-.359-.18-.976.462-.877l11.147,1.7C447.507,335.253,447.47,335.972,446.885,336.244Z" transform="translate(-348.885 -316.335)"/>
        <path id="Path_1231" data-name="Path 1231" d="M425.306,398.145c.223.446.375.926-.455.908-.861-.053-1.726-.108-2.593-.121-4.455-.282-8.415-.5-10.716-.607l-2.088-.127c-.648-.04-.6-.725-.149-1.091,1.6-1.239,2.968-5.3,3.873-15.029.034-.61.136-1.651.226-3.055.437-5.855,1.224-17.827,1.828-29.16.084-1.363.118-2.41.152-3.021.322-9.759-.53-13.966-1.952-15.429-.412-.384-.372-1.072.276-1.029,0,0,.759.046,2.085.133,2.3.18,6.255.462,10.713.744l2.587.161c.827.087.613.542.338.957-1.794,2.7-2.342,7.974-2.934,13.932-.115,1.292-.242,2.726-.338,4.238-.979,13.942-1.912,29.336-1.989,32.9l-.034.542C423.974,390.012,423.863,395.239,425.306,398.145Z" transform="translate(-311.891 -311.926)"/>
        <path id="Path_1232" data-name="Path 1232" d="M461.584,331.738c-3.073,1.338-6.475,10.747-9.248,21.718-.57,2.237-11.525,46.156-11.525,46.156a.448.448,0,0,1-.877.019s-13.632-44.5-14.369-46.81c-1.205-3.739-5.747-19.4-9.043-20.537a.594.594,0,0,1-.437-.6c0-.35.257-.477.573-.474l4.062-.04c.108,0,.226.006.332,0l13.985-.143a.5.5,0,0,1,.223.911s-.22-.09-.824.864c-1.159,1.822-1.462,5.924.384,12.526l8.34,29.847c.149.691.384,1.23.644.025l5.558-22.914c1.865-9.186,2.4-18.88-.226-20.386-.2-.112-.427-.093-.552-.18-.291-.189-.1-.7.078-.8a2.146,2.146,0,0,1,.62-.028l12.244-.13C462.17,330.759,462.191,331.459,461.584,331.738Z" transform="translate(-296.953 -311.132)"/>
        <path id="Path_1233" data-name="Path 1233" d="M474.149,378.649c-.623,10.5-.629,14.258-.418,18.827.031.359.006.508-.926.586-4.3.369-16.581,1.379-16.652,1.385-6.014.694-9.787.945-14.815,1.338l0,.034-2.581.22a1.205,1.205,0,0,1-.511-.065c-.864.037-1.075-.74-.269-1.459,2.274-4.712,1.3-13.954.83-21.609-.378-6.113-1.679-19.3-1.679-19.3-.087-.973-.164-1.9-.279-2.832l-.056-.613a103.652,103.652,0,0,0-2.076-13.771c-.109-.391-.171-.744-.273-1.1a.46.46,0,0,1-.056-.214,13.719,13.719,0,0,0-2.915-5.787.754.754,0,0,1-.105-.387.139.139,0,0,1,.025-.112c.047-.331.341-.282,3.993-.669l.18-.012a3.376,3.376,0,0,0,.607-.09c5.121-.542,9.685-.824,14.425-1.23,2.832-.242,7.355-.592,11.677-1.245,1.388-.229,2.385-.425,3.129-.592.672-.167,1.128-.316,1.447-.412a1.946,1.946,0,0,1,1.029-.236c.548.1.381,1.918.793,4.669.836,5.53,1.159,8.068,1.856,11.987.245,1.205.462,2.488.644,3.736.062.319.009.545-.127.629a.29.29,0,0,1-.18.047c-1.373.012-4.443-6.339-9.143-10.6-6.429-5.849-12.845-6.1-14-5.239a1.969,1.969,0,0,0-.694,1.611c-.133,2.255.685,12.272,1.75,24.32a.98.98,0,0,0,.651.88c1.2.517,3.808-.282,5.725-1.53.545-.375,1.025-.7,1.465-1.032a11.98,11.98,0,0,0,4.167-5.378c.161-.663,1-.954,1.112.307l.006.068a120.4,120.4,0,0,0,1.772,13.582.067.067,0,0,1,.009.109c.635,3.2,1.14,5.326,1.14,5.326.108.424-.025.976-.3,1.072-.208.127-.508.009-.846-.539a21.382,21.382,0,0,0-4.731-5.09c-.04-.037-.043-.071-.081-.031a15.647,15.647,0,0,0-7.085-3.4c-1.568-.2-2.605.363-2.482,1.8,1.091,12.774,1.735,19.081,2.1,22.083.04.431.155.96.279,1.568.164,1.469.294,2.612.353,3.3.232,1.859.932,3.315,2.333,3.631.037-.006.077.031.146.025a9.92,9.92,0,0,0,7.352-3.269c6.329-6.72,10.311-18.05,12.334-18.075C474.6,375.864,474.214,377.267,474.149,378.649Z" transform="translate(-264.884 -314.217)"/>
        <path id="Path_1234" data-name="Path 1234" d="M501.088,396.5c-4.969-.709-14.474-6.19-17.625-9.313-6.351-5.5-11.014-12.749-15.481-20.869a1.526,1.526,0,0,0-.545-.641c-.239-.1-1.376-.006-1.484.229a.893.893,0,0,0-.04.632c1.716,9.933,3.076,18.394,3.7,20.844.809,3.117,2.525,6.624,4.6,7.708.567.124.483.719-.155.83,0,0-8.9,1.36-16.925,2.692-.821.1-.951-.468-.427-1.029,1.357-1.534,1.918-5.422,1.586-8.291-.6-4.969-2.881-19.85-6.6-40.325a67.488,67.488,0,0,0-2.181-8.108c-.4-1.32-1.729-5.4-3.451-7.2-.623-.66-1.1-1.131-1.156-1.453-.26-.691,2.079-.452,6.779-1.6a66.191,66.191,0,0,1,12.052-2.172l.108-.019a45.533,45.533,0,0,1,5.255-.217,22.064,22.064,0,0,1,5.92.92,18.891,18.891,0,0,1,8.687,5.567,14.642,14.642,0,0,1,2.624,4.6A25.85,25.85,0,0,1,488.008,347c.257,3.978-.446,7.885-2.717,10.487a13.449,13.449,0,0,1-4.892,3.966.62.62,0,0,0-.4.96c1.283,4.622,12.371,24.169,22.8,33.621C502.925,396.16,502.959,396.777,501.088,396.5Zm-24.739-43.585c.747-5.016-.75-10.943-2.032-14.047a9.615,9.615,0,0,0-.775-1.626,14.9,14.9,0,0,0-7.011-5.738,7.973,7.973,0,0,0-3.953-.514l-.211.037a2.328,2.328,0,0,0-1.1.66,2.172,2.172,0,0,0-.567,1.661c.059,2.547,2.249,16.011,4.474,29a1.042,1.042,0,0,0,1.27.852c3.213-.641,6.041-2.094,7.054-3.467a12.428,12.428,0,0,0,2.754-6.3C476.306,353.282,476.309,353.093,476.349,352.913Z" transform="translate(-236.527 -316.519)"/>
        <path id="Path_1235" data-name="Path 1235" d="M507.51,373.367c1.763,8.913-3.231,16.083-11.175,19.382-9.2,3.646-20.689,2.469-22.632,2.314-.868-.068-.883-.558-.843-1.345.4-7.838-1.134-21.38-1.134-21.38-.074-.586.672-1.131,1.2-.254,2.339,3.916,10.255,20.7,19.224,18.626,6.376-1.478,6.246-8.223,3.863-12.622-4.021-7.457-15.435-11.609-24.419-17.545-6-3.963-9.44-7.875-10.323-14.645-1.314-10.053,5.093-18.744,16.364-20.544a38.546,38.546,0,0,1,15.147.3c.142.025.322.328.313.84-.164,6.773.777,14.67.607,16.123a.512.512,0,0,1-.883.273c-.7-1.115-9.136-14.2-16.358-14.044-8.9.192-8.129,11.373-2.674,16.553,4.158,3.944,10.98,6.02,20.234,11.708C503.919,363.2,506.255,367.044,507.51,373.367Z" transform="translate(-202.508 -323.759)"/>
      </g>
    </g>
  </g>
</svg>
