<?xml version="1.0" encoding="utf-8"?>
<!-- Generator: Adobe Illustrator 23.0.1, SVG Export Plug-In . SVG Version: 6.00 Build 0)  -->
<svg version="1.1" id="Layer_1" xmlns="http://www.w3.org/2000/svg" xmlns:xlink="http://www.w3.org/1999/xlink" x="0px" y="0px"
	 viewBox="0 0 251.74 83" style="enable-background:new 0 0 251.74 83;" xml:space="preserve">
<style type="text/css">
	.st0{font-family:'AventineRegular';}
	.st1{font-size:40px;}
	.st2{font-size:40.002px;}
	.st3{font-size:40.1995px;}
	.st4{font-size:40.1138px;}
	.st5{font-size:39.7613px;}
</style>
<title>Herr Krogstad_tekst</title>
<text transform="matrix(0.9823 0.1874 -0.1874 0.9823 0 67.65)" class="st0 st1">H</text>
<text transform="matrix(0.9882 0.1532 -0.1532 0.9882 21.57 71.8101)" class="st0 st1">E</text>
<text transform="matrix(0.9963 0.0861 -0.0861 0.9963 41.58 74.95)" class="st0 st1">R</text>
<text transform="matrix(0.9999 9.999500e-03 -9.999500e-03 0.9999 63.4898 76.839)" class="st0 st2">R</text>
<text transform="matrix(0.995 -0.0995 0.0995 0.995 94.6102 76.4898)" class="st0 st3">K</text>
<text transform="matrix(0.9872 -0.1595 0.1595 0.9872 115.9701 74.3503)" class="st0 st4">R</text>
<text transform="matrix(0.9698 -0.2438 0.2438 0.9698 136.9001 70.91)" class="st0 st1">O</text>
<text transform="matrix(0.9493 -0.3143 0.3143 0.9493 158.95 65.2699)" class="st0 st1">G</text>
<text transform="matrix(0.9311 -0.3649 0.3649 0.9311 179.5401 58.3699)" class="st0 st1">S</text>
<text transform="matrix(0.9155 -0.4024 0.4024 0.9155 196.4903 51.7508)" class="st0 st5">T</text>
<text transform="matrix(0.898 -0.4399 0.4399 0.898 214.2 43.94)" class="st0 st1">A</text>
<text transform="matrix(0.88 -0.475 0.475 0.88 234.6401 33.8897)" class="st0 st1">D</text>
</svg>
