<?xml version="1.0" encoding="utf-8"?>
<!-- Generator: Adobe Illustrator 23.0.1, SVG Export Plug-In . SVG Version: 6.00 Build 0)  -->
<svg version="1.1" id="Layer_1" xmlns="http://www.w3.org/2000/svg" xmlns:xlink="http://www.w3.org/1999/xlink" x="0px" y="0px"
	 viewBox="0 0 298.68 98.36" style="enable-background:new 0 0 298.68 98.36;" xml:space="preserve">
<style type="text/css">
	.st0{fill:#F8F7F7;}
</style>
<g>
	<path class="st0" d="M39.69,28.8c1.77,5.7,1.27,11.42-1.99,14.52c-1.82,1.71-5.28,3.23-8.92,2c-4.01-1.38-7.21-5.46-8.87-11.3
		c-2.42-8.49-0.25-15.56,5.98-17.18C31.78,15.31,37.19,20.74,39.69,28.8z M34.13,29.35c-0.58-1.35-1.2-2.64-1.82-3.82
		c-2.6-4.86-5.45-7.98-8.18-6.75c-3.03,1.34-1.94,7.58,1.25,14.45c3.22,6.9,6.87,11.74,9.74,10.65
		C38.46,42.6,37.16,36.28,34.13,29.35z"/>
	<path class="st0" d="M71.33,37.62c-1.26,0.14-6.92,0.9-7.87,1.06c-0.35,0.03-0.34-0.18-0.23-0.36c0.99-1.71,0.81-3.94,0.55-6.31
		c-0.24-2.15-2.24-15.6-2.24-15.6s-0.18-1.29-0.31-2.18c-0.01-0.1-0.16-0.12-0.17-0.02c-0.32,1.76-3.02,19.54-4.28,26.59
		c-0.04,0.2-0.31,0.24-0.4,0.06c-1.72-3.52-11.09-22.72-12.01-24.3c-0.05-0.08-0.18-0.03-0.16,0.07c0.11,0.9,0.29,2.19,0.29,2.19
		s2.01,14.54,2.41,16.39c0.77,3.6,1.55,4.5,2.31,5.12c0.16,0.13,0.27,0.28-0.08,0.35c-1.31,0.17-4.84,0.72-4.98,0.75
		c-0.27,0.04-0.21-0.23-0.06-0.44c1.16-1.69,0.93-4.3,0.9-5.72c-0.02-1.37-2.09-16.58-2.53-18.35c-0.67-2.7-2.21-4.02-2.51-4.09
		c-0.18-0.04-0.22-0.35-0.01-0.44c0.3-0.04,6.98-0.96,6.98-0.96c0.35-0.05,0.48,0.2,0.54,0.26c0,0,5.67,11.71,9.2,18.84
		c0.07,0.14,0.28,0.11,0.31-0.05c1.12-6.12,2.45-17.23,2.94-20.51c0.01-0.08,0.1-0.35,0.45-0.4c0,0,6.58-0.9,6.88-0.94
		c0.23,0.03,0.24,0.29,0.1,0.4c-0.84,0.69-0.97,2.83-0.76,5.41c0.15,1.8,2.12,15.6,2.37,16.95c0.47,2.46,0.8,4.58,2.41,5.77
		C71.56,37.3,71.6,37.59,71.33,37.62z"/>
	<path class="st0" d="M98.47,40.42c-0.64-0.03-2.11-0.24-2.4-0.27c-1-0.14-2.08-0.27-3.11-0.39l-0.21-0.03
		c-1.05-0.13-1.05-0.13-1.12-0.31c-0.18-0.48,1.23-0.61,1.54-3.16l0.35-2.89c0.04-0.23,0.07-0.48,0.1-0.74
		c0.11-0.77,0.21-1.65,0.35-2.63l0.03-0.23c0.11-1.05,0.29-2.54,0.49-4.22c0.03-0.25-0.15-0.47-0.39-0.5l-5.89-0.71
		c-0.25-0.03-0.47,0.15-0.5,0.39c-0.12,1.13-0.26,2.33-0.41,3.5l-0.08,0.66c-0.06,0.63-0.12,1.3-0.18,1.98
		c-0.13,1.47-0.18,3.15-0.19,4.57c0,3.25,0.85,3.07,0.76,3.45c-0.05,0.2,0.05,0.17-1.55-0.02l-5.41-0.64
		c-0.35-0.06-0.5-0.28-0.03-0.55c0.33-0.27,0.68-1.14,1.01-2.31l0.41-3.37c0.03-0.26,0.08-0.54,0.12-0.83l0.03-0.28
		c0.03-0.26,0.06-0.52,0.11-0.8l0.2-1.63c0.04-0.32,0.09-0.64,0.13-0.98c0.29-2.39,0.62-5.25,0.97-8.49l0.49-4.05
		c0.04-0.73,0.06-1.44,0.07-2.1c0.02-3.25-0.85-3.05-0.74-3.43c0.05-0.17,0.03-0.14,1.34-0.01c0.12,0.01,0.28,0.02,0.43,0.04
		l0.06,0.01c1.21,0.16,2.69,0.35,4.1,0.52l1.12,0.14c0.35,0.06,0.5,0.28,0.03,0.55c-0.71,0.57-1.41,3.58-1.9,6.83
		c-0.1,0.71-0.2,1.41-0.3,2.12l-0.05,0.42c-0.06,0.63-0.16,1.48-0.28,2.45c-0.04,0.35,0.21,0.7,0.58,0.74l5.66,0.68
		c0.25,0.03,0.49-0.14,0.52-0.39c0.05-0.57,0.12-1.14,0.19-1.71l0.21-1.71c0.03-0.34,0.07-0.68,0.1-1c0.13-1.05,0.22-1.97,0.3-2.73
		c0.14-2.47,0.06-4.52-0.37-5.09c-0.39-0.38-0.17-0.63,0.18-0.6c0.32,0.04,1.56,0.24,2.09,0.3l0.17,0.02
		c0.89,0.11,1.86,0.24,2.83,0.36l0.52,0.06c1.25,0.15,1.09,0.13,1.1,0.3c0.03,0.38-0.77,0-1.46,3.17c-0.04,0.23-0.1,0.47-0.15,0.72
		c-0.26,1.23-0.32,2.61-0.5,3.81c-0.83,5.85-1.79,15.87-1.79,15.9c-0.07,2.24,0.06,4.07,0.48,4.6
		C99.02,40.27,98.83,40.45,98.47,40.42z"/>
	<path class="st0" d="M118.15,39.16c-2.27,3.92-3,5.36-3.8,7.16c-0.06,0.14-0.1,0.19-0.47,0.04c-1.73-0.69-6.64-2.68-6.67-2.69
		c-2.45-0.9-3.94-1.53-5.95-2.35l-0.01,0.01l-1.04-0.41c-0.07-0.03-0.14-0.07-0.18-0.12c-0.34-0.15-0.27-0.49,0.18-0.61
		c1.79-1.37,3.2-5.11,4.5-8.15c1.04-2.42,3.09-7.74,3.09-7.74c0.16-0.39,0.31-0.76,0.44-1.14l0.1-0.24c0.94-2.48,1.6-4.44,1.87-5.7
		c0.03-0.17,0.08-0.32,0.11-0.47c0-0.03,0.01-0.06,0.02-0.09c0.35-1.86,0.02-2.46,0-2.79c-0.01-0.07,0.01-0.11,0.03-0.17
		c0.01-0.02,0.01-0.03,0.03-0.04c0.08-0.12,0.18-0.04,1.66,0.52l0.07,0.03c0.09,0.04,0.16,0.06,0.25,0.08
		c2.07,0.78,3.88,1.56,5.78,2.32c1.14,0.46,2.94,1.2,4.73,1.78c0.58,0.18,1,0.3,1.32,0.38c0.29,0.07,0.49,0.1,0.64,0.12
		c0.24,0.03,0.34,0.04,0.44,0.11c0.19,0.14-0.23,0.81-0.6,1.95c-0.75,2.29-1.12,3.33-1.61,4.97c-0.14,0.51-0.3,1.05-0.48,1.56
		c-0.04,0.13-0.1,0.21-0.17,0.22c-0.03,0-0.05,0-0.08-0.01c-0.53-0.26-0.48-3.3-1.46-5.85c-1.34-3.49-3.76-4.83-4.37-4.72
		c-0.28,0.04-0.46,0.28-0.58,0.49c-0.49,0.84-2.11,4.85-4.03,9.69c-0.07,0.17-0.03,0.34,0.08,0.47c0.36,0.43,1.52,0.63,2.5,0.52
		c0.28-0.04,0.53-0.07,0.76-0.11c1.14-0.21,1.86-0.59,2.64-1.26c0.19-0.22,0.57-0.17,0.37,0.33c-0.01,0.01-0.01,0.01-0.01,0.03
		c-0.81,1.9-1.49,4.01-1.95,5.56c0.01,0.02,0,0.04-0.02,0.04c-0.38,1.35-0.59,2.27-0.59,2.27c-0.04,0.18-0.2,0.37-0.33,0.35
		c-0.1,0.01-0.2-0.1-0.22-0.37c-0.11-1.01-0.43-2.01-0.84-2.87c-0.01-0.02,0-0.03-0.02-0.03c-0.6-1.26-1.39-2.24-2.06-2.68
		c-0.57-0.38-1.07-0.36-1.3,0.21c-2.05,5.12-3.03,7.67-3.47,8.9c-0.07,0.17-0.13,0.4-0.2,0.66c-0.22,0.6-0.39,1.06-0.5,1.34
		c-0.27,0.76-0.28,1.46,0.2,1.85c0.01,0.01,0.02,0.03,0.05,0.04c0.31,0.19,1.7,0.8,3.46,0.17c3.73-1.36,7.46-4.94,8.24-4.56
		C118.86,38.18,118.44,38.64,118.15,39.16z"/>
	<path class="st0" d="M147.81,33.71c-1.58,0.08-3.81,2.86-5.63,5.51c-0.37,0.55-3.35,5.1-3.35,5.1s-7.93,12.54-8.16,12.92
		c-0.23,0.42-0.46,0.4-0.48-0.23c0.04-0.64,0.44-23.12,0.51-26.14c0-0.09-0.12-0.13-0.17-0.05c-0.5,0.75-1.2,1.85-1.2,1.85
		s-5.64,8.59-6.54,10.24c-1.29,2.36-3.05,5.23-2.34,6.78c0.11,0.18-0.04,0.55-0.34,0.37c-1.54-1.04-2-1.35-4.27-2.71
		c-0.22-0.14-0.07-0.38,0.17-0.39c1.73-0.09,3.72-2.79,5.32-5.08c0.79-1.12,8.38-12.91,9.23-14.54c1.09-2.08,0.83-4.03,0.64-4.28
		c-0.11-0.14,0.01-0.42,0.23-0.35l0.41,0.28c0.27,0.17,0.69,0.44,1.12,0.7c1.81,1.14,2.74,1.75,2.74,1.75
		c0.29,0.18,0.24,0.45,0.24,0.54c0,0,0.23,11.79-0.23,19.97c-0.01,0.1,0.11,0.14,0.17,0.05c0,0,4.71-7.49,4.97-7.9
		c1.55-2.51,3.29-5.99,2.64-7.24c-0.12-0.22,0.1-0.41,0.33-0.26c0,0,2.42,1.54,4.09,2.61C148.23,33.42,148.09,33.7,147.81,33.71z"/>
	<path class="st0" d="M148.87,71.98c-1.34-1.69-2.69-6.22-2.75-8.13c-0.36-3.6,0.33-7.25,1.34-11.1c0.02-0.09,0.06-0.26,0.02-0.36
		c-0.04-0.1-0.43-0.41-0.53-0.37c-0.09,0.02-0.15,0.11-0.2,0.18c-2.4,3.61-4.48,6.66-5.01,7.61c-0.67,1.21-1.17,2.82-0.84,3.77
		c0.14,0.21-0.06,0.37-0.29,0.21c0,0-3.18-2.21-6.08-4.17c-0.29-0.21-0.16-0.43,0.17-0.45c0.88-0.08,2.2-1.13,2.95-2.12
		c1.28-1.73,4.97-7.06,9.87-14.55c0.6-0.92,1.21-2.12,1.72-3.18c0.27-0.53,1.06-2.2,1.05-3.27c0-0.39-0.01-0.68,0.07-0.8
		c0.12-0.29,0.78,0.47,2.59,1.51c1.9,1.09,2.71,1.53,4.41,2.89l0.04,0.03c0.59,0.46,1.14,0.94,1.71,1.49
		c0.61,0.6,1.14,1.28,1.58,2.04c0.7,1.24,1.12,2.68,1.07,4.31c-0.01,0.63-0.21,1.41-0.54,2.21c-0.4,0.98-1.01,2.01-1.76,2.91
		c-1.1,1.32-2.47,2.33-3.95,2.47c-0.8,0.07-1.41,0.18-2.7-0.21c-0.29-0.13-0.38,0.09-0.41,0.18c-0.97,1.82-3.29,11.21-2.83,17.25
		C149.55,72.41,149.37,72.62,148.87,71.98z M154.05,51.03c1.71-1.35,3-3.64,3.52-4.99c0.12-0.29,0.2-0.54,0.24-0.74
		c0.19-0.95,0.18-2.46-0.49-3.87c-0.28-0.6-0.71-1.08-1.08-1.33l-0.08-0.05c-0.12-0.06-0.32-0.14-0.54-0.12
		c-0.29,0.01-0.5,0.17-0.67,0.35c-0.74,0.81-4.04,5.67-7.19,10.38c-0.15,0.22-0.08,0.51,0.15,0.64c1.19,0.75,2.51,1.13,3.23,1
		c1.35-0.23,2.01-0.6,2.72-1.15C153.92,51.14,153.98,51.08,154.05,51.03z"/>
	<path class="st0" d="M159.7,75.2c0,0.22-0.03,0.43-0.35,0.27c-0.32-0.18-0.65-0.37-0.98-0.54c-1.67-0.95-3.16-1.78-4.03-2.25
		c-0.5-0.28-0.78-0.44-0.78-0.44c-0.24-0.14-0.1-0.39,0.15-0.45c0.85-0.18,2.15-1.49,4.33-5.08c0.13-0.23,0.37-0.61,0.66-1.14
		c1.27-2.18,3.83-6.66,6.2-10.93c0.29-0.51,0.5-0.91,0.63-1.14c1.96-3.71,2.42-5.5,2.15-6.34c-0.09-0.23,0.06-0.48,0.3-0.35
		c0,0,0.28,0.16,0.78,0.44c0.85,0.5,2.33,1.36,4,2.31l0.97,0.55c0.3,0.19,0.14,0.33-0.05,0.43c-1.2,0.71-2.41,2.64-3.76,4.84
		c-0.29,0.48-0.61,1.01-0.93,1.58c-3.01,5.21-6.27,10.99-6.97,12.35l-0.11,0.2C160.72,71.81,159.69,73.81,159.7,75.2z"/>
	<path class="st0" d="M180.99,85.08c0,0-1.8-0.73-4.63-1.89c-0.79-0.32-1.61-0.76-1.52-1.88l0.52-13.19
		c0.01-0.13-0.13-0.21-0.24-0.14c-0.23,0.15-0.49,0.32-0.73,0.48c-0.18,0.12-0.31,0.28-0.39,0.47c-1.59,3.9-2.04,4.91-2.49,6.1
		c-0.55,1.48-1.37,4.12-1.03,5.37c0.07,0.24-0.13,0.33-0.38,0.22c0,0-2.48-1.02-5.72-2.35c-0.32-0.15-0.26-0.35-0.08-0.46
		c0.78-0.51,1.9-2.53,2.9-4.84c0.98-2.26,5.68-13.53,6.27-15.28c0.94-2.77,1.65-5.56,1.33-6.14c-0.12-0.22,0.03-0.5,0.29-0.4
		c0,0,2.93,1.2,6.17,2.53c0.32,0.15,0.16,0.35-0.03,0.45c-1.04,0.59-2.1,2.71-3.13,4.89c-0.34,0.72-1.28,3.08-2.97,7.17
		c-0.06,0.14,0.1,0.27,0.23,0.19c1.99-1.37,6.62-4.89,7.63-5.75c1.73-1.48,2.89-3.92,2.33-4.72c-0.2-0.29,0.04-0.54,0.33-0.42
		c0,0,3.22,1.41,5.31,2.26c0.38,0.16,0.4,0.52-0.02,0.52c-2.02,0-4.72,1.68-6.62,3.1c-0.27,0.2-2.41,1.84-3.99,3.27
		c-0.11,0.1-0.2,0.22-0.21,0.37c-0.07,6.12-0.24,10.6-0.17,13.9c0.06,2.56,0.1,4.04,1.35,5.8C181.53,85,181.27,85.25,180.99,85.08z"
		/>
	<path class="st0" d="M200.7,88.93c0.07,0.2,0.12,0.41-0.24,0.37c-0.37-0.07-0.73-0.13-1.1-0.18c-1.89-0.34-3.57-0.62-4.55-0.78
		c-0.57-0.1-0.89-0.16-0.89-0.16c-0.27-0.05-0.22-0.34-0.01-0.47c0.74-0.45,1.53-2.12,2.39-6.23c0.05-0.26,0.14-0.7,0.25-1.29
		c0.47-2.48,1.4-7.56,2.21-12.37c0.1-0.58,0.17-1.02,0.21-1.28c0.62-4.16,0.46-6-0.08-6.69c-0.16-0.19-0.1-0.48,0.17-0.43
		c0,0,0.32,0.06,0.88,0.16c0.97,0.19,2.65,0.5,4.54,0.84l1.1,0.2c0.35,0.08,0.24,0.26,0.1,0.43c-0.9,1.07-1.39,3.29-1.93,5.81
		c-0.11,0.55-0.24,1.15-0.35,1.79c-1.1,5.91-2.25,12.45-2.46,13.97l-0.04,0.23C200.53,85.39,200.22,87.62,200.7,88.93z"/>
	<path class="st0" d="M222.28,89.08c-1.69,1.18-3.69,1.89-7.33,1.73l-1.56-0.09c-1.61-0.1-4.52-0.22-7.3-0.39
		c-0.36-0.04-0.51-0.25-0.06-0.55c0.67-0.61,1.18-3.67,1.44-6.96c0.33-3.89,0.48-7.56,0.56-13.48c0.02-1.44,0.01-3.2-0.07-4.61
		c-0.19-3.25-1.04-3.02-0.96-3.41c0.04-0.18,0.01-0.14,1.83-0.07c2.2,0.08,4.17-0.11,6.32,0.18c0.01,0,0.03,0.02,0.04,0.02
		c0.74,0.09,1.48,0.21,2.23,0.4c2.17,0.53,4.26,1.8,5.53,4.08c1.24,2.24,1.24,6.14-1.44,8.1c-0.76,0.55-2.21,1.07-3.74,1.42
		c0.02,0.02,0.02,0.02,0.03,0.02c2.18,0.51,4.64,1.98,5.93,4.18C225.27,82.25,224.96,87.2,222.28,89.08z M219.23,79.75
		c-0.32-0.9-1.11-2.14-2.41-2.97c-0.46-0.31-1.44-0.67-2.36-0.77c-0.03,0-0.05-0.02-0.08-0.02l-1.49-0.08
		c-0.15-0.01-0.3,0.11-0.29,0.26c-0.23,4.39-0.48,9.69-0.52,10.77c-0.03,1.13-0.03,1.86,1.1,2.51c1.52,0.55,2.85-0.03,3.79-0.75
		c0.77-0.58,1.51-1.76,1.91-2.72C219.9,83.49,219.59,80.75,219.23,79.75z M212.68,74.52c-0.01,0.16,0.11,0.29,0.26,0.29
		c1.47,0.07,2.92-0.29,3.49-0.78c1.11-0.96,1.47-1.69,1.84-2.61c0.93-2.48,0.55-4.31,0.19-5.34c-0.31-0.93-1.09-2.22-2.41-3.08
		c-0.55-0.37-1.15-0.56-1.6-0.58c-0.03,0-0.06,0.01-0.09,0.01c-0.14-0.01-0.34,0.03-0.54,0.16c-0.23,0.16-0.35,0.41-0.39,0.65
		C213.22,64.31,212.96,68.85,212.68,74.52z"/>
	<path class="st0" d="M243.99,83.33c0.12,3.91-2.5,6.6-6.1,7.45c-4.16,0.9-8.96-0.4-9.77-0.6c-0.36-0.09-0.34-0.3-0.26-0.63
		c0.72-3.3,1.02-9.16,1.02-9.16c0.01-0.25,0.37-0.44,0.53-0.03c0.72,1.83,2.9,9.51,6.86,9.25c2.81-0.18,3.23-3.05,2.53-5.09
		c-1.19-3.45-5.74-6.01-9.14-9.16c-2.27-2.1-3.46-4.01-3.36-6.94c0.15-4.36,3.48-7.6,8.39-7.58c2.52,0.01,3.97,0.31,6.41,1.19
		c0.06,0.02,0.12,0.16,0.07,0.38c-0.54,2.86-0.7,6.28-0.87,6.89c-0.05,0.18-0.31,0.21-0.39,0.05c-0.22-0.52-2.88-6.67-5.96-7.11
		c-3.8-0.54-4.25,4.26-2.29,6.84c1.49,1.97,4.24,3.32,7.77,6.39C243.18,78.75,243.9,80.55,243.99,83.33z"/>
	<path class="st0" d="M263.33,78.79c0.07,4.53,0.19,6.14,0.42,8.09c0.03,0.15,0.02,0.22-0.38,0.28c-1.84,0.29-7.07,1.12-7.1,1.13
		c-2.56,0.49-4.17,0.72-6.31,1.05l0,0.02l-1.1,0.18c-0.08,0.01-0.16,0.01-0.22-0.01c-0.37,0.04-0.48-0.28-0.16-0.62
		c0.82-2.09,0.11-6.03-0.33-9.3c-0.36-2.61-1.34-8.23-1.34-8.23c-0.07-0.41-0.13-0.81-0.21-1.21l-0.04-0.26
		c-0.47-2.61-0.92-4.62-1.33-5.85c-0.06-0.16-0.1-0.31-0.15-0.46c-0.02-0.03-0.03-0.06-0.03-0.09c-0.66-1.78-1.25-2.12-1.44-2.39
		c-0.04-0.06-0.05-0.1-0.06-0.16c0-0.02,0-0.03,0.01-0.05c0.01-0.14,0.14-0.13,1.69-0.41l0.08-0.01c0.09-0.01,0.17-0.03,0.26-0.06
		c2.18-0.4,4.13-0.66,6.15-0.99c1.21-0.19,3.14-0.49,4.97-0.91c0.59-0.14,1.01-0.26,1.32-0.35c0.28-0.09,0.47-0.17,0.61-0.22
		c0.22-0.1,0.31-0.14,0.43-0.13c0.24,0.02,0.23,0.81,0.49,1.98c0.53,2.35,0.75,3.43,1.18,5.08c0.14,0.51,0.28,1.05,0.4,1.58
		c0.04,0.14,0.02,0.23-0.03,0.27c-0.03,0.02-0.04,0.02-0.08,0.03c-0.59,0.05-2.11-2.58-4.26-4.26c-2.94-2.3-5.71-2.21-6.17-1.8
		c-0.22,0.18-0.25,0.48-0.25,0.71c0.01,0.97,0.69,5.24,1.53,10.38c0.03,0.18,0.14,0.31,0.31,0.36c0.53,0.18,1.62-0.25,2.41-0.84
		c0.22-0.18,0.42-0.33,0.6-0.49c0.87-0.77,1.29-1.46,1.62-2.44c0.05-0.29,0.4-0.44,0.49,0.09c0,0.02,0,0.02,0,0.03
		c0.28,2.04,0.79,4.21,1.2,5.77c0.02,0.01,0.02,0.03,0.01,0.05c0.38,1.35,0.66,2.25,0.66,2.25c0.06,0.18,0.02,0.42-0.1,0.47
		c-0.08,0.06-0.22,0.02-0.38-0.21c-0.62-0.81-1.4-1.5-2.2-2.03c-0.02-0.01-0.02-0.03-0.03-0.01c-1.16-0.77-2.34-1.21-3.15-1.24
		c-0.68-0.03-1.11,0.24-1.01,0.85c0.88,5.45,1.35,8.13,1.61,9.41c0.03,0.18,0.1,0.41,0.17,0.66c0.12,0.63,0.21,1.11,0.26,1.4
		c0.16,0.79,0.51,1.39,1.12,1.48c0.01,0,0.03,0.01,0.06,0.01c0.36,0,1.87-0.19,3.05-1.64c2.5-3.09,3.85-8.08,4.72-8.15
		C263.43,77.58,263.31,78.2,263.33,78.79z"/>
	<path class="st0" d="M280.33,53.56c-1.02,1.2-0.53,4.74,0.15,7.88c0.15,0.65,1.42,5.94,1.42,5.94s3.68,14.37,3.81,14.8
		c0.15,0.46-0.02,0.61-0.5,0.19c-0.44-0.47-16.53-16.17-18.68-18.29c-0.06-0.06-0.18,0-0.16,0.09c0.21,0.88,0.52,2.14,0.52,2.14
		s2.39,9.99,2.97,11.78c0.83,2.55,1.72,5.8,3.33,6.35c0.2,0.04,0.37,0.4,0.03,0.5c-1.82,0.41-2.36,0.53-4.9,1.25
		c-0.25,0.06-0.32-0.21-0.16-0.39c1.12-1.32,0.51-4.62-0.05-7.36c-0.27-1.34-3.66-14.95-4.25-16.69c-0.77-2.22-2.37-3.37-2.68-3.4
		c-0.18-0.02-0.3-0.29-0.1-0.41l0.49-0.11c0.32-0.08,0.8-0.2,1.27-0.34c2.07-0.54,3.16-0.8,3.16-0.8c0.33-0.08,0.5,0.13,0.56,0.19
		c0,0,8.74,7.92,14.38,13.86c0.07,0.08,0.18,0.02,0.15-0.09c0,0-2.22-8.57-2.34-9.03c-0.76-2.84-2.1-6.5-3.46-6.88
		c-0.24-0.07-0.23-0.36,0.04-0.42c0,0,2.78-0.7,4.7-1.19C280.41,53.06,280.51,53.35,280.33,53.56z"/>
</g>
</svg>
