<?xml version="1.0" encoding="utf-8"?>
<!-- Generator: Adobe Illustrator 23.0.1, SVG Export Plug-In . SVG Version: 6.00 Build 0)  -->
<svg version="1.1" id="Layer_1" xmlns="http://www.w3.org/2000/svg" xmlns:xlink="http://www.w3.org/1999/xlink" x="0px" y="0px"
	 viewBox="0 0 230.3 78" style="enable-background:new 0 0 230.3 78;" xml:space="preserve">
<style type="text/css">
	.st0{enable-background:new    ;}
</style>
<title>Doktor Rank_tekst</title>
<g class="st0">
	<path d="M18.22,41.72c-2.65,1.95-5.95,2.11-10.71,0.89c-2.53-0.66-2.86-0.73-4.93-1.25l-1.25-0.32c-0.34-0.1-0.44-0.42,0.07-0.64
		c1.18-0.92,2-3.23,2.89-6.41c1.05-3.76,1.92-7.34,3.14-13.14c0.29-1.4,0.68-3.12,0.94-4.51c0.54-3.07-0.43-2.96-0.29-3.33
		c0.07-0.17,0.11-0.35,1.8,0.03c0,0,5.18,1.28,6.81,2.19c3.43,1.92,5.53,5.11,6.3,9.77C23.8,29.92,22.58,38.37,18.22,41.72z
		 M18.56,23.18c-0.26-5.75-2.83-7.12-3.38-7.35c-0.47-0.2-1.02-0.33-1.2,0.08c-0.79,1.92-5.47,21.42-6.06,23.98
		c-0.17,0.8-0.05,1.4,0.53,1.69c1.03,0.5,2.79,0.07,3.81-0.84c1.81-1.6,2.57-2.88,3.4-4.59C17.86,31.61,18.68,25.71,18.56,23.18z"/>
</g>
<g class="st0">
	<path d="M44.91,36.91c-1.35,5.82-4.67,10.5-9.05,11.53c-2.44,0.56-6.19,0.12-8.7-2.77c-2.77-3.21-3.47-8.35-1.95-14.23
		c2.2-8.55,7.64-13.56,13.83-11.81C44.89,21.27,46.82,28.7,44.91,36.91z M39.84,34.58c0.18-1.46,0.3-2.88,0.36-4.21
		c0.21-5.51-0.68-9.63-3.65-9.96c-3.29-0.37-5.5,5.57-6.22,13.1c-0.71,7.58,0,13.6,3.03,14.11C36.88,48.2,38.95,42.09,39.84,34.58z"
		/>
</g>
<g class="st0">
	<path d="M63.01,53.62c0,0-1.92-0.31-4.94-0.81c-0.84-0.14-1.74-0.38-1.91-1.5L53.7,38.33c-0.02-0.12-0.18-0.17-0.27-0.08
		c-0.19,0.2-0.4,0.42-0.6,0.63c-0.15,0.15-0.24,0.34-0.27,0.55c-0.68,4.16-0.89,5.25-1.06,6.51c-0.21,1.57-0.41,4.33,0.2,5.47
		c0.12,0.22-0.05,0.35-0.32,0.31c0,0-2.65-0.43-6.11-1c-0.34-0.07-0.33-0.28-0.18-0.43c0.64-0.67,1.28-2.9,1.74-5.38
		c0.45-2.42,2.5-14.48,2.69-16.31c0.3-2.92,0.36-5.8-0.08-6.29c-0.17-0.19-0.08-0.5,0.19-0.45c0,0,3.13,0.51,6.58,1.08
		c0.34,0.07,0.23,0.3,0.08,0.45c-0.89,0.81-1.44,3.11-1.96,5.47c-0.17,0.78-0.55,3.3-1.28,7.66c-0.02,0.15,0.16,0.24,0.27,0.13
		c1.63-1.78,5.36-6.26,6.15-7.33c1.36-1.83,1.94-4.47,1.22-5.13c-0.26-0.24-0.09-0.53,0.22-0.48c0,0,3.46,0.65,5.69,1.01
		c0.41,0.07,0.51,0.42,0.1,0.51c-1.97,0.45-4.23,2.7-5.76,4.51c-0.22,0.26-1.93,2.34-3.16,4.09c-0.08,0.12-0.15,0.26-0.12,0.41
		c1.3,5.99,2.15,10.39,2.96,13.6c0.63,2.48,1,3.92,2.62,5.35C63.51,53.42,63.32,53.72,63.01,53.62z"/>
</g>
<g class="st0">
	<path d="M86.84,36.02c-0.01,0.16-0.28,0.43-0.51-0.16c-0.22-0.56-2.11-4.73-2.86-5.9c-0.89-1.4-1.49-2.11-2.27-2.21
		c-0.02,0-0.03,0-0.06,0.01c-0.05-0.01-0.09,0-0.16,0.02c-0.01-0.02-0.03,0-0.03,0c-0.07,0.02-0.14,0.08-0.19,0.13
		c-0.13,0.12-0.2,0.3-0.25,0.47c-0.18,0.64-1.66,11.68-2.54,18.46c-0.25,1.99-0.44,3.41-0.51,4.09c-0.09,0.8-0.12,1.97,0.08,2.96
		c0,0.02,0.01,0.02,0.01,0.03c0.13,0.66,0.35,1.22,0.72,1.51c0.16,0.11,0.11,0.25-0.05,0.29c-0.05,0.01-0.11,0.02-0.17,0.01
		c0,0-1.35-0.2-3.17-0.45l-0.29-0.04c-1.19-0.16-2.54-0.35-3.85-0.53c-0.35-0.06-0.29-0.29-0.1-0.39c0.51-0.26,0.88-0.85,1.16-1.54
		c0.02-0.01,0.03-0.03,0.02-0.04c0.37-0.89,0.59-1.93,0.71-2.63c0.18-1,0.33-1.9,0.58-3.64l0.02,0c0.51-3.83,1.21-9.37,2.12-16.15
		c0.35-2.6,0.26-3.4-0.58-3.5c-0.77-0.1-1.61,0.46-2.84,1.58c-1.03,0.93-3.95,4.46-4.31,4.94c-0.38,0.51-0.59,0.17-0.54,0.02
		c0.16-0.53,0.36-1.39,0.49-1.89c0.33-1.32,1.03-4.99,1.37-6.4c0.1-0.36,0.24-0.42,0.52-0.35c0.45,0.14,1.56,0.49,3.34,0.82
		c1.51,0.3,5.8,0.84,8.38,1.18l0.23,0.03c0.88,0.12,1.62,0.18,2.1,0.22c1.8,0.16,2.96,0.11,3.44,0.1c0.28-0.01,0.41,0.1,0.41,0.48
		c-0.05,1.45-0.33,5.18-0.35,6.54C86.86,34.58,86.82,35.47,86.84,36.02z"/>
</g>
<g class="st0">
	<path d="M106.74,45.19c-0.81,5.92-3.69,10.88-7.96,12.3c-2.38,0.78-6.15,0.69-8.92-1.97c-3.05-2.95-4.21-8-3.24-13.99
		c1.41-8.71,6.37-14.19,12.7-13.02C105.3,29.61,107.89,36.83,106.74,45.19z M101.47,43.32c0.05-1.47,0.03-2.9-0.02-4.23
		c-0.29-5.51-1.55-9.53-4.54-9.58c-3.31-0.07-4.97,6.04-5,13.61c-0.02,7.62,1.24,13.54,4.31,13.77
		C99.77,57.15,101.27,50.88,101.47,43.32z"/>
</g>
<g class="st0">
	<path d="M128.2,61.1c-2.06-0.66-5.69-3.68-6.8-5.23c-2.3-2.79-3.75-6.21-5.05-9.98c-0.03-0.09-0.09-0.25-0.19-0.31
		c-0.09-0.06-0.58-0.1-0.65-0.01c-0.06,0.06-0.06,0.17-0.06,0.26c0.01,4.34-0.03,8.02,0.06,9.11c0.12,1.38,0.59,2.99,1.39,3.6
		c0.23,0.09,0.15,0.34-0.13,0.34c0,0-3.87-0.07-7.37-0.09c-0.36-0.02-0.37-0.27-0.11-0.47c0.68-0.55,1.21-2.16,1.27-3.4
		c0.1-2.15,0.22-8.63,0.12-17.58c-0.01-1.1-0.17-2.43-0.34-3.6c-0.07-0.59-0.34-2.42-0.94-3.3c-0.21-0.33-0.38-0.56-0.38-0.7
		c-0.06-0.31,0.91-0.04,2.99-0.19c2.19-0.14,3.1-0.23,5.27-0.05l0.05,0c0.74,0.05,1.47,0.15,2.25,0.29
		c0.84,0.16,1.66,0.43,2.44,0.82c1.27,0.64,2.42,1.61,3.28,2.99c0.34,0.53,0.61,1.29,0.78,2.14c0.21,1.04,0.28,2.23,0.15,3.4
		c-0.18,1.7-0.76,3.31-1.91,4.25c-0.62,0.51-1.07,0.93-2.36,1.33c-0.31,0.06-0.27,0.29-0.24,0.38c0.21,2.05,3.49,11.15,7.23,15.91
		C129,61.09,128.97,61.35,128.2,61.1z M120.87,40.82c0.68-2.07,0.47-4.69,0.16-6.1c-0.06-0.31-0.14-0.56-0.21-0.75
		c-0.37-0.9-1.21-2.14-2.56-2.94c-0.57-0.34-1.19-0.5-1.64-0.5l-0.09,0c-0.14,0.02-0.34,0.06-0.51,0.2
		c-0.23,0.17-0.33,0.42-0.36,0.66c-0.16,1.08-0.21,6.95-0.21,12.63c0,0.26,0.21,0.46,0.48,0.45c1.41-0.04,2.71-0.45,3.24-0.96
		c1-0.94,1.34-1.62,1.63-2.47C120.82,40.97,120.84,40.89,120.87,40.82z"/>
</g>
<g class="st0">
	<path d="M159.48,58.42c-2.11-0.43-6.04-3.03-7.3-4.44c-2.57-2.52-4.38-5.75-6.08-9.34c-0.04-0.09-0.12-0.24-0.22-0.29
		c-0.1-0.05-0.59-0.04-0.64,0.06c-0.06,0.07-0.04,0.18-0.03,0.27c0.48,4.3,0.84,7.95,1.04,9.02c0.27,1.35,0.91,2.9,1.77,3.42
		c0.24,0.07,0.19,0.32-0.09,0.35c0,0-3.84,0.35-7.31,0.71c-0.35,0.02-0.39-0.22-0.15-0.45c0.62-0.62,0.96-2.27,0.89-3.51
		c-0.13-2.14-0.72-8.57-1.78-17.43c-0.13-1.09-0.43-2.39-0.72-3.53c-0.14-0.58-0.6-2.36-1.29-3.17c-0.25-0.3-0.44-0.51-0.46-0.65
		c-0.09-0.3,0.9-0.14,2.94-0.51c2.15-0.38,3.04-0.56,5.21-0.62l0.05-0.01c0.74-0.03,1.47-0.01,2.26,0.05
		c0.85,0.07,1.69,0.24,2.51,0.55c1.33,0.5,2.58,1.33,3.58,2.61c0.39,0.49,0.75,1.21,1,2.04c0.32,1.01,0.52,2.18,0.52,3.35
		c0.01,1.71-0.4,3.36-1.44,4.42c-0.56,0.57-0.96,1.04-2.2,1.57c-0.3,0.09-0.23,0.31-0.2,0.4c0.43,2.01,4.67,10.67,8.88,14.98
		C160.28,58.33,160.27,58.59,159.48,58.42z M150.02,39.12c0.45-2.13-0.04-4.7-0.5-6.06c-0.09-0.3-0.2-0.54-0.29-0.72
		c-0.46-0.85-1.43-1.99-2.85-2.64c-0.6-0.28-1.23-0.37-1.68-0.32l-0.09,0.01c-0.14,0.03-0.33,0.1-0.49,0.25
		c-0.21,0.19-0.28,0.45-0.29,0.7c-0.04,1.09,0.55,6.91,1.16,12.53c0.03,0.26,0.26,0.44,0.52,0.4c1.39-0.19,2.64-0.74,3.11-1.3
		c0.89-1.04,1.15-1.75,1.34-2.62C150,39.28,150,39.2,150.02,39.12z"/>
</g>
<g class="st0">
	<path d="M182.4,52.28c0.03,0.15-0.1,0.22-0.26,0.25l-8.05,1.35c-0.23,0.04-0.35-0.22-0.17-0.36c0,0,1.31-1.24-0.64-5.21l-1.56-2.95
		c-0.07-0.13-0.22-0.21-0.39-0.18l-5.99,0.94c-0.26,0.04-0.44,0.25-0.47,0.49l-0.32,3.21c-0.21,4.22,1.27,5.13,1.34,5.15
		c0.17,0.07,0.16,0.21,0.09,0.27c-0.06,0.03-0.2,0.05-0.32,0.07l-4.5,0.76c-0.32,0.05-0.41-0.21-0.15-0.43
		c0.18-0.15,1.3-1,2.06-6.77c0.12-0.98,0.15-0.98,3.02-23.5c0.04-0.21,0.33-0.26,0.44-0.07c0,0,9.26,17,9.79,17.93
		c0.85,1.49,4.2,8.35,5.82,8.85C182.4,52.09,182.4,52.28,182.4,52.28z M170.97,43.78l-4.43-8.88c-0.11-0.28-0.27-0.49-0.32,0.05
		l-1.16,9.8c-0.01,0.14,0.12,0.26,0.27,0.24l5.44-0.85C170.95,44.11,171.04,43.94,170.97,43.78z"/>
</g>
<g class="st0">
	<path d="M197.33,19.49c-1.05,1.18-0.62,4.73,0,7.88c0.14,0.65,1.31,5.96,1.31,5.96s3.42,14.43,3.54,14.87
		c0.14,0.46-0.03,0.61-0.5,0.18c-0.43-0.47-16.23-16.46-18.34-18.63c-0.06-0.06-0.18-0.01-0.16,0.08c0.19,0.88,0.48,2.15,0.48,2.15
		s2.21,10.04,2.76,11.83c0.79,2.57,1.61,5.83,3.21,6.41c0.2,0.05,0.37,0.41,0.02,0.5c-1.82,0.38-2.37,0.49-4.92,1.16
		c-0.26,0.06-0.32-0.21-0.16-0.39c1.14-1.3,0.6-4.61,0.08-7.36c-0.25-1.34-3.38-15.01-3.95-16.76c-0.73-2.23-2.31-3.41-2.62-3.45
		c-0.18-0.02-0.29-0.3-0.09-0.41l0.49-0.1c0.32-0.07,0.8-0.19,1.28-0.31c2.08-0.5,3.17-0.74,3.17-0.74
		c0.33-0.08,0.49,0.14,0.56,0.21c0,0,8.59,8.07,14.12,14.12c0.07,0.08,0.18,0.02,0.16-0.08c0,0-2.07-8.6-2.18-9.07
		c-0.71-2.86-1.98-6.54-3.33-6.94c-0.24-0.07-0.23-0.36,0.04-0.42c0,0,2.79-0.65,4.73-1.1C197.43,18.99,197.53,19.29,197.33,19.49z"
		/>
</g>
<g class="st0">
	<path d="M224.83,41.27c0,0-1.86,0.56-4.79,1.42c-0.82,0.24-1.72,0.42-2.36-0.51l-7.83-10.58c-0.07-0.1-0.24-0.08-0.27,0.04
		c-0.09,0.26-0.18,0.55-0.27,0.82c-0.07,0.2-0.07,0.41-0.01,0.61c1.2,4.03,1.48,5.1,1.88,6.3c0.5,1.5,1.51,4.06,2.55,4.82
		c0.2,0.15,0.11,0.34-0.16,0.41c0,0-2.57,0.76-5.91,1.75c-0.34,0.08-0.42-0.11-0.35-0.31c0.28-0.88-0.11-3.15-0.77-5.58
		c-0.65-2.37-4.04-14.07-4.67-15.8c-1-2.74-2.19-5.36-2.8-5.61c-0.23-0.1-0.29-0.41-0.02-0.49c0,0,3.03-0.9,6.37-1.89
		c0.34-0.08,0.34,0.17,0.26,0.37c-0.44,1.11,0.06,3.42,0.62,5.76c0.19,0.78,0.93,3.2,2.17,7.43c0.04,0.15,0.25,0.15,0.3,0
		c0.69-2.31,2.09-7.94,2.34-9.24c0.42-2.23-0.2-4.85-1.13-5.13c-0.34-0.1-0.31-0.44-0.01-0.53c0,0,3.39-0.92,5.54-1.56
		c0.39-0.12,0.63,0.16,0.31,0.42c-1.57,1.26-2.62,4.26-3.21,6.54c-0.08,0.32-0.72,2.93-1.06,5.04c-0.02,0.15-0.02,0.3,0.07,0.42
		c3.77,4.81,6.44,8.39,8.56,10.92c1.64,1.95,2.6,3.09,4.68,3.66C225.2,40.87,225.15,41.22,224.83,41.27z"/>
</g>
</svg>
