<?xml version="1.0" encoding="utf-8"?>
<!-- Generator: Adobe Illustrator 23.0.1, SVG Export Plug-In . SVG Version: 6.00 Build 0)  -->
<svg version="1.1" id="Layer_1" xmlns="http://www.w3.org/2000/svg" xmlns:xlink="http://www.w3.org/1999/xlink" x="0px" y="0px"
	 viewBox="0 0 272.63 108.42" style="enable-background:new 0 0 272.63 108.42;" xml:space="preserve">
<style type="text/css">
	.st0{fill:#E9CACB;}
</style>
<g>
	<path class="st0" d="M36.8,57.84c2.44,3.77,1.46,7.96-1.58,10.93c-3.55,3.35-9.03,4.91-9.95,5.2c-0.41,0.13-0.51-0.1-0.63-0.46
		c-1.25-3.67-4.43-9.59-4.43-9.59c-0.14-0.26,0.1-0.64,0.5-0.34c1.79,1.37,8.49,7.62,12.22,5.02c2.65-1.84,1.36-4.91-0.54-6.49
		c-3.21-2.68-9.2-2.5-14.41-3.58c-3.47-0.72-5.77-1.89-7.41-4.83c-2.44-4.37-1.09-9.53,3.75-12.41c2.48-1.48,4.08-2.04,7-2.63
		c0.07-0.01,0.21,0.09,0.3,0.33c1.16,3.13,3.04,6.58,3.23,7.28c0.05,0.21-0.18,0.39-0.36,0.29c-0.53-0.38-6.78-4.84-10.07-3.45
		c-4.05,1.71-1.65,6.7,1.8,8.08c2.63,1.05,6.13,0.75,11.42,1.67C33.3,53.83,35.07,55.17,36.8,57.84z"/>
	<path class="st0" d="M61.17,53.66c0,0-1.98,1.03-5.1,2.63c-0.87,0.45-1.86,0.84-2.78-0.07L42.17,45.94
		c-0.11-0.1-0.28-0.04-0.3,0.11c-0.04,0.31-0.09,0.66-0.13,0.99c-0.03,0.24,0.01,0.48,0.12,0.69c2.21,4.29,2.76,5.44,3.47,6.71
		c0.88,1.59,2.57,4.27,3.92,4.9c0.26,0.12,0.19,0.36-0.09,0.5c0,0-2.74,1.41-6.31,3.24c-0.37,0.17-0.5-0.03-0.46-0.27
		c0.13-1.06-0.8-3.54-2.07-6.13c-1.25-2.54-7.58-15.03-8.66-16.85c-1.72-2.89-3.62-5.58-4.36-5.74c-0.28-0.06-0.41-0.4-0.13-0.55
		c0,0,3.23-1.67,6.79-3.5c0.37-0.17,0.42,0.12,0.37,0.36c-0.26,1.35,0.8,3.85,1.93,6.37c0.38,0.84,1.74,3.41,4.04,7.93
		c0.08,0.16,0.32,0.11,0.33-0.06c0.28-2.75,0.66-9.42,0.66-10.94c0-2.61-1.26-5.44-2.38-5.55c-0.41-0.04-0.44-0.43-0.12-0.59
		c0,0,3.63-1.76,5.92-2.95c0.42-0.22,0.75,0.04,0.44,0.41c-1.5,1.76-2.05,5.37-2.22,8.08c-0.02,0.38-0.19,3.47-0.12,5.91
		c0,0.17,0.04,0.34,0.17,0.46c5.29,4.62,9.07,8.1,12,10.5c2.27,1.85,3.6,2.93,6.07,3.14C61.5,53.13,61.53,53.54,61.17,53.66z"/>
	<path class="st0" d="M70.01,15.9c-0.48,0.68-0.58,1.86-0.41,3.28c0.11,0.98,0.85,3.58,1.13,4.66c0.35,1.01,1.07,3.16,2.46,7.3
		l3.04,8.83c1.51,4.39-0.4,9.05-5.41,10.77c-5.04,1.73-9.36-0.78-10.87-5.17l-0.36-1.04c-0.12-0.34-0.23-0.71-0.35-1.08
		c-0.67-1.95-1.82-5.45-2.9-8.6l-0.32-0.92c-0.28-0.83-0.57-1.61-0.82-2.32c-0.44-1.22-0.82-2.32-1.16-3.26l-0.03-0.08
		c-0.99-2.54-1.81-4.06-2.48-4.91c-0.02-0.01-0.03-0.03-0.03-0.03c-0.36-0.43-0.67-0.68-0.95-0.8c-0.24-0.1-0.35-0.38-0.1-0.5
		c0,0,0.02-0.01,0.03-0.01c0.64-0.22,1.5-0.5,2.46-0.83c1-0.32,2.22-0.75,3.53-1.2l1.21-0.42c0.39-0.12,0.38,0.12,0.33,0.36
		c-0.16,0.78-0.05,1.77,0.2,2.92c0.01,0.03,0.02,0.07,0.01,0.09c0.14,0.56,0.28,1.14,0.46,1.76c0.04,0.12,0.07,0.25,0.11,0.37
		c0.05,0.15,0.11,0.31,0.15,0.48c0.39,1.19,0.92,2.82,1.57,4.77c0.15,0.44,0.52,1.5,0.88,2.67l0.1,0.28
		c0.38,1.16,0.78,2.39,1.03,3.1c0.58,1.7,1.27,3.62,1.92,5.52l0.39,1.14c0,0,0.32,0.81,0.32,0.83c0.87,2.52,3.59,4.39,6.19,3.5
		c2.6-0.9,3.49-4.03,2.78-6.6c-0.54-1.97-2.1-6.91-2.1-6.91c-0.9-2.5-2.43-6.83-2.59-7.24c-0.67-1.89-2.14-5.62-3.15-7.12
		c-0.64-0.98-1.31-1.67-1.93-1.77c-0.16-0.02-0.24-0.14-0.22-0.26c0.01-0.1,0.07-0.18,0.21-0.22c0,0,3.14-1.04,5.29-1.78
		c0.15-0.05,0.27-0.04,0.32,0C70.12,15.55,70.13,15.75,70.01,15.9z"/>
	<path class="st0" d="M98.83,33.98c0.22,5.19,0.4,7.03,0.73,9.27c0.03,0.17,0.03,0.25-0.43,0.33c-2.1,0.39-8.08,1.5-8.11,1.51
		c-2.92,0.64-4.76,0.95-7.21,1.39l0,0.02l-1.26,0.24c-0.09,0.02-0.18,0.02-0.25-0.01c-0.42,0.06-0.56-0.31-0.2-0.7
		c0.88-2.43-0.05-6.92-0.66-10.66c-0.49-2.98-1.78-9.4-1.78-9.4c-0.09-0.47-0.17-0.93-0.28-1.38l-0.05-0.3
		c-0.61-2.98-1.19-5.28-1.7-6.66c-0.07-0.18-0.12-0.36-0.19-0.53c-0.02-0.03-0.03-0.07-0.04-0.1c-0.81-2.02-1.5-2.4-1.72-2.7
		c-0.05-0.06-0.06-0.12-0.07-0.19c0-0.02-0.01-0.03,0.01-0.05c0-0.16,0.15-0.16,1.93-0.53l0.09-0.02c0.11-0.02,0.19-0.04,0.29-0.07
		c2.49-0.52,4.72-0.89,7.02-1.32c1.38-0.26,3.59-0.66,5.67-1.19c0.67-0.18,1.15-0.32,1.51-0.45c0.32-0.12,0.54-0.21,0.69-0.27
		c0.25-0.12,0.35-0.17,0.49-0.17c0.27,0.02,0.28,0.92,0.62,2.25c0.68,2.67,0.97,3.91,1.51,5.8c0.18,0.58,0.35,1.2,0.5,1.81
		c0.05,0.15,0.03,0.27-0.03,0.31c-0.03,0.02-0.05,0.03-0.08,0.03c-0.67,0.07-2.5-2.9-5.02-4.76c-3.45-2.55-6.61-2.36-7.14-1.88
		c-0.25,0.21-0.28,0.56-0.26,0.83c0.05,1.11,0.94,5.99,2.07,11.86c0.04,0.21,0.17,0.35,0.36,0.4c0.61,0.19,1.85-0.33,2.74-1.04
		c0.25-0.21,0.47-0.4,0.67-0.58c0.97-0.9,1.43-1.72,1.78-2.85c0.05-0.33,0.45-0.52,0.56,0.09c0,0.02,0,0.02,0.01,0.03
		c0.39,2.33,1.03,4.8,1.55,6.58c0.02,0.01,0.02,0.03,0.01,0.05c0.47,1.54,0.82,2.56,0.82,2.56c0.08,0.2,0.04,0.48-0.1,0.54
		c-0.1,0.07-0.25,0.03-0.44-0.23c-0.73-0.91-1.65-1.68-2.58-2.26c-0.02-0.02-0.02-0.03-0.04-0.01c-1.35-0.85-2.73-1.31-3.65-1.32
		c-0.78-0.02-1.26,0.31-1.13,1.01c1.17,6.22,1.8,9.29,2.13,10.74c0.04,0.21,0.12,0.46,0.21,0.76c0.15,0.71,0.27,1.27,0.34,1.6
		c0.21,0.9,0.62,1.58,1.33,1.67c0.02,0,0.04,0.01,0.07,0c0.41-0.01,2.14-0.27,3.45-1.97c2.78-3.62,4.17-9.38,5.16-9.49
		C98.91,32.58,98.79,33.29,98.83,33.98z"/>
	<path class="st0" d="M120.35,34.71c0.04,4.49-3.04,7.5-7.2,8.37c-4.8,0.92-10.26-0.7-11.19-0.96c-0.41-0.11-0.38-0.35-0.29-0.73
		c0.92-3.77,1.42-10.47,1.42-10.47c0.02-0.29,0.43-0.49,0.6-0.02c0.77,2.11,3.07,10.98,7.61,10.8c3.23-0.13,3.78-3.41,3.04-5.76
		c-1.27-3.98-6.42-7.05-10.23-10.75c-2.54-2.47-3.85-4.69-3.66-8.05c0.29-5,4.19-8.62,9.82-8.46c2.89,0.08,4.54,0.47,7.32,1.54
		c0.07,0.03,0.13,0.19,0.08,0.44c-0.7,3.27-0.97,7.18-1.19,7.87c-0.06,0.2-0.36,0.23-0.45,0.05c-0.24-0.6-3.12-7.72-6.64-8.31
		c-4.34-0.73-4.99,4.77-2.82,7.78c1.65,2.3,4.77,3.93,8.73,7.54C119.55,29.45,120.32,31.53,120.35,34.71z"/>
	<path class="st0" d="M132.66,28.34l-1.86-0.19c-0.47,5.08-0.77,8.57-0.88,9.85c-0.14,1.58,0.15,4.37,1.2,5.14
		c0.23,0.17,0.07,0.38-0.25,0.35c0,0-4.4-0.49-8.4-0.89c-0.4-0.06-0.34-0.32-0.13-0.44c1.34-0.76,1.81-3.46,2.03-4.89
		c0.4-2.75,0.86-6.22,1.82-18.47c0.24-3.09,0.25-6.91-0.66-8.72c-0.17-0.3-0.36-0.52-0.32-0.71c0.08-0.23,0.24-0.1,0.92-0.03
		c2.84,0.34,6.07,0.23,8.53,0.68l0.05,0.01c0.83,0.15,1.67,0.33,2.53,0.58c2.45,0.71,4.79,2.3,6.13,4.97
		c1.31,2.63,0.98,8.98-2.2,11.09C139.62,27.68,136.84,28.71,132.66,28.34z M135.27,26.21c1.34-1.04,1.79-1.86,2.24-2.9
		c1.21-2.79,1.02-6.62,0.68-7.83c-0.32-1.07-1.15-2.58-2.6-3.64c-0.61-0.45-1.3-0.7-1.82-0.75l-0.11-0.01
		c-0.16,0-0.4,0.03-0.61,0.17c-0.29,0.17-0.42,0.44-0.48,0.72c-0.3,1.26-1.03,8.29-1.66,14.93
		C132.71,27.13,134.55,26.78,135.27,26.21z"/>
	<path class="st0" d="M150.23,46.51c0.06,0.24,0.09,0.48-0.31,0.4c-0.41-0.11-0.82-0.22-1.24-0.32c-2.13-0.58-4.02-1.07-5.12-1.35
		c-0.64-0.17-0.99-0.27-0.99-0.27c-0.31-0.08-0.22-0.41,0.04-0.54c0.89-0.44,1.96-2.27,3.35-6.88c0.08-0.29,0.23-0.79,0.41-1.45
		c0.79-2.79,2.35-8.5,3.77-13.92c0.18-0.65,0.29-1.15,0.37-1.45c1.12-4.69,1.12-6.8,0.58-7.65c-0.16-0.23-0.07-0.55,0.24-0.47
		c0,0,0.36,0.1,0.99,0.27c1.09,0.31,2.98,0.84,5.1,1.42l1.24,0.33c0.39,0.12,0.24,0.32,0.07,0.5c-1.13,1.13-1.92,3.62-2.79,6.44
		c-0.18,0.61-0.39,1.29-0.58,2.01c-1.85,6.64-3.82,13.99-4.21,15.71l-0.07,0.26C150.39,42.44,149.82,44.96,150.23,46.51z"/>
	<path class="st0" d="M172.39,46.86c-1.47,2.01-3.48,5.12-4.66,7.85c-0.07,0.16-0.23,0.28-0.58-0.04c-0.67-0.6-4.97-2.6-4.97-2.6
		s-8.08-3.82-10.11-4.78c-0.36-0.2-0.22-0.46,0.01-0.57c1.09-0.49,2.49-2.58,4.02-5.58c1.06-2.08,2.47-4.94,6.35-13.36
		c0,0,1.36-2.86,1.72-3.67c0.9-2.03,2.44-5.77,1.97-6.55c-0.15-0.25-0.04-0.64,0.25-0.5c0,0,3.1,1.52,6.8,3.28
		c0.36,0.19,0.2,0.43-0.01,0.55c-0.93,0.53-2.01,1.87-3.23,4.21c-0.55,1.06-1.03,2.05-2.45,4.99c-1.93,4.11-7.5,16.07-8.01,17.24
		c-0.38,0.85-0.35,1.58,0.22,2.03c0.68,0.53,1.74,0.94,3.96,0.54c3.09-0.56,6.55-2.87,8.39-3.9c0.26-0.15,0.56-0.3,0.74-0.23
		c0.11,0.04,0.23,0.17,0.14,0.4C172.87,46.35,172.58,46.6,172.39,46.86z"/>
	<path class="st0" d="M189.69,58.37c-1.73,1.79-4.16,4.59-5.69,7.13c-0.09,0.15-0.27,0.24-0.57-0.12c-0.58-0.69-4.56-3.26-4.56-3.26
		s-7.48-4.89-9.36-6.13c-0.33-0.25-0.15-0.49,0.09-0.56c1.14-0.33,2.82-2.21,4.75-4.98c1.34-1.91,3.13-4.55,8.13-12.36
		c0,0,1.75-2.65,2.21-3.39c1.18-1.89,3.21-5.38,2.86-6.22c-0.11-0.27,0.04-0.63,0.31-0.46c0,0,2.86,1.93,6.28,4.19
		c0.33,0.24,0.14,0.46-0.09,0.55c-1,0.4-2.25,1.57-3.77,3.72c-0.7,0.98-1.3,1.89-3.12,4.61c-2.47,3.8-9.64,14.88-10.31,15.97
		c-0.49,0.79-0.57,1.51-0.06,2.04c0.6,0.62,1.59,1.17,3.85,1.08c3.14-0.13,6.89-1.94,8.85-2.71c0.28-0.11,0.59-0.22,0.77-0.13
		c0.11,0.05,0.21,0.2,0.08,0.41C190.24,57.92,189.92,58.13,189.69,58.37z"/>
	<path class="st0" d="M207.38,70.22c-3.5,3.83-4.67,5.27-6.01,7.09c-0.1,0.15-0.15,0.2-0.54-0.06c-1.77-1.2-6.79-4.62-6.82-4.64
		c-2.52-1.6-4.05-2.68-6.1-4.09l-0.01,0.01l-1.06-0.72c-0.07-0.05-0.14-0.11-0.18-0.18c-0.34-0.25-0.18-0.62,0.35-0.64
		c2.34-1.1,4.84-4.95,7.04-8.03c1.75-2.46,5.35-7.92,5.35-7.92c0.27-0.4,0.53-0.78,0.77-1.17l0.17-0.25
		c1.66-2.55,2.87-4.58,3.48-5.93c0.08-0.18,0.17-0.34,0.24-0.51c0.01-0.04,0.03-0.07,0.05-0.1c0.84-2.01,0.62-2.76,0.68-3.13
		c0.01-0.08,0.04-0.12,0.08-0.18c0.01-0.01,0.02-0.03,0.04-0.03c0.12-0.11,0.22,0,1.74,0.99l0.07,0.05
		c0.09,0.06,0.16,0.11,0.26,0.15c2.13,1.38,3.97,2.69,5.91,4.01c1.16,0.79,3.01,2.06,4.87,3.15c0.6,0.34,1.05,0.58,1.38,0.75
		c0.31,0.14,0.53,0.23,0.68,0.29c0.26,0.09,0.37,0.12,0.47,0.23c0.18,0.21-0.45,0.86-1.15,2.04c-1.4,2.38-2.06,3.45-3.01,5.17
		c-0.28,0.54-0.6,1.1-0.92,1.63c-0.08,0.14-0.16,0.21-0.24,0.2c-0.04-0.01-0.05-0.02-0.09-0.04c-0.53-0.42,0.27-3.81-0.21-6.91
		c-0.65-4.24-3.03-6.33-3.74-6.36c-0.32-0.03-0.59,0.2-0.77,0.4c-0.75,0.82-3.55,4.92-6.89,9.87c-0.12,0.18-0.12,0.37-0.02,0.54
		c0.3,0.57,1.55,1.07,2.67,1.19c0.32,0.03,0.61,0.05,0.88,0.06c1.33,0.04,2.23-0.21,3.27-0.77c0.27-0.2,0.68-0.05,0.33,0.46
		c-0.01,0.02-0.01,0.02-0.02,0.03c-1.37,1.93-2.65,4.13-3.54,5.76c0,0.02-0.01,0.04-0.03,0.04c-0.75,1.42-1.22,2.4-1.22,2.4
		c-0.09,0.2-0.31,0.37-0.45,0.32c-0.12-0.02-0.19-0.15-0.15-0.47c0.12-1.16,0.01-2.36-0.23-3.42c0-0.02,0-0.04-0.02-0.03
		c-0.36-1.56-1.01-2.85-1.66-3.51c-0.54-0.56-1.11-0.67-1.51-0.08c-3.55,5.24-5.26,7.86-6.06,9.12c-0.12,0.18-0.24,0.42-0.38,0.69
		c-0.4,0.61-0.7,1.09-0.89,1.37c-0.49,0.79-0.67,1.56-0.23,2.12c0.01,0.01,0.02,0.03,0.05,0.05c0.3,0.29,1.71,1.31,3.83,1.03
		c4.52-0.61,9.57-3.72,10.35-3.1C208.42,69.29,207.84,69.71,207.38,70.22z"/>
	<path class="st0" d="M241.29,62.12c-1.79,0.24-4.08,3.64-5.91,6.84c-0.37,0.67-3.34,6.16-3.34,6.16s-7.86,15.09-8.08,15.55
		c-0.23,0.5-0.49,0.51-0.57-0.22c-0.02-0.73-1.73-26.46-1.93-29.93c-0.01-0.1-0.15-0.14-0.2-0.04c-0.5,0.9-1.19,2.23-1.19,2.23
		s-5.61,10.37-6.49,12.33c-1.24,2.82-2.98,6.27-2.03,7.97c0.14,0.19,0.01,0.63-0.36,0.45c-1.86-1.04-2.42-1.35-5.14-2.68
		c-0.27-0.14-0.12-0.42,0.16-0.46c1.97-0.27,3.98-3.55,5.59-6.32c0.79-1.35,8.33-15.57,9.15-17.5c1.04-2.48,0.56-4.69,0.32-4.96
		c-0.14-0.15-0.03-0.48,0.22-0.42l0.5,0.28c0.33,0.17,0.83,0.44,1.35,0.69c2.18,1.13,3.3,1.74,3.3,1.74
		c0.34,0.18,0.32,0.49,0.33,0.59c0,0,1.4,13.45,1.66,22.85c0,0.12,0.14,0.15,0.2,0.04c0,0,4.66-9.02,4.92-9.5
		c1.53-3.02,3.19-7.16,2.32-8.52c-0.15-0.24,0.07-0.48,0.36-0.33c0,0,2.91,1.53,4.92,2.59C241.75,61.75,241.61,62.08,241.29,62.12z"
		/>
	<path class="st0" d="M253.21,90.23c-2.21,4.7-2.91,6.42-3.65,8.55c-0.05,0.17-0.09,0.23-0.53,0.1c-2.04-0.62-7.85-2.42-7.88-2.43
		c-2.88-0.79-4.66-1.37-7.03-2.11l0,0.02l-1.22-0.37c-0.08-0.03-0.16-0.07-0.22-0.12c-0.4-0.14-0.36-0.54,0.14-0.72
		c1.91-1.74,3.16-6.15,4.35-9.75c0.95-2.87,2.78-9.15,2.78-9.15c0.14-0.46,0.28-0.9,0.39-1.35l0.09-0.29
		c0.84-2.92,1.39-5.22,1.58-6.69c0.02-0.2,0.06-0.37,0.08-0.55c-0.01-0.04,0-0.07,0.01-0.11c0.22-2.16-0.22-2.82-0.27-3.19
		c-0.01-0.08,0-0.13,0.02-0.2c0.01-0.02,0.01-0.03,0.03-0.05c0.08-0.14,0.21-0.07,1.95,0.43l0.09,0.03c0.1,0.03,0.19,0.06,0.29,0.07
		c2.45,0.69,4.59,1.4,6.83,2.09c1.34,0.41,3.48,1.08,5.58,1.57c0.68,0.15,1.17,0.25,1.54,0.3c0.34,0.05,0.57,0.06,0.74,0.08
		c0.27,0.01,0.39,0.01,0.51,0.08c0.24,0.15-0.18,0.95-0.49,2.28c-0.64,2.69-0.95,3.91-1.35,5.83c-0.11,0.6-0.24,1.23-0.39,1.83
		c-0.03,0.16-0.09,0.25-0.17,0.26c-0.04,0.01-0.06,0-0.09-0.01c-0.63-0.25-0.87-3.72-2.24-6.54c-1.87-3.86-4.76-5.15-5.45-4.97
		c-0.32,0.07-0.5,0.37-0.61,0.61c-0.47,1.01-1.94,5.75-3.67,11.46c-0.06,0.2-0.01,0.39,0.14,0.53c0.46,0.46,1.8,0.57,2.9,0.35
		c0.32-0.07,0.6-0.13,0.86-0.2c1.28-0.35,2.06-0.86,2.9-1.7c0.19-0.28,0.64-0.25,0.45,0.34c-0.01,0.02-0.01,0.02-0.01,0.03
		c-0.74,2.25-1.31,4.73-1.68,6.55c0.01,0.02,0.01,0.04-0.01,0.05c-0.3,1.58-0.46,2.65-0.46,2.65c-0.03,0.22-0.19,0.44-0.34,0.44
		c-0.12,0.02-0.23-0.09-0.29-0.4c-0.23-1.15-0.69-2.25-1.23-3.2c-0.01-0.02-0.01-0.04-0.03-0.03c-0.81-1.38-1.8-2.43-2.62-2.86
		c-0.69-0.38-1.26-0.31-1.47,0.37c-1.85,6.05-2.71,9.06-3.1,10.5c-0.06,0.2-0.11,0.47-0.16,0.77c-0.2,0.7-0.35,1.25-0.45,1.57
		c-0.24,0.89-0.18,1.69,0.4,2.09c0.02,0,0.03,0.03,0.06,0.04c0.37,0.19,2.02,0.75,3.96-0.15c4.14-1.92,8.04-6.37,8.97-6.01
		C253.93,89.04,253.49,89.62,253.21,90.23z"/>
</g>
</svg>
