<svg xmlns="http://www.w3.org/2000/svg" width="470.18" height="223.855" viewBox="0 0 470.18 223.855">
  <g id="Group_98" data-name="Group 98" transform="translate(-40.06 -161.71)">
    <g id="Group_95" data-name="Group 95" transform="translate(40.059 161.71)">
      <g id="Group_94" data-name="Group 94">
        <path id="Path_1153" data-name="Path 1153" d="M106.881,234.2c5.944,9.178,3.559,19.408-3.852,26.643-8.655,8.175-22.019,11.974-24.255,12.673-1,.31-1.238-.232-1.543-1.127-3.045-8.941-10.8-23.38-10.8-23.38-.344-.629.243-1.571,1.222-.825,4.361,3.332,20.688,18.561,29.785,12.245,6.469-4.5,3.316-11.971-1.308-15.832-7.817-6.531-22.421-6.086-35.114-8.714-8.463-1.753-14.057-4.593-18.06-11.764C37.008,213.47,40.3,200.9,52.088,193.867c6.044-3.612,9.953-4.982,17.054-6.419.179-.036.512.224.73.8,2.835,7.638,7.409,16.039,7.864,17.744a.615.615,0,0,1-.864.7c-1.283-.931-16.536-11.789-24.541-8.4-9.869,4.18-4.015,16.335,4.392,19.69,6.4,2.555,14.946,1.834,27.828,4.065C98.337,224.435,102.659,227.692,106.881,234.2Z" transform="translate(-40.059 -115.498)" fill="#d3d1c5"/>
        <path id="Path_1154" data-name="Path 1154" d="M113.538,195.63c.238.363.062,1.434-1.426.447-1.409-.928-12.393-7.439-15.977-8.9-4.291-1.784-6.782-2.443-8.742-1.429a.338.338,0,0,0-.134.117,1.024,1.024,0,0,0-.327.319.06.06,0,0,0-.078.036,1.624,1.624,0,0,0-.224.607,3.182,3.182,0,0,0,.179,1.47c.607,1.736,14.862,29.344,23.707,46.235,2.608,4.94,4.44,8.482,5.357,10.151a28.6,28.6,0,0,0,4.9,6.637c.02.039.059.02.078.059a7,7,0,0,0,4.065,2.287c.542.011.643.4.341.752a1.537,1.537,0,0,1-.386.294s-3.408,1.719-7.965,4.031l-.73.377c-2.966,1.535-6.371,3.251-9.642,4.943-.9.419-1.127-.2-.861-.724.735-1.406.649-3.363.193-5.373.02-.056.039-.115-.022-.131a37.024,37.024,0,0,0-2.578-7.154c-1.183-2.564-2.281-4.87-4.5-9.24l.042-.022c-4.962-9.578-12.2-23.347-20.97-40.278-3.363-6.5-4.823-8.189-6.922-7.053-1.923,1-2.949,3.629-3.973,8.158-.875,3.771-1.9,16.5-1.949,18.189-.053,1.781-1.068,1.331-1.191.909-.467-1.471-1.412-3.76-1.912-5.108-1.35-3.551-5.633-13.042-7.1-16.822-.363-.981-.117-1.353.615-1.636a77.839,77.839,0,0,0,8.943-3.461c3.931-1.739,14.582-7.358,21.049-10.7l.579-.3c2.192-1.135,4-2.167,5.152-2.86a73.061,73.061,0,0,0,8.007-5.27c.635-.472,1.1-.422,1.691.439,2.2,3.4,7.52,12.357,9.64,15.5C111.285,192.308,112.61,194.4,113.538,195.63Z" transform="translate(-13.892 -138.058)" fill="#d3d1c5"/>
        <path id="Path_1155" data-name="Path 1155" d="M130.043,167.474a42.017,42.017,0,0,0-2.866,4.459c-1.652,2.941-2.362,6.984-2.673,11.387l-1.356,33.364c4.252,12.631,6.268,18.726,7.476,21.594,1.7,4.087,5.382,9.723,8.13,10.129.688.1.721.85-.017,1.1,0,0-10.744,3.615-20.014,6.732-.934.439-1.152-.171-.769-.867,1.526-2.751.615-9.83-.221-13.215-.791-3.19-3.033-9.729-7.367-22.544,0,0-19.229-21.01-20.09-22-4.286-4.9-11.121-11.742-13.584-11.812-.917-.025-1.977-.749-.458-1.261l9.905-3.058,11.219-4.057a2.013,2.013,0,0,1,.537-.089c.347.036.814.361.109,1.023-2.765,2.592,1.429,8.932,4.557,12.435l16.288,20.023c.361.456.763.758.8-.24l.618-25.555c-.143-4.28-.763-8.186-3.078-10.713a6.6,6.6,0,0,0-2.726-1.7c-.3-.014-.895-.405-.285-.853.12-.081,6.12-1.915,6.422-2.016l9.036-3.2C130.437,166.272,130.862,167.149,130.043,167.474Z" transform="translate(23.526 -153.121)" fill="#d3d1c5"/>
        <path id="Path_1156" data-name="Path 1156" d="M164.532,242.138s-5.354.925-13.8,2.34c-2.354.4-4.934.581-6.4-2.225l-18.214-32.086a.433.433,0,0,0-.774.025c-.327.7-.688,1.468-1.029,2.2a2.831,2.831,0,0,0-.229,1.7c1.96,11.6,2.4,14.675,3.092,18.15.869,4.347,2.824,11.817,5.471,14.278.512.472.182.967-.579,1.1,0,0-7.395,1.252-17.043,2.871-.976.117-1.127-.442-.878-.979,1.093-2.36.774-8.812-.263-15.776-1.02-6.81-6.478-40.51-7.641-45.533-1.851-7.968-4.272-15.636-5.9-16.553-.6-.344-.66-1.239.1-1.367,0,0,8.723-1.479,18.368-3.095.976-.117.883.593.6,1.1-1.61,2.936-.992,9.522-.224,16.221.257,2.22,1.518,9.209,3.534,21.4a.431.431,0,0,0,.819.106c2.7-6.184,8.5-21.384,9.631-24.929,1.929-6.061,1.093-13.562-1.415-14.638-.914-.4-.707-1.328.159-1.473,0,0,9.726-1.4,15.938-2.469,1.129-.19,1.714.649.727,1.269-4.786,2.98-8.734,10.959-11.141,17.115-.341.878-3,7.92-4.646,13.651a1.473,1.473,0,0,0,.062,1.188c8.86,14.647,15.072,25.519,20.112,33.255,3.908,5.991,6.2,9.461,11.77,11.775C165.692,241.157,165.455,242.121,164.532,242.138Z" transform="translate(67.389 -160.325)" fill="#d3d1c5"/>
        <path id="Path_1157" data-name="Path 1157" d="M176.1,243.034s-5.435.076-13.99.151c-2.4.025-4.971-.2-5.977-3.2L143.157,205.44a.433.433,0,0,0-.766-.1c-.433.637-.909,1.348-1.361,2.016a2.839,2.839,0,0,0-.492,1.644c.123,11.767.073,14.873.215,18.415.179,4.426.942,12.117,3.17,14.957.431.548.031.99-.744,1,0,0-7.5.081-17.28.168-.984-.034-1.043-.609-.716-1.1,1.445-2.164,2.139-8.588,2.206-15.628.059-6.886-.064-41.03-.428-46.174-.584-8.163-1.772-16.114-3.235-17.275-.545-.433-.459-1.325.316-1.334,0,0,8.851-.1,18.63-.184.976.034.777.721.417,1.183-2.046,2.65-2.469,9.254-2.754,15.989-.1,2.234.059,9.335.14,21.692a.433.433,0,0,0,.8.232c3.629-5.689,11.742-19.794,13.411-23.118,2.854-5.686,3.2-13.226.895-14.686-.844-.531-.492-1.417.383-1.429,0,0,9.83.137,16.134.053,1.143-.011,1.588.911.517,1.373-5.192,2.192-10.341,9.455-13.679,15.161-.475.811-4.2,7.353-6.724,12.757a1.462,1.462,0,0,0-.126,1.188c6.458,15.852,10.9,27.563,14.666,36,2.927,6.525,4.641,10.313,9.785,13.467C177.4,242.243,177.015,243.16,176.1,243.034Z" transform="translate(109.556 -161.71)" fill="#d3d1c5"/>
        <path id="Path_1158" data-name="Path 1158" d="M191.894,226.088c-3.413,12.189-4.378,16.606-5.3,22.036-.056.431-.12.6-1.236.45-5.158-.668-19.849-2.614-19.936-2.625-7.246-.721-11.747-1.392-17.761-2.214l-.006.042-3.095-.4a1.429,1.429,0,0,1-.581-.207c-1.026-.179-1.076-1.143.053-1.786,3.878-4.957,5.1-16.072,6.5-25.2,1.118-7.283,2.952-23.126,2.952-23.126.154-1.163.3-2.278.4-3.4l.092-.73a125.313,125.313,0,0,0,1.076-16.729c-.025-.481-.011-.917-.042-1.359a.559.559,0,0,1-.011-.263,16.622,16.622,0,0,0-1.949-7.551.925.925,0,0,1-.025-.484.159.159,0,0,1,.062-.123c.134-.375.47-.243,4.862.238l.215.028a4.084,4.084,0,0,0,.738.05c6.159.668,11.6,1.5,17.275,2.239,3.394.439,8.8,1.185,14.048,1.515,1.691.087,2.91.115,3.83.1.836-.022,1.409-.078,1.806-.115a2.484,2.484,0,0,1,1.272-.011c.618.257-.045,2.357-.257,5.692-.436,6.718-.7,9.785-.886,14.568-.017,1.485-.089,3.047-.2,4.563-.008.394-.126.64-.31.7a.37.37,0,0,1-.218.017c-1.619-.341-3.606-8.6-8.043-14.809-6.064-8.518-13.548-10.447-15.128-9.735a2.389,2.389,0,0,0-1.227,1.719c-.732,2.614-2.329,14.6-4.157,29.044a1.191,1.191,0,0,0,.545,1.2c1.28.911,4.549.637,7.121-.341.741-.3,1.384-.565,1.988-.836a14.467,14.467,0,0,0,6.276-5.259c.358-.741,1.42-.864,1.224.637l-.011.084a147.054,147.054,0,0,0-1.384,16.427.082.082,0,0,1-.014.129c-.073,3.925-.02,6.55-.02,6.55.02.528-.28,1.146-.637,1.188-.274.1-.593-.12-.85-.855a25.931,25.931,0,0,0-4.266-7.193c-.036-.05-.031-.089-.081-.056-2.5-2.986-5.326-5.1-7.459-5.818-1.8-.623-3.159-.232-3.383,1.49-1.982,15.3-2.835,22.874-3.173,26.5a18.839,18.839,0,0,0-.073,1.912c-.187,1.767-.321,3.151-.428,3.967-.2,2.242.249,4.138,1.817,4.864.042.006.081.053.165.064a11.909,11.909,0,0,0,9.475-1.963c9.161-6.282,16.738-18.583,19.125-18.1C193.136,222.929,192.322,224.484,191.894,226.088Z" transform="translate(145.145 -160.826)" fill="#d3d1c5"/>
        <path id="Path_1159" data-name="Path 1159" d="M242.506,189.679c-4.319.9-9.287,9.567-13.157,17.666-.786,1.689-7.028,15.558-7.028,15.558s-16.441,38.077-16.9,39.246c-.461,1.264-1.1,1.317-1.423-.433-.168-1.775-8.874-64.021-9.986-72.406a.259.259,0,0,0-.492-.073c-1.043,2.287-2.5,5.619-2.5,5.619s-11.82,26.19-13.6,31.136c-2.522,7.079-6.128,15.768-3.517,19.743.375.447.137,1.526-.791,1.166-4.714-2.2-6.125-2.863-12.961-5.614-.679-.294-.363-1.009.308-1.141,4.741-1,9.041-9.338,12.48-16.346,1.686-3.425,17.5-39.313,19.15-44.175,2.1-6.22.528-11.493-.1-12.1-.369-.349-.157-1.157.467-1.074l1.252.6c.833.363,2.105.917,3.394,1.434,5.5,2.351,8.34,3.64,8.34,3.64a1.488,1.488,0,0,1,.906,1.389s5.782,32.458,8.071,55.257a.249.249,0,0,0,.489.07s9.743-22.74,10.283-23.976c3.173-7.6,6.48-17.973,4.121-21.133-.417-.559.1-1.188.808-.878l12.43,5.429C243.54,188.718,243.272,189.545,242.506,189.679Z" transform="translate(174.907 -153.204)" fill="#d3d1c5"/>
        <path id="Path_1160" data-name="Path 1160" d="M230,251.988c-8.39,9.472-11.186,13.031-14.387,17.512-.238.361-.366.484-1.308-.134-4.35-2.849-16.721-11.009-16.794-11.06-6.206-3.811-9.967-6.377-15.013-9.74l-.025.039-2.611-1.714a1.351,1.351,0,0,1-.433-.439c-.85-.609-.47-1.5.83-1.582,5.65-2.771,11.6-12.24,16.838-19.841,4.182-6.067,12.748-19.519,12.748-19.519.64-.979,1.258-1.921,1.84-2.891l.405-.612a125.623,125.623,0,0,0,8.264-14.585c.187-.444.389-.833.554-1.241a.571.571,0,0,1,.106-.24,16.639,16.639,0,0,0,1.54-7.646.994.994,0,0,1,.187-.445.156.156,0,0,1,.109-.084c.285-.28.528-.017,4.272,2.334l.182.117a4.139,4.139,0,0,0,.64.369c5.253,3.288,9.788,6.416,14.568,9.553,2.866,1.876,7.406,4.9,11.982,7.487,1.482.819,2.569,1.378,3.4,1.767.76.341,1.306.542,1.677.682.643.212.9.285,1.146.548.447.5-1.065,2.1-2.715,5.007-3.318,5.854-4.9,8.5-7.149,12.72-.66,1.331-1.409,2.7-2.167,4.02-.179.352-.391.52-.587.5a.418.418,0,0,1-.2-.084c-1.306-1.012.506-9.307-.78-16.833-1.736-10.313-7.629-15.315-9.36-15.36A2.386,2.386,0,0,0,235.9,191.6c-1.8,2.035-8.463,12.122-16.411,24.323a1.209,1.209,0,0,0-.039,1.322c.758,1.378,3.822,2.555,6.561,2.8.794.053,1.49.1,2.155.115a14.411,14.411,0,0,0,7.937-2c.646-.512,1.658-.157.825,1.11l-.045.076a146.719,146.719,0,0,0-8.412,14.174.081.081,0,0,1-.07.109c-1.775,3.5-2.877,5.888-2.877,5.888-.212.484-.749.909-1.085.788-.291-.034-.484-.369-.394-1.138a25.9,25.9,0,0,0-.7-8.337c-.011-.059.011-.1-.048-.084-.942-3.78-2.566-6.914-4.177-8.488-1.342-1.35-2.737-1.591-3.69-.14-8.457,12.9-12.527,19.349-14.415,22.466a17.456,17.456,0,0,0-.9,1.691c-.937,1.51-1.661,2.7-2.114,3.383-1.16,1.929-1.582,3.833-.486,5.169.036.022.045.084.12.131a11.931,11.931,0,0,0,9.38,2.368c10.987-1.661,23.171-9.421,25.108-7.948C232.491,249.684,231.082,250.727,230,251.988Z" transform="translate(209.384 -133.042)" fill="#d3d1c5"/>
      </g>
    </g>
    <g id="Group_97" data-name="Group 97" transform="translate(96.573 293.85)">
      <g id="Group_96" data-name="Group 96">
        <path id="Path_1161" data-name="Path 1161" d="M88.751,262.228c.263.151.5.338.075.607-.453.257-.9.517-1.342.8-2.329,1.336-4.384,2.547-5.577,3.254-.693.4-1.088.629-1.088.629-.341.193-.545-.165-.439-.5.391-1.146-.271-3.643-3.045-8.818-.185-.321-.481-.875-.9-1.61-1.722-3.081-5.3-9.346-8.759-15.234-.408-.713-.741-1.244-.928-1.563-3.075-5.007-4.9-6.833-6.1-7.093-.333-.056-.537-.414-.2-.607l1.09-.626c1.211-.674,3.291-1.845,5.619-3.184l1.35-.777c.444-.229.492.067.489.369,0,1.951,1.471,4.781,3.154,7.959.369.69.78,1.454,1.233,2.242,4.138,7.316,8.781,15.345,9.925,17.163l.162.28C85.385,258.588,87.065,261.246,88.751,262.228Z" transform="translate(-60.274 -175.854)" fill="#d3d1c5"/>
        <path id="Path_1162" data-name="Path 1162" d="M112.269,255.917s-2.485,1.1-6.4,2.81c-1.1.478-2.326.883-3.377-.3L89.755,245.07a.216.216,0,0,0-.372.1c-.073.377-.157.8-.235,1.194a1.444,1.444,0,0,0,.1.855c2.362,5.39,2.947,6.824,3.7,8.429.948,2,2.8,5.39,4.386,6.262.3.165.207.45-.148.6,0,0-3.433,1.5-7.917,3.458-.458.173-.6-.076-.542-.366.24-1.278-.7-4.367-2.046-7.621-1.32-3.179-8.06-18.865-9.231-21.161-1.865-3.643-3.97-7.068-4.87-7.313-.338-.092-.472-.523-.117-.677,0,0,4.057-1.775,8.535-3.732.456-.176.5.179.425.464-.425,1.619.677,4.739,1.859,7.9.4,1.046,1.859,4.283,4.314,9.955a.217.217,0,0,0,.411-.05c.554-3.33,1.529-11.406,1.647-13.263.2-3.176-1.118-6.712-2.463-6.933-.492-.078-.506-.556-.1-.73,0,0,4.549-1.862,7.431-3.134.526-.232.911.109.506.528-1.957,2.027-2.9,6.377-3.324,9.656-.059.464-.5,4.2-.6,7.182a.732.732,0,0,0,.176.573c6.075,6.028,10.408,10.548,13.791,13.688,2.625,2.432,4.157,3.839,7.14,4.283C112.71,255.3,112.716,255.8,112.269,255.917Z" transform="translate(-38.761 -190.553)" fill="#d3d1c5"/>
        <path id="Path_1163" data-name="Path 1163" d="M112.791,233.463c2.511,7.968,1.84,15.963-2.709,20.313a12.678,12.678,0,0,1-12.458,2.835c-5.617-1.9-10.109-7.6-12.455-15.751C81.754,229,84.748,219.1,93.445,216.806,101.662,214.634,109.26,222.2,112.791,233.463Zm-7.778.786c-.814-1.884-1.686-3.682-2.555-5.331-3.66-6.785-7.66-11.121-11.471-9.4-4.227,1.89-2.675,10.612,1.814,20.2,4.532,9.637,9.665,16.38,13.671,14.837C111.128,252.761,109.285,243.935,105.014,234.248Z" transform="translate(-18.045 -195.583)" fill="#d3d1c5"/>
        <path id="Path_1164" data-name="Path 1164" d="M130.365,252.713c-3.014-.173-8.991-2.975-11.04-4.686-4.087-2.975-7.252-7.087-10.344-11.722a.9.9,0,0,0-.358-.358c-.148-.05-.828.067-.878.212a.525.525,0,0,0,.006.38c1.535,5.871,2.787,10.872,3.282,12.309.643,1.826,1.851,3.841,3.151,4.386.347.045.33.408-.05.5,0,0-5.264,1.269-10.009,2.474-.489.1-.6-.229-.31-.593.735-.987.872-3.346.531-5.046-.615-2.949-2.743-11.759-6.014-23.842a40.979,40.979,0,0,0-1.719-4.75,12.971,12.971,0,0,0-2.441-4.14c-.4-.366-.716-.623-.763-.814-.193-.4,1.222-.377,3.984-1.3a39.7,39.7,0,0,1,7.112-1.918l.064-.017a27.121,27.121,0,0,1,3.14-.394,13.124,13.124,0,0,1,3.592.249,11.348,11.348,0,0,1,5.5,2.9,8.824,8.824,0,0,1,1.806,2.62,15.65,15.65,0,0,1,1.4,4.543,8.729,8.729,0,0,1-1.1,6.425,8.075,8.075,0,0,1-2.731,2.628.371.371,0,0,0-.19.593c1,2.706,8.647,13.858,15.382,18.994C131.453,252.417,131.5,252.786,130.365,252.713ZM113.32,227.84a17.953,17.953,0,0,0-1.937-8.314,5.6,5.6,0,0,0-.551-.937,8.917,8.917,0,0,0-4.49-3.081,4.766,4.766,0,0,0-2.4-.106l-.126.031a1.431,1.431,0,0,0-.623.45,1.3,1.3,0,0,0-.254,1.026c.162,1.524,2.164,9.483,4.157,17.157a.629.629,0,0,0,.808.444,7.628,7.628,0,0,0,4.051-2.435,7.487,7.487,0,0,0,1.331-3.917C113.309,228.07,113.3,227.952,113.32,227.84Z" transform="translate(-0.804 -201.09)" fill="#d3d1c5"/>
        <path id="Path_1165" data-name="Path 1165" d="M132.625,222.3c.056.21-.19.691-.749-.006-.528-.654-4.778-5.424-6.268-6.665-1.775-1.5-2.86-2.189-3.95-2a.164.164,0,0,0-.081.031.54.54,0,0,0-.2.1.027.027,0,0,0-.039.006.76.76,0,0,0-.2.254,1.589,1.589,0,0,0-.137.73c.025.917,2.639,16.24,4.3,25.628.495,2.751.83,4.716,1.015,5.653a14.212,14.212,0,0,0,1.331,3.906c0,.022.022.017.028.039a3.505,3.505,0,0,0,1.591,1.705c.257.087.249.288.048.408a.689.689,0,0,1-.229.084s-1.884.3-4.406.716l-.405.067c-1.644.285-3.528.584-5.345.895-.492.064-.506-.26-.3-.475a4.071,4.071,0,0,0,.906-2.53c.017-.025.034-.048.011-.064a18.76,18.76,0,0,0-.148-3.8c-.173-1.4-.349-2.67-.741-5.085l.022-.006c-.917-5.317-2.278-12.978-3.894-22.374-.621-3.609-1.06-4.633-2.231-4.412-1.068.184-1.954,1.283-3.128,3.288-.99,1.663-3.405,7.576-3.685,8.373-.3.844-.71.475-.7.254,0-.772-.1-2.007-.137-2.726-.106-1.9-.71-7.068-.839-9.094-.025-.52.151-.663.542-.685a38.952,38.952,0,0,0,4.786-.294c2.139-.235,8.068-1.3,11.655-1.915l.322-.056c1.216-.21,2.234-.428,2.891-.584a36.2,36.2,0,0,0,4.613-1.3c.375-.131.587-.036.741.467.534,1.951,1.714,7.026,2.245,8.848C132.052,220.381,132.368,221.578,132.625,222.3Z" transform="translate(18.331 -206.558)" fill="#d3d1c5"/>
        <path id="Path_1166" data-name="Path 1166" d="M142.066,209.933c-1.778.948-3.374,6.752-4.521,13.461-.235,1.373-4.733,28.228-4.733,28.228a.269.269,0,0,1-.526.05s-10.274-26.045-10.831-27.4c-.895-2.186-4.358-11.362-6.391-11.887a.356.356,0,0,1-.288-.341c-.017-.21.131-.3.322-.31l2.432-.215c.067-.006.137-.008.2-.014l8.379-.749a.305.305,0,0,1,.182.54s-.137-.045-.456.556c-.609,1.143-.6,3.623.822,7.5l6.413,17.5c.123.408.285.719.383-.014l2.253-14c.685-5.6.551-11.434-1.1-12.217-.126-.059-.26-.034-.341-.081-.182-.1-.089-.416.011-.484a1.281,1.281,0,0,1,.369-.048l7.339-.654C142.373,209.321,142.415,209.74,142.066,209.933Z" transform="translate(37.594 -208.299)" fill="#d3d1c5"/>
        <path id="Path_1167" data-name="Path 1167" d="M149.858,238.885a94.943,94.943,0,0,0-1.093,11.278c0,.218-.02.3-.581.31-2.6.028-10.011.087-10.056.087-3.637.148-5.916.129-8.949.143v.022l-1.56.017a.761.761,0,0,1-.3-.061c-.52-.017-.612-.492-.1-.889,1.574-2.726,1.4-8.317,1.462-12.933.045-3.685-.148-11.658-.148-11.658-.006-.587-.014-1.149-.039-1.711l-.006-.369a62.709,62.709,0,0,0-.632-8.359c-.048-.238-.07-.453-.115-.671a.3.3,0,0,1-.025-.129,8.35,8.35,0,0,0-1.49-3.6.484.484,0,0,1-.048-.238.093.093,0,0,1,.022-.067c.039-.193.215-.154,2.427-.221h.106a2.033,2.033,0,0,0,.369-.028c3.095-.1,5.851-.062,8.709-.092,1.714-.02,4.445-.028,7.065-.229.844-.073,1.451-.145,1.9-.215.414-.07.691-.137.886-.184a1.249,1.249,0,0,1,.629-.092c.324.084.143,1.169.268,2.838.254,3.355.335,4.9.579,7.274.1.735.168,1.515.221,2.276.022.193-.02.321-.106.366a.167.167,0,0,1-.106.025c-.825-.059-2.385-4.006-5.015-6.774-3.6-3.8-7.437-4.233-8.169-3.769a1.2,1.2,0,0,0-.489.937c-.179,1.345-.137,7.395-.036,14.672a.6.6,0,0,0,.352.559c.7.363,2.3,0,3.506-.665.344-.2.649-.375.925-.551a7.231,7.231,0,0,0,2.743-3.042c.126-.394.643-.528.651.232v.039a73.873,73.873,0,0,0,.458,8.233.039.039,0,0,1,0,.064c.238,1.951.447,3.246.447,3.246.048.26-.059.584-.232.632-.129.064-.3-.017-.478-.363a12.946,12.946,0,0,0-2.617-3.265c-.022-.022-.022-.045-.045-.022a9.492,9.492,0,0,0-4.1-2.36c-.937-.185-1.585.1-1.574.97.084,7.716.19,11.527.277,13.347a8.342,8.342,0,0,0,.1.953c.031.889.059,1.582.061,1.993.059,1.127.414,2.032,1.238,2.284.025,0,.045.022.087.022a5.965,5.965,0,0,0,4.557-1.633c4.1-3.749,6.995-10.372,8.208-10.3C150.25,237.23,149.956,238.057,149.858,238.885Z" transform="translate(58.071 -208.976)" fill="#d3d1c5"/>
        <path id="Path_1168" data-name="Path 1168" d="M162.134,254.824c-2.812-1.1-7.618-5.628-9.027-7.889-2.958-4.1-4.683-8.994-6.173-14.367a.9.9,0,0,0-.229-.45c-.123-.095-.805-.193-.9-.073a.536.536,0,0,0-.112.366c-.369,6.053-.744,11.194-.716,12.715.039,1.937.556,4.23,1.621,5.15.316.151.184.489-.207.464,0,0-5.4-.436-10.28-.769-.5-.056-.495-.405-.106-.657,1-.713,1.87-2.913,2.077-4.635.333-2.994,1.062-12.024,1.722-24.524a40.654,40.654,0,0,0-.154-5.049,12.99,12.99,0,0,0-1.023-4.7,2.791,2.791,0,0,1-.475-1.012c-.056-.436,1.28.025,4.194.006a39.794,39.794,0,0,1,7.353.4l.064,0a27.328,27.328,0,0,1,3.112.6,13.2,13.2,0,0,1,3.335,1.362,11.356,11.356,0,0,1,4.316,4.462,8.84,8.84,0,0,1,.9,3.056,15.541,15.541,0,0,1-.087,4.75,8.742,8.742,0,0,1-3.045,5.765,8.081,8.081,0,0,1-3.414,1.641.372.372,0,0,0-.366.506c.109,2.888,3.889,15.863,8.686,22.844C163.258,254.885,163.191,255.252,162.134,254.824Zm-8.44-28.944a17.879,17.879,0,0,0,.755-8.5,5.544,5.544,0,0,0-.232-1.062,8.932,8.932,0,0,0-3.3-4.331,4.745,4.745,0,0,0-2.245-.847l-.129-.008a1.4,1.4,0,0,0-.735.232,1.29,1.29,0,0,0-.559.895c-.321,1.5-.9,9.684-1.4,17.6a.629.629,0,0,0,.629.674,6.454,6.454,0,0,0,7.1-4.356C153.61,226.093,153.641,225.981,153.694,225.88Z" transform="translate(75.209 -208.557)" fill="#d3d1c5"/>
        <path id="Path_1169" data-name="Path 1169" d="M170,243.965c-.878,5.393-5.194,8.381-10.369,8.574-5.946.12-12.167-2.952-13.232-3.45-.472-.218-.38-.5-.193-.934a104.3,104.3,0,0,0,3.852-12.284c.081-.347.612-.495.724.106.495,2.7,1.434,13.816,6.922,14.532,3.9.506,5.245-3.321,4.831-6.3-.7-5.043-6.265-9.779-10.081-15.01-2.547-3.492-3.665-6.422-2.737-10.42,1.37-5.941,6.808-9.491,13.531-8.138a23.208,23.208,0,0,1,8.471,3.349c.078.045.115.254,0,.54-1.512,3.78-2.642,8.426-3.044,9.212a.3.3,0,0,1-.551-.031c-.165-.777-2.169-9.916-6.271-11.348-5.055-1.764-6.97,4.7-4.982,8.764,1.515,3.095,4.92,5.695,8.941,10.844C170.115,237.479,170.623,240.138,170,243.965Z" transform="translate(93.76 -206.502)" fill="#d3d1c5"/>
        <path id="Path_1170" data-name="Path 1170" d="M177.749,214.673c-1.392,1.44-2.265,4.7-3.313,8.281-.609,2.063-2.913,11.057-4.906,19.212-.853,3.528-1.482,6.433-1.633,7.07-.034.112-.062.218-.084.313-2.267,8.351-9.891,9.763-15.125,6.978-.377-.26-.274-.545.3-.548,6.76-.1,7.613-5.949,8.373-8.5.12-.4.945-3.525,1.789-6.93,2.158-8.194,4.317-16.959,4.736-18.818,1.283-5.723,1.454-8.267.769-9.273-.2-.285-.087-.688.288-.593,0,0,3.981,1.006,8.723,2.209C178.132,214.217,177.95,214.463,177.749,214.673Z" transform="translate(105.273 -203.811)" fill="#d3d1c5"/>
        <path id="Path_1171" data-name="Path 1171" d="M188.944,240.955c-3.162,7.727-8.787,13.444-15.063,13.886a12.673,12.673,0,0,1-11.392-5.781c-3.1-5.049-2.919-12.3.489-20.068,4.948-11.3,13.573-17,21.731-13.207C192.417,219.361,193.423,230.035,188.944,240.955Zm-6.486-4.364c.582-1.974,1.057-3.914,1.443-5.734,1.524-7.56,1.216-13.45-2.812-14.56-4.459-1.25-8.84,6.45-11.51,16.687-2.673,10.308-3.036,18.773,1.032,20.146C175.332,254.73,179.556,246.765,182.458,236.591Z" transform="translate(119.317 -198.849)" fill="#d3d1c5"/>
        <path id="Path_1172" data-name="Path 1172" d="M211.184,230.92c-2.189.294-4.982,4.434-7.2,8.334-.453.814-4.073,7.5-4.073,7.5s-9.575,18.393-9.852,18.96c-.274.612-.593.615-.691-.268-.022-.892-2.105-32.251-2.354-36.473a.13.13,0,0,0-.243-.053c-.607,1.1-1.451,2.712-1.451,2.712s-6.844,12.634-7.912,15.032c-1.515,3.442-3.629,7.643-2.469,9.721.168.235.014.766-.439.551-2.27-1.266-2.949-1.649-6.26-3.268-.327-.171-.145-.517.2-.559,2.4-.327,4.845-4.328,6.816-7.7.967-1.647,10.154-18.969,11.152-21.334,1.275-3.028.679-5.714.389-6.039a.313.313,0,0,1,.274-.52l.6.341c.4.215,1.018.537,1.641.839,2.656,1.373,4.029,2.119,4.029,2.119a.742.742,0,0,1,.4.727s1.708,16.4,2.021,27.851a.126.126,0,0,0,.243.053s5.684-10.99,6-11.585c1.859-3.674,3.883-8.728,2.821-10.389-.187-.3.089-.59.436-.411l6,3.159C211.735,230.478,211.57,230.884,211.184,230.92Z" transform="translate(133.29 -193.645)" fill="#d3d1c5"/>
      </g>
    </g>
  </g>
</svg>
