<?xml version="1.0" encoding="utf-8"?>
<!-- Generator: Adobe Illustrator 23.0.1, SVG Export Plug-In . SVG Version: 6.00 Build 0)  -->
<svg version="1.1" id="Layer_1" xmlns="http://www.w3.org/2000/svg" xmlns:xlink="http://www.w3.org/1999/xlink" x="0px" y="0px"
	 viewBox="0 0 503.65 179.64" style="enable-background:new 0 0 503.65 179.64;" xml:space="preserve">
<style type="text/css">
	.st0{fill:#F6B1B1;}
</style>
<g>
	<path class="st0" d="M41.92,52.29c-1.03,9.92-1.19,13.48-1.19,17.82c0.01,0.34-0.02,0.48-0.9,0.52
		c-4.09,0.17-15.77,0.61-15.83,0.61c-5.73,0.4-9.31,0.48-14.09,0.64l0,0.03l-2.46,0.1c-0.17,0.01-0.34-0.02-0.48-0.08
		c-0.82,0-0.99-0.75-0.19-1.39c2.35-4.37,1.82-13.16,1.7-20.44c-0.1-5.81-0.78-18.36-0.78-18.36c-0.04-0.92-0.07-1.81-0.14-2.7
		l-0.02-0.58c-0.34-5.83-0.8-10.36-1.39-13.14c-0.08-0.37-0.13-0.71-0.21-1.05c-0.04-0.07-0.04-0.13-0.04-0.2
		C4.9,10.01,3.7,9.1,3.36,8.47C3.29,8.33,3.29,8.23,3.28,8.09c0-0.03,0-0.07,0.03-0.1c0.06-0.31,0.33-0.25,3.81-0.46l0.17-0.01
		c0.21-0.01,0.38-0.02,0.58-0.06c4.87-0.3,9.21-0.37,13.72-0.56c2.7-0.11,7-0.25,11.11-0.69c1.33-0.16,2.28-0.3,2.99-0.43
		c0.64-0.13,1.08-0.25,1.39-0.33c0.51-0.16,0.71-0.23,0.98-0.18c0.52,0.12,0.28,1.83,0.56,4.45c0.56,5.27,0.76,7.69,1.25,11.43
		c0.18,1.15,0.34,2.38,0.45,3.57c0.05,0.31-0.01,0.51-0.15,0.59c-0.07,0.04-0.1,0.04-0.17,0.04c-1.3-0.05-3.94-6.2-8.22-10.43
		c-5.84-5.81-11.91-6.32-13.04-5.55c-0.53,0.33-0.68,0.98-0.72,1.5c-0.22,2.13,0.13,11.65,0.63,23.11c0.02,0.41,0.23,0.71,0.58,0.86
		c1.12,0.54,3.62-0.11,5.49-1.21c0.53-0.33,1-0.62,1.43-0.91c2.09-1.45,3.2-2.86,4.17-4.92c0.18-0.62,0.99-0.86,1.04,0.33
		c0,0.03,0,0.03,0,0.07c0.08,4.54,0.62,9.41,1.11,12.94c0.04,0.03,0.04,0.07,0,0.1c0.47,3.06,0.86,5.09,0.86,5.09
		c0.09,0.41-0.06,0.93-0.33,1.01c-0.2,0.11-0.48-0.01-0.77-0.55c-1.14-1.94-2.68-3.65-4.27-5.02c-0.04-0.03-0.04-0.07-0.07-0.03
		c-2.34-1.99-4.81-3.26-6.57-3.53c-1.48-0.25-2.49,0.24-2.43,1.6c0.49,12.15,0.84,18.15,1.06,21.01c0.02,0.41,0.1,0.92,0.2,1.5
		c0.09,1.4,0.17,2.49,0.2,3.14c0.14,1.77,0.75,3.18,2.06,3.54c0.03,0,0.07,0.03,0.14,0.03c0.79,0.1,4.14,0.07,7.1-2.79
		c6.28-6.1,10.53-16.66,12.45-16.6C42.46,49.67,42.04,50.98,41.92,52.29z"/>
	<path class="st0" d="M91.26,27.44c0.01,0.34-0.54,0.99-1.15-0.27c-0.58-1.2-5.41-10.02-7.26-12.45c-2.19-2.93-3.61-4.38-5.35-4.48
		c-0.03,0-0.07,0-0.14,0.03c-0.1-0.01-0.21,0.02-0.35,0.08c-0.03-0.04-0.07,0-0.07,0c-0.14,0.06-0.28,0.19-0.39,0.32
		c-0.26,0.29-0.38,0.7-0.47,1.07c-0.29,1.42-1.71,25.86-2.5,40.87c-0.22,4.4-0.4,7.53-0.45,9.04c-0.07,1.77,0.06,4.35,0.66,6.47
		c0,0.03,0.03,0.04,0.03,0.07c0.4,1.43,0.98,2.62,1.84,3.18c0.36,0.23,0.28,0.53-0.07,0.65c-0.1,0.03-0.24,0.06-0.38,0.05
		c0,0-3-0.21-7.02-0.47l-0.65-0.04c-2.63-0.15-5.62-0.36-8.52-0.52c-0.78-0.08-0.68-0.59-0.29-0.84c1.06-0.66,1.79-2.02,2.29-3.56
		c0.04-0.03,0.07-0.07,0.04-0.1c0.66-2.01,0.97-4.32,1.12-5.89c0.23-2.21,0.41-4.22,0.67-8.07l0.03,0
		c0.49-8.49,1.11-20.73,1.97-35.73c0.33-5.76,0.02-7.49-1.86-7.56c-1.7-0.1-3.46,1.27-5.97,3.93c-2.11,2.2-7.91,10.42-8.63,11.55
		c-0.75,1.19-1.26,0.48-1.17,0.14c0.27-1.18,0.55-3.12,0.75-4.23c0.51-2.95,1.42-11.1,1.94-14.25C50.07,5.6,50.39,5.45,51,5.55
		c1.01,0.23,3.51,0.82,7.45,1.25c3.36,0.4,12.84,0.87,18.57,1.2l0.51,0.03c1.94,0.11,3.58,0.14,4.64,0.13
		c3.96,0.06,6.51-0.24,7.54-0.35c0.62-0.07,0.92,0.15,0.97,0.98c0.13,3.19,0.13,11.4,0.31,14.38
		C91.07,24.29,91.13,26.24,91.26,27.44z"/>
	<path class="st0" d="M144.52,76.57c-5.77,4.38-13.05,4.83-23.57,2.28c-5.6-1.37-6.33-1.51-10.91-2.61l-2.76-0.66
		c-0.75-0.22-0.98-0.9,0.13-1.41c2.56-2.06,4.31-7.18,6.17-14.22c2.2-8.32,4.02-16.24,6.52-29.05c0.6-3.09,1.4-6.9,1.92-9.96
		c1.1-6.79-1.03-6.52-0.73-7.32c0.16-0.38,0.22-0.78,3.96,0.01c0,0,11.46,2.66,15.07,4.62c7.61,4.13,12.34,11.08,14.18,21.34
		C156.44,50.41,154.01,69.07,144.52,76.57z M144.7,35.71c-0.76-12.65-6.44-15.59-7.67-16.09c-1.05-0.43-2.26-0.7-2.65,0.21
		c-1.69,4.26-11.41,47.36-12.61,53.01c-0.35,1.77-0.07,3.09,1.23,3.7c2.28,1.07,6.16,0.06,8.36-1.97c3.94-3.59,5.57-6.43,7.35-10.22
		C143.42,54.31,145.03,41.28,144.7,35.71z"/>
	<path class="st0" d="M207.36,40.26c-1.54,0.42-3.14,2.04-4.63,4.34c-1.03,1.58-3.12,6.34-4.04,8.29c-0.72,1.91-2.29,5.98-5.32,13.8
		l-6.33,16.79c-3.14,8.34-11.69,12.9-21.2,9.31c-9.58-3.61-12.89-12.64-9.75-20.98l0.75-1.98c0.25-0.65,0.54-1.33,0.8-2.02
		c1.4-3.7,3.99-10.28,6.25-16.28l0.66-1.76c0.59-1.57,1.13-3.08,1.64-4.44c0.84-2.33,1.64-4.44,2.28-6.24l0.06-0.16
		c1.65-4.96,2.3-8.23,2.35-10.29c-0.02-0.04-0.01-0.07-0.01-0.07c0.01-1.08-0.15-1.82-0.43-2.35c-0.23-0.44-0.06-0.99,0.47-0.86
		c0,0,0.03,0.01,0.06,0.02c1.21,0.46,2.83,1.1,4.65,1.79c1.87,0.74,4.21,1.62,6.7,2.56l2.3,0.87c0.73,0.31,0.41,0.65,0.05,0.94
		c-1.2,0.95-2.24,2.56-3.29,4.57c-0.02,0.06-0.05,0.12-0.09,0.14c-0.49,1-0.99,2.03-1.49,3.17c-0.08,0.22-0.21,0.45-0.29,0.68
		c-0.11,0.28-0.22,0.6-0.38,0.9c-0.88,2.24-2.11,5.29-3.53,8.98c-0.32,0.85-1.08,2.86-1.97,5.03l-0.2,0.54
		c-0.86,2.18-1.77,4.49-2.27,5.84c-1.22,3.23-2.57,6.91-3.93,10.52l-0.82,2.17c0,0-0.53,1.59-0.54,1.63
		c-1.81,4.8-0.08,10.89,4.87,12.76c4.95,1.87,10.1-1.68,12.21-6.36c1.62-3.58,5.36-12.8,5.36-12.8c1.73-4.79,4.78-13.08,5.05-13.87
		c1.33-3.62,3.72-10.95,4.08-14.39c0.26-2.23,0.11-4.08-0.68-4.98c-0.21-0.22-0.18-0.5-0.01-0.65c0.13-0.14,0.32-0.17,0.58-0.08
		c0,0,5.92,2.3,10.01,3.84c0.29,0.11,0.44,0.27,0.47,0.39C207.94,39.87,207.72,40.18,207.36,40.26z"/>
	<path class="st0" d="M224.7,118.27c0,0-3.88-1.82-9.97-4.72c-1.7-0.81-3.45-1.85-3.13-4.33l2.73-28.95
		c0.03-0.28-0.27-0.48-0.51-0.33c-0.52,0.3-1.11,0.64-1.66,0.96c-0.4,0.23-0.72,0.58-0.91,0.99c-3.97,8.38-5.08,10.56-6.2,13.12
		c-1.4,3.2-3.51,8.91-2.91,11.69c0.12,0.54-0.32,0.71-0.87,0.45c0,0-5.34-2.53-12.3-5.85c-0.68-0.36-0.53-0.79-0.12-1.03
		c1.77-1.03,4.48-5.34,6.95-10.31c2.42-4.86,14.11-29.09,15.63-32.86c2.4-5.98,4.3-12.03,3.67-13.35c-0.24-0.5,0.13-1.1,0.68-0.84
		c0,0,6.3,2.98,13.26,6.3c0.68,0.36,0.3,0.78-0.11,0.98c-2.37,1.17-4.94,5.7-7.47,10.38c-0.84,1.55-3.18,6.63-7.39,15.42
		c-0.15,0.31,0.2,0.62,0.48,0.44c4.53-2.77,15.15-9.97,17.48-11.75c3.99-3.05,6.83-8.27,5.7-10.1c-0.41-0.67,0.14-1.18,0.77-0.88
		c0,0,6.92,3.49,11.41,5.6c0.81,0.39,0.81,1.2-0.11,1.15c-4.43-0.24-10.59,3.13-14.93,6.02c-0.61,0.41-5.52,3.76-9.16,6.72
		c-0.26,0.21-0.48,0.46-0.5,0.8c-0.89,13.46-1.79,23.29-2.03,30.57c-0.18,5.63-0.27,8.91,2.28,12.92
		C225.9,118.16,225.31,118.68,224.7,118.27z"/>
	<path class="st0" d="M264.95,137.7c0,0-3.88-1.81-9.97-4.7c-1.71-0.81-3.46-1.85-3.14-4.32l2.67-28.96
		c0.03-0.28-0.27-0.48-0.51-0.33c-0.52,0.3-1.11,0.64-1.66,0.96c-0.4,0.23-0.72,0.58-0.91,1c-3.96,8.39-5.06,10.57-6.17,13.13
		c-1.39,3.2-3.5,8.92-2.89,11.7c0.12,0.54-0.32,0.71-0.87,0.45c0,0-5.35-2.52-12.32-5.82c-0.68-0.36-0.53-0.79-0.13-1.03
		c1.77-1.03,4.47-5.35,6.93-10.32c2.41-4.86,14.05-29.12,15.56-32.89c2.39-5.99,4.28-12.04,3.64-13.36
		c-0.24-0.49,0.13-1.1,0.68-0.84c0,0,6.31,2.97,13.27,6.27c0.68,0.36,0.3,0.78-0.11,0.99c-2.36,1.17-4.93,5.71-7.45,10.39
		c-0.83,1.55-3.17,6.64-7.35,15.43c-0.14,0.31,0.2,0.62,0.48,0.44c4.53-2.79,15.13-10,17.46-11.78c3.98-3.05,6.81-8.28,5.68-10.11
		c-0.41-0.67,0.14-1.18,0.76-0.88c0,0,6.92,3.47,11.42,5.58c0.82,0.39,0.82,1.19-0.1,1.15c-4.44-0.23-10.58,3.16-14.91,6.05
		c-0.61,0.41-5.51,3.77-9.15,6.74c-0.25,0.21-0.48,0.47-0.5,0.8c-0.87,13.46-1.74,23.29-1.97,30.57c-0.17,5.63-0.25,8.91,2.31,12.91
		C266.14,137.59,265.56,138.11,264.95,137.7z"/>
	<path class="st0" d="M312.92,135.9c-4.59,8.85-6.05,12.1-7.63,16.15c-0.11,0.32-0.19,0.44-1.03,0.15
		c-3.87-1.34-14.89-5.21-14.96-5.23c-5.47-1.72-8.84-2.96-13.34-4.56l-0.01,0.03l-2.32-0.81c-0.16-0.06-0.31-0.14-0.42-0.25
		c-0.76-0.3-0.65-1.06,0.33-1.37c3.79-3.21,6.52-11.58,9.06-18.4c2.03-5.44,6-17.36,6-17.36c0.3-0.87,0.59-1.71,0.85-2.56l0.19-0.55
		c1.82-5.55,3.05-9.93,3.52-12.73c0.06-0.38,0.14-0.71,0.19-1.06c-0.01-0.08,0.01-0.14,0.04-0.2c0.57-4.14-0.21-5.42-0.29-6.14
		c-0.02-0.15,0.01-0.25,0.06-0.38c0.01-0.03,0.02-0.07,0.07-0.09c0.17-0.27,0.4-0.11,3.71,0.96l0.16,0.06
		c0.19,0.07,0.36,0.12,0.56,0.16c4.65,1.51,8.71,3.03,12.97,4.5c2.55,0.89,6.6,2.33,10.59,3.43c1.29,0.34,2.23,0.56,2.94,0.7
		c0.65,0.12,1.1,0.17,1.41,0.2c0.53,0.04,0.74,0.04,0.98,0.19c0.44,0.3-0.41,1.81-1.11,4.35c-1.41,5.11-2.11,7.43-3.02,11.09
		c-0.25,1.14-0.56,2.34-0.88,3.49c-0.07,0.3-0.2,0.47-0.35,0.49c-0.08,0.01-0.11,0-0.17-0.02c-1.19-0.52-1.4-7.21-3.82-12.72
		c-3.31-7.55-8.77-10.24-10.1-9.94c-0.62,0.11-0.99,0.67-1.22,1.13c-0.98,1.9-4.14,10.89-7.87,21.74c-0.13,0.39-0.04,0.75,0.23,1.02
		c0.84,0.91,3.41,1.22,5.55,0.88c0.62-0.11,1.16-0.21,1.67-0.33c2.48-0.59,4.02-1.49,5.69-3.05c0.4-0.51,1.24-0.44,0.85,0.69
		c-0.01,0.03-0.01,0.03-0.02,0.06c-1.59,4.26-2.87,8.98-3.71,12.45c0.02,0.04,0.01,0.08-0.03,0.1c-0.69,3.01-1.07,5.05-1.07,5.05
		c-0.07,0.41-0.4,0.84-0.68,0.81c-0.23,0.03-0.44-0.19-0.52-0.8c-0.35-2.22-1.15-4.38-2.14-6.24c-0.02-0.04-0.01-0.08-0.05-0.06
		c-1.45-2.71-3.29-4.79-4.82-5.69c-1.29-0.77-2.4-0.69-2.85,0.6c-3.99,11.48-5.86,17.2-6.71,19.94c-0.13,0.39-0.24,0.89-0.36,1.46
		c-0.43,1.33-0.75,2.38-0.97,2.99c-0.52,1.7-0.47,3.23,0.62,4.05c0.03,0.01,0.05,0.06,0.12,0.08c0.7,0.39,3.82,1.58,7.62,0.01
		c8.08-3.38,15.9-11.65,17.66-10.89C314.38,133.66,313.51,134.72,312.92,135.9z"/>
	<path class="st0" d="M359.21,162.89c-1.4-0.12-4.63-0.7-5.27-0.81c-2.19-0.38-4.55-0.76-6.81-1.12l-0.47-0.08
		c-2.29-0.36-2.3-0.38-2.44-0.77c-0.36-1.07,2.77-1.24,3.65-6.82l1.01-6.34c0.12-0.5,0.2-1.04,0.29-1.61
		c0.3-1.68,0.61-3.6,0.99-5.76l0.08-0.51c0.33-2.3,0.85-5.57,1.44-9.25c0.09-0.54-0.28-1.05-0.82-1.13l-12.92-2.06
		c-0.54-0.09-1.05,0.28-1.13,0.82c-0.36,2.47-0.78,5.1-1.19,7.66l-0.23,1.45c-0.19,1.39-0.39,2.84-0.55,4.34
		c-0.41,3.22-0.65,6.92-0.81,10.04c-0.28,7.15,1.61,6.83,1.37,7.65c-0.14,0.43,0.09,0.37-3.42-0.19l-11.85-1.87
		c-0.77-0.16-1.07-0.65-0.01-1.21c0.75-0.57,1.6-2.44,2.42-5.01l1.18-7.39c0.09-0.57,0.22-1.18,0.32-1.82l0.1-0.61
		c0.09-0.57,0.18-1.15,0.31-1.75l0.57-3.57c0.11-0.71,0.26-1.41,0.38-2.16c0.83-5.23,1.8-11.51,2.86-18.6l1.41-8.87
		c0.15-1.6,0.26-3.18,0.32-4.62c0.31-7.14-1.61-6.79-1.35-7.62c0.13-0.36,0.08-0.3,2.96,0.09c0.27,0.04,0.61,0.06,0.95,0.12
		l0.14,0.02c2.66,0.46,5.89,1.01,8.99,1.5l2.46,0.39c0.77,0.16,1.07,0.66,0.01,1.22c-1.61,1.19-3.42,7.75-4.76,14.87
		c-0.28,1.55-0.56,3.09-0.84,4.64l-0.14,0.91c-0.19,1.39-0.48,3.24-0.82,5.37c-0.12,0.77,0.41,1.55,1.22,1.68l12.41,1.98
		c0.54,0.09,1.08-0.28,1.17-0.82c0.17-1.25,0.36-2.5,0.56-3.75l0.6-3.74c0.08-0.75,0.2-1.49,0.32-2.2c0.36-2.29,0.65-4.32,0.88-5.98
		c0.52-5.42,0.51-9.95-0.39-11.23c-0.83-0.86-0.33-1.4,0.45-1.31c0.71,0.11,3.43,0.65,4.57,0.83l0.37,0.06
		c1.96,0.31,4.08,0.68,6.2,1.02l1.15,0.18c2.73,0.44,2.39,0.38,2.4,0.76c0.04,0.84-1.69-0.06-3.48,6.85
		c-0.12,0.5-0.27,1.03-0.39,1.56c-0.67,2.69-0.94,5.72-1.42,8.34c-2.32,12.81-5.28,34.79-5.29,34.86
		c-0.34,4.92-0.22,8.95,0.66,10.17C360.43,162.6,359.99,162.98,359.21,162.89z"/>
	<path class="st0" d="M387.41,100.32c-1.71,2.65-2.07,7.95-2.61,13.81c-0.31,3.38-1.15,17.99-1.76,31.2
		c-0.25,5.71-0.34,10.4-0.38,11.43c-0.02,0.18-0.03,0.35-0.03,0.5c-0.97,13.61-12.33,18.1-21.27,15.38
		c-0.66-0.29-0.59-0.76,0.29-0.94c10.43-2.2,9.98-11.51,10.38-15.68c0.07-0.66,0.39-5.74,0.67-11.26
		c0.85-13.33,1.54-27.54,1.62-30.54c0.25-9.24-0.26-13.23-1.62-14.57c-0.39-0.38-0.34-1.03,0.26-1c0,0,6.47,0.35,14.16,0.77
		C387.86,99.5,387.66,99.93,387.41,100.32z"/>
	<path class="st0" d="M428.55,146.31c-1.51,9.86-1.85,13.41-2.06,17.74c0,0.34-0.04,0.48-0.93,0.47c-4.1-0.03-15.78-0.16-15.85-0.16
		c-5.74,0.12-9.32,0.02-14.11-0.05v0.03l-2.46-0.02c-0.17,0-0.34-0.04-0.48-0.11c-0.82-0.04-0.95-0.8-0.13-1.4
		c2.56-4.25,2.46-13.06,2.69-20.34c0.18-5.8,0.12-18.37,0.12-18.37c0.01-0.92,0.01-1.81-0.01-2.7l0.01-0.58
		c-0.06-5.84-0.29-10.38-0.75-13.19c-0.06-0.38-0.1-0.72-0.16-1.06c-0.03-0.07-0.03-0.14-0.03-0.21c-0.79-4.1-1.94-5.07-2.24-5.72
		c-0.07-0.14-0.07-0.24-0.06-0.38c0-0.03,0-0.07,0.03-0.1c0.07-0.31,0.34-0.23,3.83-0.28l0.17,0c0.2,0,0.38,0,0.58-0.03
		c4.89-0.06,9.22,0.08,13.73,0.11c2.7,0.02,7,0.09,11.14-0.15c1.33-0.09,2.29-0.19,3.01-0.28c0.65-0.1,1.09-0.2,1.4-0.26
		c0.51-0.13,0.72-0.2,0.99-0.13c0.51,0.14,0.19,1.85,0.34,4.48c0.3,5.3,0.38,7.72,0.69,11.48c0.13,1.16,0.22,2.39,0.28,3.59
		c0.03,0.31-0.04,0.51-0.18,0.58c-0.07,0.03-0.1,0.03-0.17,0.03c-1.3-0.11-3.64-6.38-7.7-10.82c-5.55-6.09-11.59-6.89-12.76-6.19
		c-0.55,0.3-0.73,0.95-0.8,1.46c-0.32,2.12-0.44,11.64-0.5,23.12c0,0.41,0.2,0.72,0.54,0.89c1.09,0.59,3.62,0.06,5.54-0.94
		c0.55-0.3,1.03-0.57,1.48-0.84c2.16-1.35,3.34-2.71,4.41-4.71c0.21-0.61,1.03-0.81,1.02,0.38c0,0.03,0,0.03,0,0.07
		c-0.14,4.54,0.16,9.43,0.47,12.98c0.03,0.03,0.03,0.07,0,0.1c0.32,3.07,0.61,5.13,0.61,5.13c0.07,0.41-0.11,0.92-0.38,0.99
		c-0.2,0.1-0.48-0.04-0.75-0.59c-1.04-1.99-2.5-3.78-4.02-5.23c-0.03-0.03-0.03-0.07-0.07-0.03c-2.24-2.1-4.65-3.49-6.39-3.85
		c-1.47-0.32-2.49,0.12-2.51,1.48c-0.1,12.16-0.05,18.17,0.03,21.04c0,0.41,0.06,0.92,0.12,1.5c0.02,1.4,0.05,2.5,0.04,3.14
		c0.06,1.78,0.59,3.22,1.88,3.64c0.03,0,0.07,0.03,0.14,0.04c0.78,0.14,4.13,0.27,7.23-2.43c6.57-5.79,11.33-16.13,13.25-15.98
		C429.23,143.71,428.74,145.01,428.55,146.31z"/>
	<path class="st0" d="M498.66,159.1c-2.78,0.19-15.32,1.36-17.42,1.61c-0.78,0.04-0.73-0.42-0.48-0.82
		c2.34-3.68,2.14-8.59,1.77-13.83c-0.33-4.76-3.51-34.53-3.51-34.53s-0.27-2.85-0.49-4.84c-0.02-0.21-0.33-0.27-0.38-0.07
		c-0.87,3.85-8.43,42.72-11.84,58.12c-0.1,0.44-0.7,0.5-0.88,0.09c-3.48-7.91-22.33-51.02-24.21-54.57
		c-0.1-0.17-0.38-0.07-0.36,0.14c0.16,2,0.43,4.84,0.43,4.84s3.1,32.18,3.8,36.28c1.36,8,3,10.04,4.63,11.48
		c0.35,0.31,0.56,0.65-0.21,0.76c-2.91,0.25-10.73,1.15-11.02,1.19c-0.6,0.07-0.43-0.53-0.1-0.97c2.72-3.62,2.43-9.39,2.51-12.5
		c0.07-3.01-3.09-36.69-3.9-40.63c-1.24-6.01-4.49-9.06-5.15-9.24c-0.4-0.11-0.44-0.8,0.03-0.97c0.66-0.06,15.45-1.47,15.45-1.47
		c0.78-0.07,1.05,0.49,1.16,0.63c0,0,11.4,26.29,18.53,42.32c0.14,0.32,0.61,0.27,0.69-0.07c3.01-13.36,6.96-37.69,8.35-44.86
		c0.03-0.17,0.24-0.76,1.02-0.83c0,0,14.56-1.38,15.22-1.45c0.49,0.08,0.5,0.65,0.18,0.9c-1.91,1.44-2.39,6.13-2.16,11.84
		c0.16,3.97,3.23,34.53,3.68,37.51c0.81,5.46,1.34,10.16,4.77,12.93C499.2,158.43,499.27,159.06,498.66,159.1z"/>
</g>
</svg>
